<svg width="250" height="156" viewBox="0 0 250 156" fill="none" xmlns="http://www.w3.org/2000/svg">
<g clip-path="url(#clip0_313_830)">
<path d="M182.966 32.377H62.0469C61.4511 32.377 60.8797 32.6136 60.4581 33.0349C60.0365 33.4562 59.7993 34.0277 59.7986 34.6239V91.7359C59.7992 92.3323 60.0363 92.9041 60.4578 93.3259C60.8793 93.7477 61.4508 93.9849 62.0469 93.9855H182.966C183.561 93.9843 184.132 93.7468 184.553 93.3251C184.974 92.9034 185.211 92.3319 185.211 91.7359V34.6239C185.211 34.0281 184.974 33.457 184.553 33.0357C184.132 32.6145 183.561 32.3776 182.966 32.377Z" fill="#3F3D56"/>
<path d="M151.026 59.8918C150.431 59.8925 149.86 60.1294 149.439 60.5506C149.018 60.9719 148.781 61.543 148.78 62.1387V78.2713C148.781 78.8673 149.017 79.4388 149.438 79.8605C149.859 80.2822 150.43 80.5197 151.026 80.521H185.211V59.8918H151.026Z" fill="#377E7F"/>
<path opacity="0.5" d="M242.692 80.5198H151.027C150.431 80.5191 149.86 80.2819 149.439 79.8604C149.017 79.4388 148.78 78.8673 148.78 78.2711V62.1392C148.78 61.5431 149.017 60.9715 149.439 60.5499C149.86 60.1284 150.431 59.8913 151.027 59.8906H242.692C243.288 59.8913 243.859 60.1284 244.28 60.5499C244.702 60.9715 244.939 61.5431 244.939 62.1392V78.2711C244.939 78.8673 244.702 79.4388 244.28 79.8604C243.859 80.2819 243.288 80.5191 242.692 80.5198Z" fill="#377E7F"/>
<path d="M163.423 74.8853C165.437 74.8853 167.07 73.2516 167.07 71.2363C167.07 69.2211 165.437 67.5874 163.423 67.5874C161.409 67.5874 159.777 69.2211 159.777 71.2363C159.777 73.2516 161.409 74.8853 163.423 74.8853Z" fill="white"/>
<path d="M239.852 70.1763H173.957C173.669 70.1763 173.393 70.0619 173.189 69.8581C172.986 69.6543 172.871 69.3779 172.871 69.0898C172.871 68.8016 172.986 68.5252 173.189 68.3214C173.393 68.1176 173.669 68.0032 173.957 68.0032H239.852C240.14 68.0032 240.416 68.1176 240.62 68.3214C240.823 68.5252 240.938 68.8016 240.938 69.0898C240.938 69.3779 240.823 69.6543 240.62 69.8581C240.416 70.0619 240.14 70.1763 239.852 70.1763Z" fill="white"/>
<path d="M214.824 74.4699H173.957C173.669 74.4699 173.393 74.3554 173.189 74.1516C172.986 73.9478 172.871 73.6715 172.871 73.3833C172.871 73.0951 172.986 72.8187 173.189 72.6149C173.393 72.4111 173.669 72.2966 173.957 72.2966H214.824C215.112 72.2966 215.389 72.4111 215.592 72.6149C215.796 72.8187 215.91 73.0951 215.91 73.3833C215.91 73.6715 215.796 73.9478 215.592 74.1516C215.389 74.3554 215.112 74.4699 214.824 74.4699Z" fill="white"/>
<path d="M42.1829 152.08L45.339 152.08L46.8404 139.9H42.1824L42.1829 152.08Z" fill="#FFB6B6"/>
<path d="M41.3779 151.049L42.2663 151.049L45.7345 149.638L47.5933 151.049H47.5936C48.6441 151.049 49.6515 151.467 50.3943 152.21C51.1371 152.953 51.5544 153.961 51.5545 155.012V155.141L41.3781 155.141L41.3779 151.049Z" fill="#2F2E41"/>
<path d="M13.666 147.975L16.4908 149.383L23.2649 139.152L19.0961 137.073L13.666 147.975Z" fill="#FFB6B6"/>
<path d="M13.4052 146.693L14.2003 147.089L17.9335 147.374L18.968 149.467L18.9683 149.467C19.9084 149.936 20.6239 150.759 20.9573 151.756C21.2907 152.753 21.2148 153.841 20.7463 154.782L20.6889 154.897L11.581 150.355L13.4052 146.693Z" fill="#2F2E41"/>
<path d="M43.5813 96.7607L23.5143 97.2845L23.8633 107.062C23.8633 107.062 23.5143 109.681 24.2123 110.379C24.9102 111.078 25.2592 111.078 24.9102 112.3C24.5613 113.522 23.659 125.2 23.659 125.2C23.659 125.2 15.4229 139.771 15.7719 140.12C16.1209 140.47 16.4699 140.12 16.1209 140.993C15.7719 141.866 15.4229 141.517 15.7719 141.866C16.0811 142.2 16.3723 142.55 16.6444 142.914H22.3323C22.3323 142.914 22.6504 141.168 22.6504 140.993C22.6504 140.819 22.9994 139.771 22.9994 139.597C22.9994 139.422 32.9371 128.887 32.9371 128.887L35.031 111.427L40.0914 128.538C40.0914 128.538 40.0914 143.553 40.4404 143.902C40.7894 144.252 40.7894 144.077 40.6149 144.775C40.4404 145.474 39.7424 145.299 40.2659 145.823C40.7894 146.347 40.9639 145.474 40.7894 146.347L40.6149 147.22L47.3189 147.295C47.3189 147.295 48.0168 145.823 47.6678 145.299C47.3189 144.775 47.3398 144.918 47.7656 144.061C48.1913 143.204 48.3658 143.029 48.1913 142.855C48.0168 142.68 48.0168 141.751 48.0168 141.751C48.0168 141.751 45.5007 107.411 45.5007 106.887C45.4876 106.618 45.5372 106.349 45.6457 106.102V105.391L44.9773 102.872L43.5813 96.7607Z" fill="#2F2E41"/>
<path d="M242.3 66.4446C240.777 66.4446 239.288 65.9927 238.022 65.1461C236.756 64.2995 235.769 63.0962 235.186 61.6883C234.603 60.2805 234.451 58.7313 234.748 57.2367C235.045 55.7422 235.778 54.3693 236.855 53.2918C237.932 52.2143 239.304 51.4805 240.798 51.1832C242.291 50.8859 243.84 51.0385 245.247 51.6216C246.654 52.2048 247.856 53.1923 248.702 54.4594C249.548 55.7264 250 57.216 250 58.7399C250 60.7833 249.189 62.743 247.745 64.1879C246.301 65.6328 244.342 66.4446 242.3 66.4446Z" fill="#377E7F"/>
<path d="M245.338 57.98H243.059V55.7C243.059 55.4984 242.979 55.3051 242.837 55.1625C242.694 55.02 242.501 54.9399 242.3 54.9399C242.098 54.9399 241.905 55.02 241.763 55.1625C241.62 55.3051 241.54 55.4984 241.54 55.7V57.98H239.262C239.162 57.9798 239.063 57.9994 238.97 58.0375C238.878 58.0756 238.794 58.1315 238.723 58.2021C238.653 58.2727 238.597 58.3566 238.558 58.4489C238.52 58.5412 238.5 58.6401 238.5 58.7401C238.5 58.84 238.52 58.9389 238.558 59.0312C238.597 59.1235 238.653 59.2074 238.723 59.278C238.794 59.3486 238.878 59.4045 238.97 59.4426C239.063 59.4807 239.162 59.5003 239.262 59.5001H241.54V61.7802C241.54 61.9817 241.62 62.175 241.763 62.3176C241.905 62.4601 242.098 62.5402 242.3 62.5402C242.501 62.5402 242.694 62.4601 242.837 62.3176C242.979 62.175 243.059 61.9817 243.059 61.7802V59.5001H245.338C245.54 59.5001 245.733 59.42 245.875 59.2775C246.018 59.1349 246.098 58.9416 246.098 58.7401C246.098 58.5385 246.018 58.3452 245.875 58.2026C245.733 58.0601 245.54 57.98 245.338 57.98Z" fill="white"/>
<path d="M124.784 80.624H95.5272C94.9311 80.6247 94.3596 80.8619 93.9381 81.2837C93.5166 81.7054 93.2795 82.2773 93.2789 82.8737V93.9856H127.029V82.8737C127.029 82.2777 126.792 81.7062 126.371 81.2845C125.95 80.8628 125.38 80.6253 124.784 80.624Z" fill="#377E7F"/>
<path opacity="0.5" d="M124.783 111.846H95.5262C94.9304 111.846 94.3591 111.609 93.9378 111.187C93.5165 110.766 93.2795 110.194 93.2788 109.598V82.8726C93.2795 82.2764 93.5165 81.7049 93.9378 81.2834C94.3591 80.8618 94.9304 80.6247 95.5262 80.624H124.783C125.379 80.6247 125.95 80.8618 126.371 81.2834C126.793 81.7049 127.03 82.2764 127.03 82.8726V109.598C127.03 110.194 126.793 110.766 126.371 111.187C125.95 111.609 125.379 111.846 124.783 111.846Z" fill="#377E7F"/>
<path d="M104.146 93.2915C106.16 93.2915 107.793 91.6578 107.793 89.6426C107.793 87.6273 106.16 85.9937 104.146 85.9937C102.132 85.9937 100.499 87.6273 100.499 89.6426C100.499 91.6578 102.132 93.2915 104.146 93.2915Z" fill="white"/>
<path d="M118.723 98.8377H101.585C101.297 98.8377 101.021 98.7232 100.817 98.5195C100.614 98.3157 100.499 98.0393 100.499 97.7511C100.499 97.4629 100.614 97.1866 100.817 96.9828C101.021 96.779 101.297 96.6646 101.585 96.6646H118.723C119.011 96.6646 119.288 96.779 119.491 96.9828C119.695 97.1866 119.809 97.4629 119.809 97.7511C119.809 98.0393 119.695 98.3157 119.491 98.5195C119.288 98.7232 119.011 98.8377 118.723 98.8377Z" fill="white"/>
<path d="M109.855 103.132H101.585C101.297 103.132 101.021 103.017 100.817 102.813C100.614 102.609 100.499 102.333 100.499 102.045C100.499 101.757 100.614 101.48 100.817 101.277C101.021 101.073 101.297 100.958 101.585 100.958H109.855C110.143 100.958 110.42 101.073 110.623 101.277C110.827 101.48 110.941 101.757 110.941 102.045C110.941 102.333 110.827 102.609 110.623 102.813C110.42 103.017 110.143 103.132 109.855 103.132Z" fill="white"/>
<path d="M94.9163 119.69C93.3933 119.69 91.9046 119.238 90.6383 118.392C89.372 117.545 88.385 116.342 87.8022 114.934C87.2194 113.526 87.0669 111.977 87.3641 110.482C87.6612 108.988 88.3945 107.615 89.4714 106.537C90.5483 105.46 91.9203 104.726 93.414 104.429C94.9077 104.132 96.456 104.284 97.863 104.867C99.27 105.45 100.473 106.438 101.319 107.705C102.165 108.972 102.616 110.462 102.616 111.985C102.616 114.029 101.805 115.989 100.361 117.434C98.917 118.878 96.9585 119.69 94.9163 119.69Z" fill="#377E7F"/>
<path d="M97.9545 111.225H95.6758V108.945C95.6758 108.744 95.5958 108.55 95.4534 108.408C95.3109 108.265 95.1177 108.185 94.9163 108.185C94.7148 108.185 94.5216 108.265 94.3792 108.408C94.2367 108.55 94.1567 108.744 94.1567 108.945V111.225H91.8779C91.7781 111.225 91.6791 111.245 91.5868 111.283C91.4945 111.321 91.4106 111.377 91.3399 111.448C91.2692 111.518 91.2131 111.602 91.1749 111.694C91.1366 111.787 91.1169 111.885 91.1169 111.985C91.1169 112.085 91.1366 112.184 91.1749 112.277C91.2131 112.369 91.2692 112.453 91.3399 112.523C91.4106 112.594 91.4945 112.65 91.5868 112.688C91.6791 112.726 91.7781 112.746 91.8779 112.745H94.1567V115.026C94.1567 115.227 94.2367 115.42 94.3792 115.563C94.5216 115.705 94.7148 115.786 94.9163 115.786C95.1177 115.786 95.3109 115.705 95.4534 115.563C95.5958 115.42 95.6758 115.227 95.6758 115.026V112.745H97.9545C98.156 112.745 98.3492 112.665 98.4916 112.523C98.6341 112.38 98.7141 112.187 98.7141 111.985C98.7141 111.784 98.6341 111.591 98.4916 111.448C98.3492 111.305 98.156 111.225 97.9545 111.225Z" fill="white"/>
<path d="M91.3519 63.6343H62.0953C61.4994 63.6336 60.9282 63.3965 60.5069 62.9749C60.0856 62.5534 59.8486 61.9818 59.8479 61.3856V34.6605C59.8486 34.0643 60.0856 33.4927 60.5069 33.0712C60.9282 32.6496 61.4994 32.4125 62.0953 32.4119H91.3519C91.9477 32.4125 92.519 32.6496 92.9403 33.0712C93.3616 33.4927 93.5986 34.0643 93.5993 34.6605V61.3856C93.5986 61.9818 93.3616 62.5534 92.9403 62.9749C92.519 63.3965 91.9477 63.6336 91.3519 63.6343Z" fill="#377E7F"/>
<path d="M70.7152 47.3096C72.7293 47.3096 74.362 45.6759 74.362 43.6607C74.362 41.6454 72.7293 40.0117 70.7152 40.0117C68.7011 40.0117 67.0684 41.6454 67.0684 43.6607C67.0684 45.6759 68.7011 47.3096 70.7152 47.3096Z" fill="#377E7F"/>
<path d="M85.2927 51.7408H68.1544C67.8664 51.7408 67.5902 51.6263 67.3865 51.4225C67.1829 51.2188 67.0685 50.9424 67.0685 50.6542C67.0685 50.366 67.1829 50.0897 67.3865 49.8859C67.5902 49.6821 67.8664 49.5676 68.1544 49.5676H85.2927C85.5807 49.5676 85.857 49.6821 86.0606 49.8859C86.2643 50.0897 86.3787 50.366 86.3787 50.6542C86.3787 50.9424 86.2643 51.2188 86.0606 51.4225C85.857 51.6263 85.5807 51.7408 85.2927 51.7408Z" fill="#377E7F"/>
<path d="M76.4245 56.0344H68.1544C67.8664 56.0344 67.5902 55.9199 67.3865 55.7161C67.1828 55.5123 67.0684 55.2359 67.0684 54.9477C67.0684 54.6595 67.1828 54.3831 67.3865 54.1793C67.5902 53.9756 67.8664 53.8611 68.1544 53.8611H76.4245C76.7126 53.8611 76.9888 53.9756 77.1924 54.1793C77.3961 54.3831 77.5105 54.6595 77.5105 54.9477C77.5105 55.2359 77.3961 55.5123 77.1924 55.7161C76.9888 55.9199 76.7126 56.0344 76.4245 56.0344Z" fill="#377E7F"/>
<path opacity="0.5" d="M91.3519 63.6343H62.0953C61.4994 63.6336 60.9282 63.3965 60.5069 62.9749C60.0856 62.5534 59.8486 61.9818 59.8479 61.3856V34.6605C59.8486 34.0643 60.0856 33.4927 60.5069 33.0712C60.9282 32.6496 61.4994 32.4125 62.0953 32.4119H91.3519C91.9477 32.4125 92.519 32.6496 92.9403 33.0712C93.3616 33.4927 93.5986 34.0643 93.5993 34.6605V61.3856C93.5986 61.9818 93.3616 62.5534 92.9403 62.9749C92.519 63.3965 91.9477 63.6336 91.3519 63.6343Z" fill="#377E7F"/>
<path d="M70.7152 47.3096C72.7293 47.3096 74.362 45.6759 74.362 43.6607C74.362 41.6454 72.7293 40.0117 70.7152 40.0117C68.7011 40.0117 67.0684 41.6454 67.0684 43.6607C67.0684 45.6759 68.7011 47.3096 70.7152 47.3096Z" fill="white"/>
<path d="M85.2927 51.7408H68.1544C67.8664 51.7408 67.5902 51.6263 67.3865 51.4225C67.1829 51.2188 67.0685 50.9424 67.0685 50.6542C67.0685 50.366 67.1829 50.0897 67.3865 49.8859C67.5902 49.6821 67.8664 49.5676 68.1544 49.5676H85.2927C85.5807 49.5676 85.857 49.6821 86.0606 49.8859C86.2643 50.0897 86.3787 50.366 86.3787 50.6542C86.3787 50.9424 86.2643 51.2188 86.0606 51.4225C85.857 51.6263 85.5807 51.7408 85.2927 51.7408Z" fill="white"/>
<path d="M76.4245 56.0344H68.1544C67.8664 56.0344 67.5902 55.9199 67.3865 55.7161C67.1828 55.5123 67.0684 55.2359 67.0684 54.9477C67.0684 54.6595 67.1828 54.3831 67.3865 54.1793C67.5902 53.9756 67.8664 53.8611 68.1544 53.8611H76.4245C76.7126 53.8611 76.9888 53.9756 77.1924 54.1793C77.3961 54.3831 77.5105 54.6595 77.5105 54.9477C77.5105 55.2359 77.3961 55.5123 77.1924 55.7161C76.9888 55.9199 76.7126 56.0344 76.4245 56.0344Z" fill="white"/>
<path d="M78.7541 154.937C78.7543 154.981 78.7458 155.024 78.7292 155.064C78.7125 155.105 78.6881 155.141 78.6573 155.172C78.6265 155.203 78.5899 155.227 78.5496 155.244C78.5093 155.261 78.4661 155.269 78.4226 155.269H0.331544C0.243613 155.269 0.159283 155.234 0.0971064 155.172C0.0349299 155.11 0 155.025 0 154.937C0 154.849 0.0349299 154.765 0.0971064 154.703C0.159283 154.64 0.243613 154.605 0.331544 154.605H78.4226C78.4661 154.605 78.5093 154.614 78.5496 154.63C78.5899 154.647 78.6265 154.672 78.6573 154.702C78.6881 154.733 78.7125 154.77 78.7292 154.81C78.7458 154.85 78.7543 154.894 78.7541 154.937Z" fill="#CCCCCC"/>
<path d="M61.4483 47.8305C61.6888 48.5034 61.6554 49.2439 61.3553 49.8924C61.0552 50.5409 60.5124 51.0454 59.8439 51.2971C59.696 51.3523 59.5435 51.3944 59.3882 51.4227L57.843 60.8897L54.2183 57.5409L56.2414 49.0644C56.1665 48.3501 56.3756 47.635 56.8234 47.0737C57.2712 46.5124 57.9218 46.1501 58.6345 46.0649C59.2342 45.9962 59.8393 46.1335 60.3507 46.4543C60.862 46.7751 61.2491 47.2604 61.4483 47.8305L61.4483 47.8305Z" fill="#FFB6B6"/>
<path d="M34.6979 69.2816C34.6979 69.2816 37.5112 65.5624 47.7198 65.6643L53.5142 63.5578L54.8384 51.4116L59.4733 52.5158L58.8112 67.5329L48.8793 73.2747L35.8575 75.9247L34.6979 69.2816Z" fill="#F9E052"/>
<path d="M33.2032 61.5334C36.5495 61.5334 39.2622 58.8191 39.2622 55.4708C39.2622 52.1225 36.5495 49.4082 33.2032 49.4082C29.8569 49.4082 27.1442 52.1225 27.1442 55.4708C27.1442 58.8191 29.8569 61.5334 33.2032 61.5334Z" fill="#FFB6B6"/>
<path d="M22.9482 101.439C22.9374 101.439 22.9267 101.437 22.9164 101.434C22.8045 101.403 22.7161 101.379 23.1198 97.8859L23.5555 95.1251L23.1302 92.6873L22.4147 91.9714L23.5646 90.821L24.5296 88.0784L22.8599 85.6028L20.9443 75.4788C20.615 73.7319 20.8709 71.9251 21.6724 70.3385C22.4738 68.7519 23.7761 67.4742 25.3772 66.7035L27.5942 66.0554L28.4009 64.5751C28.6275 64.1595 28.961 63.812 29.367 63.5688C29.7729 63.3255 30.2365 63.1954 30.7097 63.1919L34.7697 63.1615C35.1793 63.1584 35.5841 63.2503 35.9523 63.43C36.3205 63.6097 36.642 63.8722 36.8918 64.1971L38.3082 66.0395L44.182 68.036L43.2081 89.0335C43.3628 89.163 43.489 89.3233 43.5786 89.5041C43.6682 89.685 43.7193 89.8825 43.7287 90.0841C43.7381 90.2857 43.7056 90.4871 43.6332 90.6755C43.5608 90.864 43.4502 91.0353 43.3082 91.1787C43.2471 91.2403 43.1986 91.2906 43.1687 91.3237C43.0696 91.4644 43.2554 92.5153 43.4849 93.4076L43.7791 94.774C43.6847 94.8415 43.6053 94.9279 43.5459 95.0276C43.4865 95.1274 43.4485 95.2384 43.4341 95.3536C43.4198 95.4688 43.4295 95.5858 43.4626 95.697C43.4957 95.8083 43.5515 95.9115 43.6265 96.0002L44.0016 96.4435C44.0758 96.9995 43.9266 97.5622 43.5867 98.0082C43.2468 98.4543 42.744 98.7472 42.1886 98.8229C36.8205 99.5539 22.9762 101.439 22.9482 101.439Z" fill="#F9E052"/>
<path d="M31.6532 61.2366C31.6273 61.1796 31.6015 61.1224 31.5757 61.0649C31.5857 61.0653 31.5955 61.0667 31.6054 61.0669L31.6532 61.2366Z" fill="#2F2E41"/>
<path d="M26.9757 49.6839C27.2634 49.4123 27.6373 49.2506 28.0321 49.2269C28.4239 49.2395 28.8212 49.5936 28.7401 49.9773C29.4597 48.7024 30.6052 47.7218 31.9754 47.2077C33.3457 46.6936 34.8531 46.6788 36.2331 47.166C37.2069 47.5097 38.1619 48.1975 38.3856 49.2062C38.4074 49.471 38.4863 49.7279 38.6169 49.9593C38.7301 50.083 38.877 50.1708 39.0395 50.212C39.202 50.2532 39.373 50.2459 39.5314 50.1911L39.541 50.1883C39.5952 50.1697 39.6538 50.1679 39.709 50.183C39.7643 50.1981 39.8137 50.2295 39.851 50.2731C39.8883 50.3166 39.9116 50.3704 39.918 50.4273C39.9244 50.4843 39.9136 50.5419 39.8869 50.5926L39.6114 51.1068C39.9587 51.1842 40.3196 51.1766 40.6633 51.0844C40.7204 51.0694 40.7808 51.0725 40.8361 51.0932C40.8913 51.1138 40.9389 51.1511 40.9722 51.1999C41.0054 51.2487 41.0228 51.3066 41.0219 51.3657C41.021 51.4247 41.0018 51.482 40.9671 51.5298C40.5092 52.1566 39.9114 52.6679 39.2212 53.0228C38.5311 53.3778 37.7677 53.5666 36.9917 53.5744C35.8908 53.5677 34.7786 53.188 33.7072 53.4413C33.2927 53.5393 32.9054 53.7289 32.5737 53.9962C32.242 54.2635 31.9743 54.6018 31.7903 54.9861C31.6062 55.3704 31.5105 55.7911 31.5102 56.2172C31.5098 56.6434 31.6048 57.0642 31.7882 57.4488C31.4591 57.0886 30.8228 57.1739 30.4861 57.5271C30.3311 57.7162 30.2165 57.9351 30.1494 58.1702C30.0823 58.4054 30.0642 58.6519 30.0962 58.8944C30.186 59.637 30.4064 60.3579 30.7471 61.0238C29.4452 60.9837 28.1871 60.5448 27.1425 59.7664C26.0979 58.9879 25.3172 57.9074 24.906 56.6709C24.4947 55.4343 24.4727 54.1013 24.8428 52.8518C25.2129 51.6023 25.9574 50.4965 26.9757 49.6839L26.9757 49.6839Z" fill="#2F2E41"/>
<path d="M25.3086 110.134C24.7294 109.716 24.3375 109.087 24.2175 108.382C24.0975 107.678 24.259 106.954 24.6672 106.368C24.7577 106.239 24.8596 106.117 24.9714 106.006L20.8828 97.3298L25.7659 98.0336L28.8999 106.165C29.3662 106.711 29.5989 107.419 29.5478 108.135C29.4967 108.851 29.1659 109.519 28.6269 109.993C28.1719 110.39 27.5955 110.62 26.9925 110.645C26.3895 110.671 25.7957 110.491 25.3087 110.134H25.3086Z" fill="#FFB6B6"/>
<path d="M24.0704 105.396L17.5644 90.7656L17.4992 79.21L19.5501 72.9682C19.8283 72.1213 20.2734 71.3389 20.859 70.6671C21.4446 69.9953 22.1588 69.4478 22.9595 69.0569C23.7602 68.6661 24.6311 68.4398 25.5207 68.3914C26.4103 68.3431 27.3005 68.4736 28.1388 68.7754L28.184 68.7917L28.2029 68.8359C28.2787 69.0129 29.9988 73.2701 24.8967 82.028L23.8698 88.0206L27.4728 101.757L24.0704 105.396Z" fill="#F9E052"/>
</g>
<defs>
<clipPath id="clip0_313_830">
<rect width="250" height="155.269" fill="white"/>
</clipPath>
</defs>
</svg>
