<svg width="50" height="50" viewBox="0 0 50 50" fill="none" xmlns="http://www.w3.org/2000/svg">
<rect width="50" height="50" fill="white"/>
<path d="M5.7768 12.7899L24.2405 4.54522C25.0177 4.1982 25.9057 4.19761 26.6833 4.5436L32.1538 6.97768L37.5385 9.37351L45.1894 12.7777C46.2875 13.2663 46.988 14.3631 46.9695 15.5648L46.6424 36.8186C46.6257 37.9043 46.0237 38.8962 45.0683 39.4121L26.8768 49.2358C25.9928 49.7131 24.9286 49.7163 24.0417 49.2443L5.59043 39.4232C4.61162 38.9022 4 37.8838 4 36.775V15.5292C4 14.3456 4.69599 13.2725 5.7768 12.7899Z" fill="#7FC6AC"/>
<path d="M17 15.7557L32.5482 7L37 9L21.0532 18.355V28L17 25.9479V15.7557Z" fill="#015F3D"/>
</svg>
