<svg width="495" height="300" viewBox="0 0 495 300" fill="none" xmlns="http://www.w3.org/2000/svg">
<g clip-path="url(#clip0_313_993)">
<path d="M328.413 102.599L160.699 0L135.177 41.7095C142.07 46.1861 146.944 53.1757 148.76 61.1907C150.577 69.2058 149.193 77.6132 144.903 84.6234C140.614 91.6337 133.757 96.6932 125.793 98.725C117.829 100.757 109.387 99.6005 102.262 95.5021L93.9803 109.037H164.675V194.631L336.917 300L372.966 241.085H328.413V102.599Z" fill="#FFF4B4"/>
<path d="M245.915 229.473C262.69 229.473 276.288 227.371 276.288 224.778C276.288 222.185 262.69 220.083 245.915 220.083C229.14 220.083 215.542 222.185 215.542 224.778C215.542 227.371 229.14 229.473 245.915 229.473Z" fill="#377E7F"/>
<path d="M246.898 183.201L277.501 148.196C279.74 145.908 281.506 143.201 282.698 140.23C283.891 137.259 284.486 134.083 284.451 130.882C284.416 127.68 283.75 124.518 282.493 121.574C281.235 118.63 279.41 115.963 277.121 113.724C274.832 111.485 272.125 109.72 269.154 108.527C266.182 107.335 263.005 106.739 259.804 106.774C256.603 106.81 253.439 107.475 250.495 108.733C247.551 109.99 244.883 111.815 242.644 114.104C240.356 111.865 237.648 110.099 234.677 108.907C231.706 107.715 228.529 107.119 225.328 107.154C222.126 107.189 218.963 107.855 216.019 109.112C213.075 110.37 210.407 112.195 208.168 114.484C205.929 116.772 204.163 119.479 202.971 122.45C201.778 125.421 201.182 128.597 201.218 131.798C201.253 135 201.918 138.162 203.176 141.106C204.434 144.05 206.259 146.717 208.548 148.956L242.595 183.201" fill="#377E7F"/>
<path d="M165.631 108.559H0.478043V258.293H165.631V108.559Z" stroke="#3F3D56" stroke-width="2" stroke-miterlimit="10"/>
<path d="M494.522 90.8738H329.369V240.607H494.522V90.8738Z" stroke="#3F3D56" stroke-width="2" stroke-miterlimit="10"/>
<path d="M119.261 89.5165C130.614 89.5165 139.817 80.3145 139.817 68.9632C139.817 57.6119 130.614 48.4099 119.261 48.4099C107.909 48.4099 98.7055 57.6119 98.7055 68.9632C98.7055 80.3145 107.909 89.5165 119.261 89.5165Z" fill="#377E7F"/>
<path d="M168.021 180.811C168.021 180.811 193.835 171.73 204.83 184.157C215.825 196.585 246.42 176.988 246.42 176.988" stroke="#3F3D56" stroke-width="2" stroke-miterlimit="10"/>
<path d="M377.88 184.157C377.88 184.157 373.1 172.686 340.593 183.201C308.087 193.717 262.195 193.239 250.722 176.987L281.325 141.983C283.564 139.694 285.33 136.987 286.522 134.016C287.715 131.045 288.311 127.869 288.275 124.668C288.24 121.467 287.575 118.304 286.317 115.36C285.059 112.416 283.234 109.749 280.945 107.51C278.656 105.272 275.949 103.506 272.978 102.313C270.007 101.121 266.83 100.525 263.628 100.561C260.427 100.596 257.264 101.261 254.319 102.519C251.375 103.776 248.708 105.601 246.469 107.89C241.846 103.369 235.617 100.869 229.152 100.94C222.686 101.012 216.514 103.648 211.992 108.27C207.471 112.891 204.971 119.12 205.042 125.585C205.113 132.049 207.75 138.221 212.372 142.742L246.42 176.987" stroke="#3F3D56" stroke-width="2" stroke-miterlimit="10"/>
<path d="M249.792 225.571C266.567 225.571 280.166 223.469 280.166 220.877C280.166 218.284 266.567 216.182 249.792 216.182C233.018 216.182 219.419 218.284 219.419 220.877C219.419 223.469 233.018 225.571 249.792 225.571Z" stroke="#3F3D56" stroke-width="2" stroke-miterlimit="10"/>
<path d="M246.561 257.597C259.767 257.597 270.472 255.942 270.472 253.901C270.472 251.86 259.767 250.206 246.561 250.206C233.356 250.206 222.65 251.86 222.65 253.901C222.65 255.942 233.356 257.597 246.561 257.597Z" fill="#377E7F"/>
<path d="M246.561 284.534C255.484 284.534 262.717 283.416 262.717 282.037C262.717 280.658 255.484 279.54 246.561 279.54C237.639 279.54 230.405 280.658 230.405 282.037C230.405 283.416 237.639 284.534 246.561 284.534Z" fill="#377E7F"/>
<path d="M249.792 254.305C262.998 254.305 273.703 252.65 273.703 250.609C273.703 248.568 262.998 246.913 249.792 246.913C236.587 246.913 225.882 248.568 225.882 250.609C225.882 252.65 236.587 254.305 249.792 254.305Z" stroke="#3F3D56" stroke-width="2" stroke-miterlimit="10"/>
<path d="M249.792 282.056C258.715 282.056 265.948 280.938 265.948 279.559C265.948 278.18 258.715 277.062 249.792 277.062C240.87 277.062 233.637 278.18 233.637 279.559C233.637 280.938 240.87 282.056 249.792 282.056Z" stroke="#3F3D56" stroke-width="2" stroke-miterlimit="10"/>
<path d="M96.85 186.765C105.629 186.765 112.746 179.649 112.746 170.871C112.746 162.093 105.629 154.977 96.85 154.977C88.0709 154.977 80.9541 162.093 80.9541 170.871C80.9541 179.649 88.0709 186.765 96.85 186.765Z" fill="#2F2E41"/>
<path d="M89.2619 178.901C89.2619 178.901 84.0843 190.364 82.605 190.734C81.1257 191.104 94.8093 197.76 94.8093 197.76C94.8093 197.76 97.3981 183.708 98.5075 182.969C99.617 182.229 89.2619 178.901 89.2619 178.901Z" fill="#9F616A"/>
<path d="M97.0282 187.406C102.951 187.406 107.753 182.605 107.753 176.682C107.753 170.76 102.951 165.959 97.0282 165.959C91.105 165.959 86.3033 170.76 86.3033 176.682C86.3033 182.605 91.105 187.406 97.0282 187.406Z" fill="#9F616A"/>
<path d="M106.01 258.292H60.405C61.93 252.753 63.5601 247.261 64.4779 244.211C64.9416 242.681 65.2237 241.764 65.2237 241.764C65.2237 241.764 99.6186 249.158 100.355 249.531C100.769 249.973 101.136 250.457 101.449 250.974C102.525 252.552 104.241 255.262 106.01 258.292Z" fill="#2F2E41"/>
<path d="M49.3207 153.756L38.2259 136.746C38.2259 136.746 40.9696 118.902 37.2713 122.23C33.573 125.558 32.4027 138.998 32.4027 138.998L45.2526 158.563L49.3207 153.756Z" fill="#9F616A"/>
<path d="M149.913 184.818L159.899 184.078C159.899 184.078 171.733 171.505 172.473 175.573C173.212 179.641 162.857 188.515 162.857 188.515L149.174 189.995L149.913 184.818Z" fill="#9F616A"/>
<path d="M77.0576 188.515V184.818C77.0576 184.818 67.4422 178.531 67.812 177.422C68.1818 176.313 67.0723 175.573 67.0723 175.573C67.0723 175.573 65.9628 174.094 65.9628 173.724C65.9628 173.354 64.4835 172.985 64.4835 172.985L55.2379 162.261C55.2379 162.261 50.0603 151.907 48.9509 152.277C47.8414 152.647 41.9242 154.865 42.6638 156.344C43.4035 157.824 64.1137 189.625 64.1137 189.625C64.1137 189.625 65.2232 196.651 67.0723 196.651C68.9215 196.651 77.0576 188.515 77.0576 188.515Z" fill="#F9E052"/>
<path d="M101.836 192.953C101.836 192.953 109.972 192.583 110.342 192.953C110.712 193.323 115.889 192.953 115.889 192.953C115.889 192.953 129.943 189.625 131.052 188.516C132.162 187.406 150.653 182.599 151.393 184.818C152.132 187.036 153.981 191.474 152.132 192.213C150.283 192.953 100.357 205.526 100.357 205.526L101.836 192.953Z" fill="#F9E052"/>
<path d="M91.2894 160.72C94.9221 160.72 97.867 157.775 97.867 154.143C97.867 150.511 94.9221 147.566 91.2894 147.566C87.6567 147.566 84.7118 150.511 84.7118 154.143C84.7118 157.775 87.6567 160.72 91.2894 160.72Z" fill="#2F2E41"/>
<path d="M82.5192 150.581C82.5193 148.955 83.1215 147.387 84.2096 146.179C85.2977 144.971 86.7947 144.209 88.4117 144.039C88.184 144.016 87.9554 144.004 87.7265 144.004C85.982 144.004 84.309 144.697 83.0754 145.93C81.8419 147.164 81.1489 148.836 81.1489 150.581C81.1489 152.325 81.8419 153.998 83.0754 155.231C84.309 156.465 85.982 157.158 87.7265 157.158C87.9554 157.158 88.184 157.146 88.4117 157.122C86.7947 156.953 85.2977 156.19 84.2096 154.982C83.1215 153.774 82.5193 152.206 82.5192 150.581Z" fill="#2F2E41"/>
<path d="M98.6991 174.078C104.754 174.078 109.662 171.134 109.662 167.501C109.662 163.869 104.754 160.925 98.6991 160.925C92.6446 160.925 87.7365 163.869 87.7365 167.501C87.7365 171.134 92.6446 174.078 98.6991 174.078Z" fill="#2F2E41"/>
<path d="M86.1184 184.633C86.1184 184.633 82.7899 187.221 82.0503 187.591C81.3106 187.961 76.8727 184.263 76.1331 184.263C75.3934 184.263 65.7779 195.356 65.7779 195.356C65.7779 195.356 67.5649 197.414 65.7779 207.929C65.1078 211.872 63.7782 228.731 63.7782 230.95C63.7782 233.169 56.5323 238.621 63.1892 243.428C69.846 248.235 101.651 253.412 102.021 250.454C102.391 247.496 98.3226 239.73 100.172 236.033C102.021 232.335 102.021 218.653 102.021 218.653L104.24 204.231L106.089 192.768C106.089 192.768 97.3981 190.364 96.6584 190.364C95.9188 190.364 92.5903 195.541 86.1184 184.633Z" fill="#F9E052"/>
<path d="M419.378 149.315L411.81 149.608L412.188 159.337L419.755 159.044L419.378 149.315Z" fill="#377E7F"/>
<path d="M385.24 183.387C385.24 183.387 374.76 178.381 374.928 182.704C375.095 187.028 385.492 189.873 385.492 189.873L385.24 183.387Z" fill="#FFB9B9"/>
<path d="M433.974 240.607H384.262C385.3 235.741 387.274 229.871 388.818 225.641C390.042 222.295 390.988 219.972 390.988 219.972C396.634 213.606 404.827 213.443 412.514 215.016C413.432 215.202 414.345 215.412 415.244 215.647C415.349 215.671 415.454 215.699 415.559 215.728C417.357 216.192 419.102 216.727 420.751 217.262C423.595 218.19 426.162 219.126 428.237 219.762C429.28 220.107 430.352 220.358 431.44 220.513C431.678 220.538 431.918 220.547 432.157 220.541C432.979 220.508 433.548 221.392 433.916 222.936C434.748 226.42 434.557 233.284 433.974 240.607Z" fill="#2F2E41"/>
<path d="M424.167 140.198C424.167 140.198 429.929 149.176 432.175 151.255C434.421 153.333 428.102 157.908 428.102 157.908L416.793 159.429C416.793 159.429 416.935 149.139 416.353 148.079C415.77 147.019 424.167 140.198 424.167 140.198Z" fill="#FFB9B9"/>
<path d="M414.337 151.946C414.337 151.946 416.667 156.186 418.829 156.102C420.991 156.019 432.175 151.255 432.653 149.612C433.131 147.97 436.357 161.377 436.357 161.377L408.991 209.531L402.316 204.918L405.55 176.645L408.207 161.386L414.337 151.946Z" fill="#222328"/>
<path d="M433.662 195.042C432.532 197.237 431.956 199.675 431.983 202.144C431.988 202.252 431.992 202.36 432.001 202.468C432.26 207.471 434.103 213.256 434.765 217.463C435.244 220.482 435.108 222.684 433.342 223.202C429.059 224.451 433.966 225.343 417.397 230.857C400.829 236.372 397.938 231.612 397.896 230.531C397.854 229.45 400.242 221.238 399.681 220.718C399.119 220.199 391.824 227.519 389.62 226.521C387.416 225.524 389.368 220.036 389.368 220.036C389.368 220.036 394.334 208.476 394.229 205.773C394.124 203.071 401.75 190.325 401.75 190.325L406.937 156.563C406.937 156.563 408.932 152.156 411.613 151.51C413.303 151.159 415.063 151.479 416.52 152.403L412.033 162.32L407.298 179.825L408.09 186.29C408.09 186.29 413.596 174.71 417.212 170.239C420.828 165.768 428.538 155.185 428.538 155.185C428.538 155.185 430.338 149.112 428.979 147.297C427.62 145.477 434.647 145.204 437.644 152.666C439.232 156.621 441.81 162.519 443.425 168.01C444.864 172.875 445.544 177.422 444.118 180.022C441.939 183.993 436.457 189.212 433.662 195.042Z" fill="#F9E052"/>
<path opacity="0.1" d="M444.118 180.022C441.939 183.993 436.457 189.212 433.662 195.042C432.932 192.413 432.042 189.692 432.042 189.692C432.042 189.692 428.626 171.42 438.729 166.698C440.403 166.536 442.077 167.004 443.425 168.01C444.864 172.875 445.544 177.422 444.118 180.022Z" fill="black"/>
<path d="M404.013 178.87L395.448 181.367L383.556 181.829L382.332 192.161L401.876 193.568C401.876 193.568 406.757 179.846 404.013 178.87Z" fill="#F9E052"/>
<path d="M417.979 213.61C417.979 213.61 406.521 215.511 409.136 218.959C411.751 222.406 421.902 218.782 421.902 218.782L417.979 213.61Z" fill="#FFB9B9"/>
<path opacity="0.1" d="M432.001 202.468C432.26 207.471 434.103 213.256 434.765 217.463C431.114 220.918 427.643 223.964 426.335 224.015C423.633 224.12 419.287 223.747 417.686 224.351C416.086 224.954 415.147 214.706 415.147 214.706C415.147 214.706 416.102 211.421 420.364 209.632C423.24 208.421 428.754 205.138 432.001 202.468Z" fill="black"/>
<path d="M438.603 163.455C438.603 163.455 447.751 162.018 447.257 177.193C446.763 192.369 448.221 202.056 444.542 204.905C440.863 207.754 428.912 220.667 426.21 220.772C423.507 220.877 419.161 220.504 417.561 221.108C415.96 221.711 415.021 211.463 415.021 211.463C415.021 211.463 415.976 208.178 420.238 206.389C424.5 204.6 434.539 198.256 434.456 196.094C434.372 193.932 431.916 186.449 431.916 186.449C431.916 186.449 428.501 168.177 438.603 163.455Z" fill="#F9E052"/>
<path d="M416.101 153.493C422.674 153.493 428.002 148.165 428.002 141.593C428.002 135.021 422.674 129.693 416.101 129.693C409.528 129.693 404.2 135.021 404.2 141.593C404.2 148.165 409.528 153.493 416.101 153.493Z" fill="#FFB9B9"/>
<path d="M408.088 124.537C407.801 124.785 407.457 124.957 407.087 125.039C406.901 125.072 406.71 125.031 406.555 124.923C406.4 124.816 406.294 124.652 406.26 124.466C406.046 125.06 405.648 125.57 405.124 125.922C404.568 126.212 403.709 125.969 403.628 125.347C403.547 125.819 403.338 126.26 403.025 126.622C402.861 126.795 402.636 126.897 402.398 126.905C402.159 126.913 401.928 126.826 401.753 126.665C401.996 127.995 401.846 129.363 401.923 130.713C401.999 132.063 402.359 133.495 403.379 134.383C404.867 135.678 407.105 135.358 409.062 135.113C409.358 135.051 409.665 135.067 409.953 135.161C410.685 135.474 410.652 136.494 410.662 137.29C410.722 138.688 411.275 140.019 412.223 141.047C413.172 142.075 414.454 142.734 415.842 142.907C416.619 143.027 417.411 142.833 418.046 142.369C418.601 141.898 418.885 141.13 419.522 140.777C420.558 140.201 421.814 141.04 422.571 141.952C423.329 142.863 424.075 143.984 425.248 144.151C426.8 144.371 427.982 142.79 428.561 141.335C429.361 139.294 429.745 137.114 429.688 134.923C429.632 132.732 429.138 130.575 428.235 128.578C424.995 121.516 413.928 120.399 408.088 124.537Z" fill="#2F2E41"/>
</g>
<defs>
<clipPath id="clip0_313_993">
<rect width="495" height="300" fill="white"/>
</clipPath>
</defs>
</svg>
