<svg width="250" height="167" viewBox="0 0 250 167" fill="none" xmlns="http://www.w3.org/2000/svg">
<g clip-path="url(#clip0_313_951)">
<path d="M234.328 157.906L231.52 159.732L223.141 149.77L227.286 147.076L234.328 157.906Z" fill="#A0616A"/>
<path d="M236.332 160.771L227.697 166.386L227.626 166.277C227.046 165.385 226.844 164.3 227.065 163.26C227.285 162.22 227.91 161.31 228.801 160.73L228.801 160.73L229.6 158.508L233.321 157.791L234.075 157.301L236.332 160.771Z" fill="#2F2E41"/>
<path d="M186.206 162.691L182.857 162.69L181.264 149.771L186.207 149.772L186.206 162.691Z" fill="#A0616A"/>
<path d="M186.324 166.185L176.024 166.184V166.054C176.024 164.991 176.447 163.971 177.199 163.219C177.95 162.467 178.97 162.045 180.033 162.045H180.033L181.915 160.618L185.425 162.045H186.324L186.324 166.185Z" fill="#2F2E41"/>
<path d="M220.875 83.6631L190.84 84.3235L187.863 88.0449C187.863 88.0449 188.12 86.7328 187.891 88.1739C187.662 89.615 181.868 118.348 182.963 119.311C184.058 120.275 180.886 126.928 180.653 127.334C180.42 127.74 177.909 147.767 180.653 149.414L181.684 156.404H186.481C186.481 156.404 191.286 150.844 190.319 149.836C189.352 148.828 192.117 145.476 192.223 143.679C192.329 141.881 193.338 133.729 192.556 132.422C191.774 131.115 190.716 126.209 192.701 124.308C194.686 122.406 203.942 99.0365 203.942 99.0365C203.942 99.0365 206.632 126.433 206.626 128.585C206.618 131.382 208.455 129.998 208.455 132.454C208.455 132.95 214.437 145.703 218.457 149.689L226.771 156.085L230.608 153.207V149.05C230.608 149.05 227.052 141.337 225.812 140.096C224.571 138.856 219.991 135.059 219.991 133.322C219.991 131.585 217.835 130.98 219.285 128.678C220.735 126.375 220.239 125.383 219.743 124.391C219.247 123.398 220.188 82.7378 220.188 82.7378L220.875 83.6631Z" fill="#2F2E41"/>
<path d="M208.351 23.3723C213.364 23.3723 217.427 19.3089 217.427 14.2964C217.427 9.2839 213.364 5.22046 208.351 5.22046C203.339 5.22046 199.275 9.2839 199.275 14.2964C199.275 19.3089 203.339 23.3723 208.351 23.3723Z" fill="#A0616A"/>
<path d="M215.602 87.132L218.157 79.4414L222.754 80.2879L219.763 88.3227C219.945 88.7935 219.992 89.3056 219.899 89.8016C219.805 90.2975 219.576 90.7576 219.235 91.1302C218.895 91.5027 218.457 91.7728 217.971 91.9103C217.486 92.0477 216.972 92.0469 216.486 91.9081C216.001 91.7693 215.564 91.4979 215.225 91.1244C214.886 90.7509 214.657 90.2901 214.565 89.7939C214.473 89.2976 214.522 88.7856 214.705 88.3154C214.888 87.8451 215.199 87.4353 215.602 87.1319L215.602 87.132Z" fill="#A0616A"/>
<path d="M162.617 72.2694L168.877 67.1228L172.316 70.2885L165.504 75.4943C165.407 75.9896 165.174 76.448 164.831 76.8179C164.488 77.1879 164.048 77.4548 163.561 77.5886C163.075 77.7224 162.561 77.7178 162.076 77.5754C161.592 77.433 161.157 77.1583 160.821 76.7823C160.484 76.4063 160.259 75.9438 160.171 75.4469C160.083 74.95 160.135 74.4384 160.322 73.9695C160.508 73.5006 160.822 73.0931 161.228 72.7928C161.633 72.4924 162.115 72.3112 162.617 72.2694H162.617Z" fill="#A0616A"/>
<path d="M197.484 12.7088C198.463 13.0126 199.406 13.1916 200.043 12.389C200.679 11.5864 200.513 10.6687 201.459 10.2817C202.251 10.0163 203.113 10.0562 203.877 10.3937C204.014 10.4448 204.148 10.5024 204.279 10.5599C204.353 10.496 204.427 10.4352 204.507 10.3777C205.108 9.94985 205.851 9.76902 206.582 9.87244C206.048 10.1305 205.608 10.55 205.325 11.0716C205.587 11.2027 205.853 11.3338 206.121 11.4457C207.25 11.9074 208.471 12.0999 209.687 12.0077C210.903 11.9156 212.081 11.5414 213.127 10.9149C212.079 13.6777 212.894 14.6626 214.432 17.1855L214.493 17.3326C214.339 16.6707 216.351 15.9064 216.351 16.8658C216.262 17.8486 216.047 18.8159 215.711 19.7437C217.684 16.773 218.848 13.2971 218.084 9.96197C217.921 9.26167 217.847 8.51023 217.403 7.94103C216.958 7.37506 216.14 7.04249 215.494 7.36226C215.414 6.27777 215.041 5.23525 214.416 4.34552C213.791 3.4558 212.936 2.75213 211.943 2.30933C210.95 1.86652 209.855 1.70113 208.775 1.83074C207.696 1.96035 206.671 2.3801 205.811 3.04539C205.012 3.66255 204.382 4.47157 203.669 5.19105C202.956 5.91054 202.111 6.56604 201.114 6.74511C200.481 6.85703 199.768 6.78988 199.262 7.1896C198.677 7.65327 198.671 8.46867 198.674 9.25211C199.246 9.23577 199.811 9.39051 200.295 9.69657C199.702 9.71147 199.13 9.91289 198.658 10.2722C198.649 10.2778 198.64 10.2842 198.632 10.2914C198.46 11.6088 198.53 11.887 197.484 12.7088Z" fill="#2F2E41"/>
<path d="M229.417 42.4578C229.205 41.4455 228.787 40.4876 228.188 39.6444C227.59 38.8011 226.823 38.0905 225.937 37.5571C225.871 37.2184 225.754 37.0017 225.573 36.9376C222.994 36.0205 215.792 31.7838 215.792 31.7838L215.188 26.9391L202.157 26.313L198.822 31.7838C198.822 31.7838 190.184 32.6521 190.344 35.8142C188.252 38.4235 178.94 50.0825 173.359 57.7928C170.691 61.4778 168.875 64.2619 169.108 64.7229C169.893 66.2754 168.79 65.2279 167.555 65.5084C166.321 65.789 166.919 66.5185 166.947 67.594C166.975 68.6695 162.729 70.9326 162.729 70.9326C165.32 71.8586 168.565 75.6651 168.565 75.6651C168.565 75.6651 171.707 72.3544 172.278 72.0084C172.848 71.6624 173.166 71.1574 174.971 70.5308C176.776 69.9043 176.019 69.4273 176.15 68.0993C176.281 66.7713 176.72 67.7533 179.255 66.5282C181.789 65.3032 179.732 65.7707 180.433 64.0966C181.135 62.4226 180.91 63.3391 183.192 61.955C184.564 61.1231 185.926 59.9014 187.822 57.7928C189.08 56.3933 190.573 54.6038 192.461 52.2757C192.474 52.2599 192.486 52.2435 192.498 52.2276C192.625 54.1148 192.723 56.0028 192.781 57.7928C192.946 62.8788 192.789 67.1673 192.048 68.3484C191.009 70.006 189.25 75.5534 187.821 80.424C187.544 81.3685 187.495 82.3653 187.678 83.3324C187.861 84.2995 188.271 85.2094 188.874 85.9874C189.477 86.7654 190.256 87.3893 191.146 87.808C192.037 88.2267 193.015 88.4281 193.998 88.3959C202.868 88.1034 215.847 87.4268 218.377 85.9423C219.753 86.139 221.112 86.4378 222.444 86.8363C222.444 86.8363 223.339 82.3604 223.638 81.7636C223.936 81.1668 223.936 80.57 225.13 79.078C226.323 77.586 225.428 77.586 224.831 76.3924C224.234 75.1989 225.13 75.7957 226.622 73.4085C228.114 71.0213 226.622 72.5133 226.323 70.7229C226.025 68.9325 226.323 69.8277 227.517 67.4406C228.506 65.4626 229.085 62.8673 229.764 57.7928C229.904 56.743 230.049 55.5898 230.202 54.3112C230.709 50.0874 230.068 45.5765 229.417 42.4578Z" fill="#377E7F"/>
<path d="M27.549 147.527L29.6767 149.775L39.5563 142.456L36.4161 139.137L27.549 147.527Z" fill="#C78F8F"/>
<path d="M31.0356 148.77L28.6269 146.508L28.0353 145.953L21.903 150.856L23.4982 152.542L25.3759 151.338L24.5133 153.615L28.7427 158.085C28.9453 158.3 29.2112 158.444 29.5015 158.496C29.7918 158.549 30.0913 158.507 30.3563 158.378C30.6213 158.248 30.8379 158.037 30.9746 157.776C31.1112 157.514 31.1607 157.216 31.1158 156.924L30.2031 151.019L31.8115 149.498L31.0356 148.77Z" fill="#2F2E41"/>
<path d="M74.31 65.6491L73.6354 73.0136C73.6354 73.0136 72.4579 78.562 73.2732 78.1123C74.0885 77.6626 72.6267 79.6867 73.0117 81.4419C73.3967 83.1971 69.7231 96.2863 71.3869 94.9304C73.0508 93.5744 70.4254 102.942 68.7649 107.563C68.2565 108.992 67.7341 110.438 67.2083 111.873C67.1046 112.164 67.0007 112.451 66.8937 112.741C66.2121 114.609 65.5306 116.449 64.877 118.186C64.7836 118.428 64.6935 118.67 64.6037 118.909C64.6001 118.916 64.6002 118.923 64.5968 118.923C62.4451 124.585 60.6014 129.041 59.8647 129.777C59.4807 130.161 53.3893 134.561 47.2494 138.968C40.8051 143.593 34.3088 148.228 34.3088 148.228L28.2415 141.864C28.2415 141.864 28.3868 141.822 28.6601 141.739C29.1651 141.594 30.0991 141.32 31.3237 140.957C36.4292 139.453 29.9434 137.111 34.5787 135.437C35.8862 134.966 36.7579 134.599 36.955 134.406C38.1069 133.282 39.6532 130.601 40.383 131.725C41.1129 132.849 44.4233 124.495 45.378 123.669C45.8899 123.222 47.5607 121.137 48.9928 119.303C50.2241 117.726 51.2826 116.332 51.2826 116.332C51.2826 116.332 51.3034 115.585 51.3345 114.395C51.3795 112.634 51.4453 109.898 51.5145 107.158C51.511 107.155 51.511 107.155 51.5145 107.155C51.5387 106.124 51.5628 105.093 51.5872 104.114C51.6044 103.357 51.6216 102.627 51.639 101.952C51.6839 99.9323 51.715 98.4034 51.715 98.0228C51.715 96.7741 51.715 97.7462 52.7009 96.992C52.8481 96.8764 52.9879 96.7516 53.1194 96.6184C53.3302 96.4287 53.5246 96.2216 53.7006 95.9992C53.7733 95.8437 53.3201 96.0546 52.732 95.9371C52.4135 95.8731 52.119 95.7222 51.881 95.5011C50.6427 94.3874 51.978 90.9629 51.978 90.9629C49.1622 85.3314 49.3664 80.7135 50.6842 77.154C51.6696 74.5998 53.2337 72.3088 55.2537 70.4608C56.0225 69.7282 56.86 69.0713 57.7548 68.4993L57.8412 68.0325L58.7925 62.8818C59.2984 62.6039 59.8244 62.3646 60.3663 62.1659C62.0559 61.5596 63.8688 61.379 65.6448 61.6401C67.4099 61.8955 69.1188 62.4487 70.6987 63.2762C71.9901 63.925 73.2019 64.7213 74.31 65.6491Z" fill="#2F2E41"/>
<path d="M47.7426 159.001L50.825 159.287L53.4224 147.269L48.8726 146.846L47.7426 159.001Z" fill="#C78F8F"/>
<path d="M56.62 163.711L52.0401 159.875L52.2477 157.668L51.1824 157.633L47.8824 157.526H47.8789L47.0695 157.499L45.6962 165.226L48.0103 165.441L48.6226 163.296L49.477 165.579L50.7015 165.693L55.6031 166.15C55.6446 166.153 55.6896 166.157 55.7311 166.157C55.926 166.157 56.1186 166.116 56.2964 166.036C56.4741 165.956 56.6328 165.839 56.7619 165.693C56.9626 165.474 57.0853 165.194 57.1112 164.898C57.1315 164.675 57.0974 164.45 57.0118 164.244C56.9262 164.037 56.7918 163.854 56.62 163.711Z" fill="#2F2E41"/>
<path d="M64.8769 118.186C63.7042 124.568 58.7404 139.532 55.738 148.291C54.3716 152.293 53.417 155.001 53.417 155.001L51.8604 154.51H51.8568L49.2245 153.68L48.2663 153.375H48.2628L47.1006 153.005C47.1006 153.005 47.2355 145.859 47.2494 138.968C47.2597 136.08 47.2458 133.233 47.1906 130.978C47.1283 128.518 47.021 126.758 46.8447 126.408C46.1147 124.976 47.3358 124.824 48.6261 124.464C49.9197 124.101 48.9097 123.554 48.408 122.392C48.0692 121.617 48.7367 120.583 49.2106 119.995C49.3414 119.83 49.4811 119.671 49.6292 119.521C49.6292 119.521 49.4008 119.442 48.9928 119.303C50.2241 117.726 51.2826 116.332 51.2826 116.332C51.2826 116.332 51.3033 115.585 51.3344 114.395C51.3795 112.634 51.4452 109.898 51.5145 107.158C51.5109 107.155 51.5109 107.155 51.5145 107.155C51.5386 106.124 51.5628 105.093 51.5871 104.114C53.5656 105.633 55.4889 107.12 57.2323 108.497C57.2344 108.499 57.2362 108.501 57.2374 108.503C57.2386 108.506 57.2392 108.508 57.2392 108.511C61.4281 111.821 64.5726 114.478 65.0153 115.322C65.2159 115.702 65.1467 116.719 64.8769 118.186Z" fill="#2F2E41"/>
<path d="M249.654 166.384H0.34591C0.254169 166.384 0.166185 166.348 0.101315 166.283C0.0364438 166.218 0 166.13 0 166.039C0 165.947 0.0364438 165.859 0.101315 165.794C0.166185 165.729 0.254169 165.693 0.34591 165.693H249.654C249.746 165.693 249.834 165.729 249.899 165.794C249.964 165.859 250 165.947 250 166.039C250 166.13 249.964 166.218 249.899 166.283C249.834 166.348 249.746 166.384 249.654 166.384Z" fill="#E6E6E6"/>
<path d="M57.0458 53.2004L57.694 59.213L57.3129 67.0974L74.7761 65.0226L76.4168 53.2004L74.3261 53.2212L57.0458 53.2004Z" fill="#FFB6B6"/>
<path d="M71.9002 33.7801L65.328 28.5915L61.8779 28.3909L56.7587 31.6704L55.5052 38.0653L52.5406 45.2666L56.8889 64.7005C56.8889 64.7005 57.2967 66.095 56.228 66.2625C55.1593 66.43 55.2874 68.4856 55.2874 68.4856C55.2874 68.4856 55.5051 70.2671 54.4673 70.424C53.4296 70.5809 50.6625 70.5809 53.0838 73.6941C55.5052 76.8073 74.6568 65.0327 74.6568 65.0327L77.4384 50.4373C77.4384 50.4373 82.8329 43.1918 77.0235 39.0421L71.9002 33.7801Z" fill="#377E7F"/>
<path d="M43.2091 77.9041C42.9195 77.5427 42.7127 77.1223 42.6032 76.6723C42.4936 76.2223 42.4841 75.7539 42.5753 75.2998C42.6664 74.8458 42.856 74.4172 43.1306 74.0444C43.4053 73.6716 43.7584 73.3635 44.165 73.1419L52.4319 45.3982L57.6012 48.0007L48.5983 74.5927C48.9253 75.3005 48.9814 76.1036 48.7558 76.8499C48.5303 77.5963 48.0388 78.2339 47.3745 78.6421C46.7102 79.0503 45.9193 79.2006 45.1516 79.0646C44.3839 78.9286 43.6927 78.5156 43.2091 77.9041L43.2091 77.9041Z" fill="#C78F8F"/>
<path d="M57.9459 31.4137C57.9459 31.4137 56.4682 30.6283 55.4575 34.0267C54.6483 36.7473 48.0825 52.9525 47.9987 56.8924C47.4584 57.0069 46.9715 57.2979 46.6147 57.7196C46.258 58.1413 46.0517 58.6697 46.0284 59.2215L54.1465 60.3094C55.565 59.1129 55.9372 57.497 55.3883 57.0173L57.1509 52.2033L64.5045 36.8865L59.0241 31.9623L57.9459 31.4137Z" fill="#377E7F"/>
<path d="M101.323 68.7847C101.428 68.3337 101.433 67.8651 101.337 67.4121C101.241 66.959 101.047 66.5324 100.769 66.1625C100.49 65.7925 100.134 65.4881 99.7251 65.2707C99.3162 65.0533 98.8646 64.9282 98.4021 64.9042L79.438 43.2456L75.4152 48.0457L95.0322 68.1295C95.0434 68.9091 95.3402 69.6575 95.8663 70.2329C96.3924 70.8083 97.1113 71.1708 97.8868 71.2515C98.6623 71.3323 99.4405 71.1258 100.074 70.6712C100.707 70.2165 101.152 69.5453 101.323 68.7848L101.323 68.7847Z" fill="#C78F8F"/>
<path d="M67.9315 33.2389C67.9315 33.2389 68.9242 31.8918 71.3051 34.5188C73.2113 36.622 86.1392 48.3942 87.9185 51.9104C88.4553 51.78 89.0201 51.8319 89.5241 52.0578C90.0282 52.2838 90.4427 52.671 90.7024 53.1585L83.8531 57.65C82.0566 57.1847 81.0222 55.8885 81.3097 55.2187L77.6386 51.6403L64.3846 41.0098L67.1966 34.1999L67.9315 33.2389Z" fill="#377E7F"/>
<path d="M159.25 78.5623C158.703 78.3732 158.251 77.9779 157.991 77.4606C157.73 76.9433 157.682 76.3448 157.856 75.7925C157.893 75.6807 157.939 75.5723 157.994 75.4682L152.757 69.7472L154.725 66.0681L161.052 74.6809C161.466 74.9426 161.782 75.334 161.95 75.7939C162.118 76.2538 162.129 76.7564 161.981 77.2233C161.895 77.4882 161.757 77.7334 161.576 77.945C161.394 78.1565 161.173 78.3303 160.925 78.4564C160.676 78.5825 160.405 78.6584 160.128 78.6798C159.85 78.7012 159.57 78.6677 159.306 78.5811C159.287 78.5751 159.269 78.5688 159.25 78.5623Z" fill="#FFB6B6"/>
<path d="M125.671 35.1079C125.498 35.9157 125.48 36.749 125.617 37.5637C125.653 37.7942 125.703 38.0224 125.767 38.247C126.001 39.0863 126.224 39.8597 126.439 40.5575C126.565 40.9909 126.695 41.3993 126.82 41.7784C127.536 43.9914 128.096 45.2443 128.493 45.508C128.685 45.6369 128.879 45.7551 129.066 45.8704C130.026 46.4579 130.722 46.8837 130.256 47.9679C130.189 48.1228 130.108 48.2718 130.016 48.4135C129.862 48.6517 129.692 48.879 129.506 49.0938C129.401 49.2152 129.303 49.3435 129.214 49.4778C129.099 49.6493 129.048 49.7938 129.111 49.9246C129.189 50.0856 129.408 50.1656 129.876 50.1882C129.95 50.1915 130.036 50.1961 130.127 50.1958C130.157 50.1978 130.187 50.1965 130.222 50.1968C130.282 50.1976 130.35 50.1981 130.419 50.1955C130.998 50.1845 131.745 50.4891 132.544 50.9543C134.903 52.3281 137.682 55.0932 137.716 55.1276L155.07 72.8723L155.408 72.6458L156.211 72.1062L156.489 71.9208L156.806 71.7076L158.186 70.7839L158.884 70.3179L154.407 62.0995L153.92 61.2062L153.502 60.4354L144.957 44.742L141.563 39.3468L140.805 38.1448L137.577 33.0187C137.122 32.2934 136.528 31.665 135.829 31.1693C135.13 30.6736 134.341 30.3204 133.506 30.1298C132.67 29.9392 131.806 29.915 130.961 30.0585C130.117 30.202 129.309 30.5105 128.584 30.9663C128.535 30.997 128.486 31.0284 128.438 31.0604C127.026 31.9997 126.034 33.451 125.671 35.1079Z" fill="#F9E052"/>
<path d="M126.823 159.11L123.644 159.083L122.236 146.534L126.929 146.574L126.823 159.11Z" fill="#FFB6B6"/>
<path d="M127.667 157.644L126.836 157.589L123.45 157.357L122.36 157.284L122.34 159.557L117.262 163.002C117.011 163.172 116.821 163.418 116.72 163.704C116.619 163.99 116.612 164.301 116.7 164.591C116.788 164.881 116.967 165.136 117.21 165.317C117.452 165.498 117.747 165.598 118.05 165.6L124.37 165.652L125.477 163.41L125.882 165.666L128.268 165.686L127.667 157.644Z" fill="#2F2E41"/>
<path d="M160.297 156.787L157.258 157.722L152.129 146.183L156.614 144.804L160.297 156.787Z" fill="#FFB6B6"/>
<path d="M160.659 155.136L159.85 155.333L156.554 156.132L155.492 156.392L156.159 158.568L152.357 163.383C152.17 163.621 152.063 163.912 152.053 164.215C152.042 164.518 152.129 164.816 152.3 165.067C152.471 165.317 152.718 165.506 153.004 165.606C153.29 165.706 153.6 165.713 153.89 165.624L159.933 163.766L160.31 161.293L161.379 163.32L163.659 162.618L160.659 155.136Z" fill="#2F2E41"/>
<path d="M120.428 53.5894L114.361 71.2218L114.16 72.6327C112.632 74.0843 114.552 74.5625 113.832 74.9453C113.112 75.3281 112.628 76.4012 113.598 76.5929C114.569 76.7846 117.697 145.558 121.824 148.228C125.951 150.899 128.463 152.83 127.705 148.92C127.399 147.345 127.831 138.898 128.456 129.374C128.527 128.294 129.645 127.151 128.675 126.102C127.705 125.052 128.794 124.362 128.855 123.491C129.726 111.053 130.731 98.7734 130.731 98.7734C130.731 98.7734 137.163 120.862 138.833 119.152C140.503 117.442 139.842 121.652 140.353 122.91C140.779 123.962 138.959 126.027 141.634 126.058C144.308 126.09 150.589 147.561 151.227 147.537C152.489 147.488 156.038 147.624 158.145 147.191C159.185 146.976 154.566 130.721 150.709 116.684C150.401 115.564 148.727 115.538 149.804 113.377C150.881 111.216 145.523 97.2321 145.983 96.5853C147.203 94.8687 147.668 94.1225 146.465 94.0101C145.261 93.8977 144.906 94.5578 144.841 92.8926C144.776 91.2273 144.568 87.121 144.568 87.121C144.568 87.121 143.696 70.881 137.592 61.9085L137.072 56.5774L120.428 53.5894Z" fill="#2F2E41"/>
<path d="M135.586 19.9246L127.54 21.0702L127.055 26.8964L123.084 33.1073C123.084 33.1073 114.259 39.3181 120.414 49.1293C118.071 57.5809 115.743 65.6863 113.522 71.0902C111.793 81.8134 127.287 82.8412 145 79.0461C145 79.0461 144.756 74.461 143.148 72.2567C141.541 70.0524 142.416 69.5712 142.416 69.5712L141.293 65.4531C141.928 59.5005 139.782 58.9663 138.774 56.216L141.836 27.6803L135.586 19.9246Z" fill="#F9E052"/>
<path d="M96.9604 69.802C97.0456 69.2291 97.351 68.7121 97.8117 68.3611C98.2723 68.01 98.8517 67.8525 99.4266 67.9221C99.5433 67.938 99.6584 67.9637 99.7708 67.9986L104.432 61.7986L108.41 63.0566L101.107 70.8597C100.926 71.3146 100.599 71.6968 100.178 71.9465C99.7566 72.1963 99.2646 72.2996 98.7786 72.2403C98.2206 72.1669 97.7148 71.8748 97.3722 71.4283C97.0296 70.9818 96.8785 70.4176 96.9519 69.8596C96.9545 69.8404 96.9573 69.8211 96.9604 69.802Z" fill="#FFB6B6"/>
<path d="M138.359 31.2C138.244 31.0582 138.12 30.9199 137.989 30.7849C137.075 29.8433 135.898 29.1995 134.613 28.9378C133.327 28.6761 131.992 28.8087 130.783 29.3183C130.666 29.3666 130.548 29.422 130.434 29.4774C126.3 31.5078 124.069 32.8603 123.799 33.4934C123.706 33.7079 123.626 33.9189 123.547 34.1229C123.471 34.3235 123.398 34.5137 123.322 34.6867C123.004 35.427 122.637 35.8871 121.703 35.6795C121.393 35.6037 121.095 35.4887 120.814 35.3371C120.686 35.2748 120.569 35.2091 120.458 35.1468C120.057 34.9255 119.766 34.7664 119.569 34.9116C119.379 35.0534 119.372 35.4131 119.545 36.2468C119.602 36.5948 119.592 36.9504 119.517 37.2948C119.288 38.2997 118.93 39.2706 118.452 40.1832C117.734 41.6139 116.928 42.9979 116.037 44.3272L107.808 56.0605L107.251 56.8526L106.642 57.721L101.786 64.6461L102.073 64.94L103.276 66.1681L103.543 66.4413L103.785 66.6903L104.411 67.3303L104.999 67.9287L118.119 57.2401L119.583 56.0466L122.205 53.909L127.577 49.5333L137.743 40.1245C138.385 39.5353 138.901 38.8225 139.26 38.029C139.62 37.2355 139.816 36.3775 139.836 35.5065C139.836 35.4477 139.839 35.3923 139.839 35.3336C139.843 33.8252 139.319 32.363 138.359 31.2Z" fill="#F9E052"/>
<path d="M130.756 19.7126C135.721 19.7126 139.746 15.6873 139.746 10.7218C139.746 5.75629 135.721 1.73096 130.756 1.73096C125.79 1.73096 121.765 5.75629 121.765 10.7218C121.765 15.6873 125.79 19.7126 130.756 19.7126Z" fill="#FFB6B6"/>
<path d="M142.671 23.1888C143.877 24.9157 144.684 26.8896 145.033 28.9672C144.061 29.5893 142.929 29.9161 141.775 29.9079C141.735 29.7567 141.696 29.6055 141.651 29.4544C141.317 28.2837 140.819 27.1659 140.173 26.134C140.262 27.2468 140.111 28.3656 139.731 29.4152C139.121 29.1379 138.467 28.9693 137.799 28.9168C137.255 28.9168 136.718 29.0433 136.231 29.2864C135.666 27.4106 135.145 25.6861 134.776 24.4486C134.764 27.5506 130.218 30.2551 125.257 29.8631C125.078 29.7511 126.875 24.6502 126.701 24.5326C126.304 24.2695 125.918 23.9839 125.531 23.7039C127.155 21.1954 128.919 18.5078 128.616 18.1047C128.639 18.603 126.858 20.9995 124.921 23.2616C123.846 22.4721 129.955 9.62739 126.937 8.58593C126.886 9.03947 126.22 9.03947 125.408 8.9443C125.194 8.19598 124.875 7.48157 124.462 6.82216C124.516 7.48641 124.436 8.1547 124.227 8.78751C123.425 8.78773 122.625 8.87218 121.841 9.03947C121.66 8.75402 121.46 8.48092 121.242 8.22197C121.264 8.53756 121.254 8.85448 121.214 9.16825C120.413 9.34183 119.753 9.54338 119.658 9.70579C119.03 9.4762 120.1 8.44036 119.708 7.90282C118.711 6.55901 120.19 4.59928 121.125 3.21064C123.045 0.366232 127.261 -0.619243 130.246 1.08852C130.38 0.623772 131.069 0.315826 131.954 0.108654C132.328 0.0260095 132.712 -0.00973109 133.096 0.0022614C136.903 0.0694476 142.189 3.21063 142.396 7.01255C142.413 7.39329 142.441 7.80763 142.469 8.24996C142.738 12.5054 142.407 16.4305 145.313 19.5437C146.366 20.6691 146.377 25.9996 145.974 28.7433C144.927 27.6402 144.182 23.3512 142.671 23.1888Z" fill="#2F2E41"/>
<path d="M55.9041 14.4602C55.1144 16.4271 52.8864 20.2951 52.5846 22.4051L52.7204 22.2715C52.9795 22.7142 53.274 23.1351 53.6009 23.5304C54.1868 22.915 54.8944 22.4285 55.6787 22.1017C55.2504 22.9804 55.0024 23.936 54.9492 24.9121C55.79 27.5478 59.6771 26.374 61.9546 26.0863C64.2289 28.6878 67.2547 29.3666 71.2171 27.871C72.3252 27.9851 73.5658 28.0543 74.3423 27.3995C75.1189 26.7447 74.6564 25.532 75.0742 24.6148C78.0502 18.0816 75.3038 15.7245 72.9703 12.7621C72.4568 12.1102 72.4589 11.1373 71.8341 10.5153C70.9671 9.65318 69.6382 9.38799 68.4129 9.17556C68.7312 9.19233 69.0484 9.12688 69.3341 8.98552C69.6198 8.84415 69.8642 8.63163 70.044 8.36841C70.2016 8.10322 70.283 7.79964 70.2791 7.49114C70.2752 7.18264 70.1861 6.88122 70.0218 6.62011C69.5836 5.89363 68.673 5.47116 67.7945 5.36562C66.929 5.30685 66.0596 5.38159 65.2169 5.5872C64.6709 5.65901 64.1423 5.82798 63.6559 6.08612C63.4265 6.20855 63.2398 6.39811 63.121 6.62947C63.0021 6.86082 62.9568 7.12294 62.9909 7.38078C63.0641 7.61888 63.1901 7.8374 63.3595 8.02001C63.529 8.20262 63.7374 8.34462 63.9694 8.43543C64.3231 8.58496 64.6951 8.68679 65.0756 8.73825C63.3278 8.51144 61.5523 8.82221 59.9854 9.62921C58.0217 10.6766 56.6966 12.4944 55.9041 14.4602Z" fill="#2F2E41"/>
<path d="M66.5371 25.4872C70.4138 25.4872 73.5565 22.3445 73.5565 18.4677C73.5565 14.591 70.4138 11.4482 66.5371 11.4482C62.6603 11.4482 59.5176 14.591 59.5176 18.4677C59.5176 22.3445 62.6603 25.4872 66.5371 25.4872Z" fill="#C78F8F"/>
<path d="M59.7826 14.7042C60.1896 15.9342 61.3526 16.3306 62.4277 16.5778C62.7666 16.6568 63.1077 16.7304 63.4519 16.7959C63.5788 16.6372 63.7139 16.4816 63.855 16.3345C64.4409 15.7192 65.1485 15.2326 65.9328 14.9058C65.5936 15.5999 65.3682 16.3441 65.2652 17.1097C65.9151 17.204 66.5686 17.2811 67.2257 17.3409C67.7816 17.4592 68.3617 17.3594 68.8462 17.0622C69.3307 16.7649 69.6824 16.2929 69.8288 15.7437C70.4269 16.7219 71.1342 17.6431 72.1015 18.0317C72.6546 18.2304 73.2568 18.2467 73.8199 18.0783C74.383 17.9098 74.8773 17.5654 75.2304 17.0956C75.7881 16.3292 76.1748 15.4519 76.3643 14.5232C76.6388 13.434 76.7913 12.1792 76.2523 11.4881C75.8206 10.9287 75.0758 10.9187 74.3886 10.9683C72.8718 11.0846 71.3711 11.3567 69.91 11.7802L69.7863 12.0584C70.0374 10.5499 69.4928 9.09859 68.4851 8.58243C67.8054 8.23733 66.9876 8.2952 66.193 8.3652C65.1724 8.41073 64.164 8.60575 63.2 8.94402C62.0941 9.36942 61.1466 10.1261 60.4872 11.1106C59.782 12.1814 59.4315 13.6419 59.7826 14.7042Z" fill="#2F2E41"/>
<path d="M69.7895 8.14329C69.7202 8.12285 69.8997 8.14911 69.8374 8.15078C69.8684 8.14899 69.8991 8.14469 69.9293 8.13792C69.9344 8.13688 70.0043 8.11459 69.9579 8.13098C70.0622 8.09981 70.1552 8.03911 70.2257 7.95623C70.3906 7.75233 70.5199 7.52211 70.6083 7.27522C70.7199 6.94897 70.8992 6.65 71.1344 6.39793C71.2012 6.33086 71.2829 6.28049 71.3728 6.25089C71.4627 6.2213 71.5583 6.21331 71.6518 6.22759C71.7454 6.24187 71.8342 6.27802 71.9112 6.33308C71.9882 6.38815 72.0511 6.46059 72.0948 6.54452C72.1836 6.86833 72.1532 7.21324 72.0091 7.51653C71.9085 7.82513 71.7588 8.11548 71.5657 8.37638C71.2421 8.80303 70.8014 9.12635 70.2974 9.30692C69.7139 9.51883 69.0776 9.53701 68.483 9.35876C68.4044 9.32617 68.337 9.27144 68.289 9.20122C68.241 9.13101 68.2145 9.04836 68.2126 8.96333C68.2108 8.87829 68.2337 8.79456 68.2786 8.72232C68.3235 8.65008 68.3884 8.59246 68.4655 8.55647L69.4572 8.15053C69.5094 8.12734 69.5656 8.11466 69.6227 8.11322C69.6797 8.11178 69.7365 8.12161 69.7898 8.14214C69.8431 8.16266 69.8918 8.19349 69.9331 8.23286C69.9744 8.27222 70.0076 8.31935 70.0307 8.37155C70.0538 8.42375 70.0664 8.48 70.0678 8.53707C70.0692 8.59414 70.0592 8.65091 70.0386 8.70415C70.018 8.75739 69.9871 8.80605 69.9477 8.84733C69.9083 8.88862 69.8611 8.92173 69.8089 8.94476L69.807 8.94558L68.8153 9.35151L68.7978 8.54922C68.9215 8.58494 69.0489 8.60671 69.1774 8.61413C69.3146 8.62787 69.4531 8.62203 69.5886 8.59679C69.7184 8.57977 69.846 8.54866 69.9691 8.50401C70.0479 8.47523 70.1252 8.44245 70.2007 8.40583C70.2281 8.39251 70.2553 8.37868 70.2823 8.36435C70.2803 8.36539 70.3957 8.2982 70.3451 8.32976C70.4734 8.2478 70.5937 8.15405 70.7046 8.04975C70.7437 8.01276 70.7798 7.97264 70.8124 7.92977C70.8689 7.86037 70.9213 7.78772 70.9693 7.7122C71.067 7.55227 71.1443 7.3808 71.1996 7.20174C71.2248 7.12649 71.2461 7.04997 71.2634 6.9725C71.2682 6.92998 71.2759 6.88783 71.2864 6.84636C71.3232 6.74753 71.2794 6.90406 71.3218 6.94688L71.5046 7.08159C71.5389 7.09182 71.5751 7.09419 71.6104 7.08853C71.6458 7.08287 71.6795 7.06931 71.7089 7.04888C71.7305 7.01841 71.7258 7.02346 71.6947 7.06404C71.6585 7.11181 71.6253 7.16183 71.5954 7.21379C71.5299 7.33612 71.4707 7.4617 71.4179 7.59005C71.3088 7.863 71.1708 8.12353 71.0064 8.36719C70.8453 8.61364 70.6104 8.80294 70.3354 8.9081C70.0604 9.01326 69.7592 9.02892 69.4747 8.95284C69.368 8.91034 69.2822 8.82758 69.2359 8.72241C69.1896 8.61724 69.1866 8.49808 69.2274 8.39067C69.271 8.28481 69.3538 8.19994 69.4586 8.15383C69.5634 8.10772 69.682 8.10394 69.7895 8.14329Z" fill="#2F2E41"/>
</g>
<defs>
<clipPath id="clip0_313_951">
<rect width="250" height="166.386" fill="white"/>
</clipPath>
</defs>
</svg>
