<svg width="497" height="418" viewBox="0 0 497 418" fill="none" xmlns="http://www.w3.org/2000/svg">
<circle cx="178.5" cy="239.5" r="178.5" fill="#FFF4B4"/>
<path d="M206.233 276.653L212.669 282.03L236.966 259.252L227.468 251.316L206.233 276.653Z" fill="#FFB6B6"/>
<path d="M225.273 274.835L211.644 265.442L247.528 208.636C221.52 193.542 203.634 175.129 189.04 154.904C184.08 148.078 181.057 140.134 187.976 135.013C188.299 134.774 188.631 134.547 188.972 134.333C196.862 129.424 194.301 136.781 205.116 133.168L214.887 143.576L236 164.088L272.012 187.041C279.254 191.656 281.264 201.366 276.5 208.727C276.249 209.115 275.981 209.493 275.697 209.859L225.273 274.835Z" fill="#2F2E41"/>
<path d="M207.048 272.273L218.332 280.613L214.479 285.21L218.791 300.794C219.004 301.564 218.965 302.381 218.68 303.127C218.395 303.873 217.878 304.508 217.205 304.941C216.533 305.373 215.74 305.579 214.941 305.529C214.143 305.479 213.382 305.176 212.769 304.663L199.974 293.972L201.58 287.582L196.907 291.41L192.083 287.379L207.048 272.273Z" fill="#2F2E41"/>
<path d="M191.299 215.514L121.7 240.365L123.717 245.996L193.316 221.145L191.299 215.514Z" fill="#3F3D56"/>
<path d="M207.577 311.646L189.442 296.012C188.18 294.923 187.403 293.378 187.281 291.718C187.16 290.057 187.703 288.416 188.793 287.156C189.883 285.896 191.43 285.119 193.093 284.997C194.756 284.875 196.4 285.418 197.662 286.505L215.797 302.14C216.423 302.679 216.936 303.335 217.307 304.072C217.678 304.809 217.901 305.612 217.961 306.434C218.022 307.257 217.919 308.084 217.66 308.867C217.4 309.65 216.989 310.374 216.449 310.999C215.909 311.623 215.251 312.135 214.513 312.505C213.775 312.876 212.971 313.097 212.147 313.158C211.323 313.218 210.495 313.115 209.711 312.856C208.927 312.596 208.202 312.185 207.577 311.646V311.646Z" fill="#3F3D56"/>
<path d="M310.594 131.018C309.448 131.412 308.229 131.551 307.023 131.425C305.818 131.298 304.654 130.91 303.615 130.286C302.577 129.662 301.687 128.818 301.01 127.814C300.333 126.81 299.885 125.669 299.697 124.474L234.914 107.818L245.479 96.749L307.182 114.839C309.215 114.657 311.244 115.226 312.885 116.438C314.526 117.65 315.664 119.421 316.085 121.415C316.505 123.409 316.179 125.488 315.167 127.258C314.155 129.028 312.528 130.366 310.594 131.018H310.594Z" fill="#FFB6B6"/>
<path d="M212.178 53.6824C212.178 53.6824 201.645 54.9009 201.834 67.0211C202.023 79.1412 227.845 106.751 231.873 111.326C235.902 115.9 276.105 118.237 276.105 118.237L288.664 107.211L251.426 94.6844L212.178 53.6824Z" fill="#377E7F"/>
<path d="M190.812 110.57L188.435 121.699C188.435 121.699 184.11 130.961 184.95 133.436C185.781 135.897 223.215 149.276 223.215 149.276C223.215 149.276 226.422 132.587 231.774 121.331L190.812 110.57Z" fill="#FFB6B6"/>
<path d="M310.781 284.634L289.162 294.947C287.657 295.665 285.928 295.756 284.355 295.201C282.782 294.646 281.495 293.49 280.775 291.987C280.056 290.485 279.965 288.758 280.52 287.188C281.076 285.618 282.234 284.332 283.739 283.614L305.358 273.301C306.863 272.583 308.592 272.492 310.165 273.047C311.738 273.602 313.025 274.758 313.744 276.26C314.464 277.763 314.555 279.49 313.999 281.06C313.444 282.63 312.286 283.916 310.781 284.634Z" fill="#3F3D56"/>
<path d="M392.787 366.957C379.284 366.957 366.084 362.959 354.856 355.468C343.629 347.978 334.878 337.332 329.711 324.876C324.544 312.42 323.192 298.713 325.826 285.49C328.46 272.267 334.963 260.12 344.511 250.587C354.059 241.053 366.224 234.561 379.467 231.931C392.711 229.3 406.438 230.65 418.914 235.81C431.389 240.969 442.052 249.707 449.554 260.917C457.055 272.127 461.06 285.307 461.06 298.789C461.039 316.862 453.84 334.189 441.04 346.968C428.241 359.748 410.888 366.936 392.787 366.957ZM392.787 236.933C380.534 236.933 368.556 240.561 358.369 247.357C348.181 254.154 340.24 263.815 335.551 275.118C330.862 286.42 329.636 298.858 332.026 310.856C334.416 322.855 340.317 333.877 348.981 342.528C357.645 351.179 368.683 357.07 380.701 359.457C392.718 361.843 405.174 360.618 416.494 355.937C427.815 351.255 437.49 343.327 444.297 333.154C451.105 322.982 454.738 311.023 454.738 298.789C454.719 282.389 448.186 266.667 436.572 255.07C424.958 243.474 409.212 236.951 392.787 236.933Z" fill="#3F3D56"/>
<path d="M395.794 313.13C401.087 313.13 405.378 308.846 405.378 303.561C405.378 298.276 401.087 293.992 395.794 293.992C390.501 293.992 386.21 298.276 386.21 303.561C386.21 308.846 390.501 313.13 395.794 313.13Z" fill="#3F3D56"/>
<path d="M112.196 367.886C99.4008 367.886 86.8935 364.098 76.2551 357.001C65.6167 349.903 57.3251 339.815 52.4288 328.013C47.5325 316.21 46.2514 303.223 48.7475 290.693C51.2436 278.164 57.4049 266.654 66.4521 257.621C75.4993 248.588 87.0261 242.436 99.5749 239.944C112.124 237.451 125.131 238.731 136.952 243.619C148.772 248.508 158.876 256.787 165.984 267.409C173.092 278.031 176.887 290.519 176.887 303.294C176.867 320.419 170.045 336.837 157.918 348.946C145.79 361.055 129.347 367.867 112.196 367.886ZM112.196 244.683C100.586 244.683 89.2363 248.121 79.5829 254.561C69.9296 261.001 62.4057 270.155 57.9628 280.865C53.5198 291.575 52.3573 303.359 54.6223 314.729C56.8873 326.098 62.4781 336.542 70.6876 344.739C78.8971 352.936 89.3566 358.518 100.743 360.779C112.13 363.041 123.933 361.88 134.659 357.444C145.386 353.008 154.554 345.496 161.004 335.857C167.454 326.218 170.897 314.887 170.897 303.294C170.879 287.755 164.689 272.857 153.684 261.87C142.679 250.882 127.759 244.701 112.196 244.683Z" fill="#3F3D56"/>
<path d="M112.195 312.863C117.488 312.863 121.779 308.579 121.779 303.294C121.779 298.009 117.488 293.725 112.195 293.725C106.902 293.725 102.612 298.009 102.612 303.294C102.612 308.579 106.902 312.863 112.195 312.863Z" fill="#3F3D56"/>
<path d="M242.176 313.194C248.314 313.194 253.29 308.226 253.29 302.098C253.29 295.97 248.314 291.002 242.176 291.002C236.039 291.002 231.063 295.97 231.063 302.098C231.063 308.226 236.039 313.194 242.176 313.194Z" fill="#3F3D56"/>
<path d="M114.656 302.616L110.286 298.526L188.296 215.434L327.508 173.834L396.599 294.904L391.395 297.865L324.663 180.927L191.561 220.701L114.656 302.616Z" fill="#3F3D56"/>
<path d="M232.738 298.843H173.874V304.824H232.738V298.843Z" fill="#3F3D56"/>
<path d="M192.924 186.798H186.934V218.067H192.924V186.798Z" fill="#3F3D56"/>
<path d="M309.394 116.044L303.694 117.882L323.235 178.3L328.935 176.462L309.394 116.044Z" fill="#3F3D56"/>
<path d="M192.326 214.133L187.157 217.156L236.274 300.886L241.443 297.863L192.326 214.133Z" fill="#3F3D56"/>
<path d="M353.972 226.328L248.554 298.104L251.929 303.045L357.346 231.269L353.972 226.328Z" fill="#3F3D56"/>
<path d="M201.421 190.526H177.462C175.794 190.526 174.194 189.864 173.015 188.687C171.835 187.509 171.172 185.912 171.172 184.246C171.172 182.581 171.835 180.983 173.015 179.806C174.194 178.628 175.794 177.966 177.462 177.966H201.421C203.089 177.966 204.689 178.628 205.869 179.806C207.048 180.983 207.711 182.581 207.711 184.246C207.711 185.912 207.048 187.509 205.869 188.687C204.689 189.864 203.089 190.526 201.421 190.526Z" fill="#F9E052"/>
<path d="M318.225 122.944H294.265C292.597 122.944 290.997 122.282 289.818 121.104C288.638 119.927 287.976 118.329 287.976 116.664C287.976 114.998 288.638 113.401 289.818 112.223C290.997 111.046 292.597 110.384 294.265 110.384H318.225C319.893 110.384 321.492 111.046 322.672 112.223C323.851 113.401 324.514 114.998 324.514 116.664C324.514 118.329 323.851 119.927 322.672 121.104C321.492 122.282 319.893 122.944 318.225 122.944Z" fill="#2F2E41"/>
<path d="M229.334 44.7805C238.977 43.1436 245.465 34.0114 243.825 24.3831C242.186 14.7549 233.04 8.27662 223.397 9.91354C213.754 11.5505 207.265 20.6827 208.905 30.3109C210.544 39.9392 219.691 46.4174 229.334 44.7805Z" fill="#FFB6B6"/>
<path d="M335.99 196.522L315.988 154.364L316.259 154.236C317.645 153.58 319.147 153.204 320.679 153.127C322.211 153.051 323.743 153.277 325.187 153.792C326.632 154.307 327.961 155.101 329.098 156.129C330.235 157.157 331.158 158.398 331.815 159.783L341.816 180.862C342.473 182.246 342.85 183.746 342.926 185.275C343.003 186.805 342.776 188.335 342.261 189.777C341.745 191.219 340.949 192.546 339.92 193.681C338.891 194.817 337.647 195.738 336.261 196.394L335.99 196.522Z" fill="#3F3D56"/>
<path d="M274.847 203.932C272.328 203.925 269.88 203.108 267.864 201.6C265.849 200.092 264.374 197.976 263.66 195.565L263.575 195.278L308.387 182.076L308.471 182.363C308.906 183.832 309.046 185.372 308.884 186.895C308.722 188.418 308.261 189.894 307.528 191.239C306.794 192.584 305.803 193.772 304.61 194.735C303.416 195.697 302.045 196.416 300.574 196.849L278.168 203.45C277.09 203.769 275.971 203.931 274.847 203.932Z" fill="#3F3D56"/>
<path d="M280.606 276.587L288.76 274.578L284.991 241.507L272.956 244.472L280.606 276.587Z" fill="#FFB6B6"/>
<path d="M276.744 267.097L289.47 261.177L291.677 266.752L307.45 270.406C308.229 270.587 308.93 271.011 309.45 271.617C309.971 272.224 310.283 272.98 310.343 273.776C310.402 274.573 310.205 275.367 309.78 276.044C309.355 276.72 308.725 277.243 307.981 277.537L292.465 283.66L287.607 279.201L288.746 285.128L282.896 287.436L276.744 267.097Z" fill="#2F2E41"/>
<path d="M289.217 246.786L271.831 257.197L253.288 191.809C223.206 191.553 195.392 188.19 172.683 177.832C164.989 174.354 161.566 165.154 165.038 157.285C165.201 156.917 165.377 156.556 165.566 156.201C169.987 148.036 178.557 143.241 186.162 134.755L223.884 148.661L221.181 158.803L263.851 160.942C272.432 161.372 278.992 168.814 278.504 177.564C278.478 178.026 278.433 178.487 278.367 178.945L289.217 246.786Z" fill="#2F2E41"/>
<path d="M215.457 44.6099L227.049 50.6619C227.689 50.9171 228.234 51.3654 228.607 51.9444C228.98 52.5234 229.163 53.2042 229.131 53.8919L232.15 65.9561L242.775 88.4098C242.775 88.4098 245.543 100.36 240.26 111.643C234.977 122.926 223.285 151.053 223.285 151.053C215.659 169.291 153.063 155.207 169.375 139.69C171.316 137.843 182.225 122.248 186.217 121.351L196.011 65.3924C196.505 62.438 197.647 59.6292 199.356 57.1676C201.065 54.7059 203.298 52.6524 205.896 51.1542C207.465 50.2685 208.92 49.7441 209.917 50.0117C212.189 50.5404 213.263 45.4025 215.457 44.6099Z" fill="#377E7F"/>
<path d="M316.135 118.757C315.081 119.355 313.908 119.715 312.7 119.811C311.491 119.908 310.276 119.738 309.14 119.315C308.004 118.892 306.975 118.226 306.125 117.363C305.275 116.499 304.625 115.461 304.221 114.32L237.477 109.813L245.829 96.9968L309.808 103.478C311.773 102.926 313.872 103.114 315.708 104.005C317.544 104.896 318.988 106.428 319.768 108.311C320.548 110.195 320.609 112.298 319.939 114.223C319.27 116.148 317.916 117.761 316.135 118.757Z" fill="#FFB6B6"/>
<path d="M205.18 60.761C205.18 60.761 195.049 63.8884 197.462 75.7682C199.875 87.6479 230.332 110.059 235.132 113.818C239.933 117.577 279.884 112.511 279.884 112.511L290.203 99.3714L251.295 93.878L205.18 60.761Z" fill="#377E7F"/>
<path d="M245.257 21.4968C242.582 22.8122 239.554 20.9057 237.214 19.0098L238.051 19.717C233.992 23.7427 232.133 29.4938 231.255 35.1453C230.375 40.7909 230.33 46.5557 229.207 52.1638C228.083 57.7659 225.69 63.4076 221.146 66.8784C215.06 71.5273 206.598 71.3198 199.056 69.9913C198.956 69.972 198.862 69.9576 198.761 69.9382C200.727 64.0787 201.486 57.8833 200.995 51.7235C199.041 57.9214 195.664 63.578 191.133 68.2424C186.128 66.9224 181.239 65.2002 176.513 63.0925C173.454 61.725 170.157 59.8459 169.279 56.6159C168.399 53.4105 170.331 50.019 172.94 47.9624C175.549 45.9059 178.765 44.8139 181.746 43.3372C184.722 41.8674 187.661 39.7853 188.826 36.6755C191.515 29.5216 183.562 21.426 186.557 14.3901C188.033 10.9302 191.718 9.01864 195.184 7.53845C200.476 5.28467 205.915 3.39065 211.462 1.86935C216.332 0.533035 221.421 -0.518829 226.404 0.273198C231.388 1.06522 236.293 4.0363 238.132 8.73509C241.13 9.71251 244.313 10.8162 246.256 13.3072C248.198 15.7924 248.088 20.1062 245.257 21.4968Z" fill="#2F2E41"/>
<path d="M341.081 181.528C344.649 180.211 345.915 174.748 343.907 169.326C341.9 163.904 337.38 160.577 333.812 161.894C330.243 163.211 328.978 168.674 330.985 174.096C332.992 179.517 337.512 182.845 341.081 181.528Z" fill="#F9E052"/>
</svg>
