<?xml version="1.0" encoding="UTF-8" standalone="no"?>
<!DOCTYPE svg PUBLIC "-//W3C//DTD SVG 1.1//EN" "http://www.w3.org/Graphics/SVG/1.1/DTD/svg11.dtd">
<svg width="100%" height="100%" viewBox="0 0 530 530" version="1.1" xmlns="http://www.w3.org/2000/svg" xmlns:xlink="http://www.w3.org/1999/xlink" xml:space="preserve" xmlns:serif="http://www.serif.com/" style="fill-rule:evenodd;clip-rule:evenodd;stroke-linejoin:round;stroke-miterlimit:2;">
    <path d="M124.938,299.882C110.651,290.613 68.577,331.069 68.577,331.069L36.338,391.424C58.334,412.94 88.722,422.546 126.164,422.141L167.586,385.474L173.972,332.004C173.972,332.004 139.225,309.151 124.938,299.882Z" style="fill:#f9e052;"/>
    <path d="M70.223,336.786C68.186,338.924 64.468,344.854 61.195,351.185L58.017,357.334L59.902,358.853C67.193,364.726 97.553,377.226 98.448,374.724C99.656,371.341 103.122,363.36 104.943,359.762C106.116,357.446 107.075,355.346 107.075,355.093C107.075,354.84 102.466,352.425 96.83,349.726C91.196,347.027 83.355,342.737 79.408,340.194C71.309,334.975 71.782,335.151 70.223,336.786Z" style="fill:#377e7f;"/>
    <path d="M254.388,66.462L194.971,110.485C192.182,123.198 199.8,129.786 226.285,125.268L325.263,85.638L354.125,111.919C360.769,116.136 366.177,116.787 368.168,107.589L365.852,90.33L347.643,76.384L320.573,65.493L293.234,61.055L268.087,63.254L254.388,66.462Z" style="fill:#377e7f;"/>
    <path d="M248.144,223.156L333.563,212.835L404.605,245.164C396.503,274.481 380.393,295.876 357.243,310.306L338.191,337.251L284.133,326.103L246.856,292.802C238.259,267.293 240.098,244.434 248.144,223.156Z" style="fill:#eca331;"/>
    <path d="M204.249,400.933C196.889,404.726 190.699,406.066 175.992,407.054C150.243,408.783 136.991,421.34 136.717,444.27C136.632,451.514 136.494,451.925 134.579,450.67C131.725,448.8 128.15,441.358 128.129,437.247C128.116,434.817 127.626,434.461 123.476,433.877C114.478,432.609 111.609,432.143 106.724,431.156C103.887,430.584 100.984,430.002 100.275,429.865C89.65,427.813 69.291,420.699 58.362,415.221C52.022,412.043 52.268,412.004 50.618,416.445C46.56,427.377 46.149,445.903 49.753,455.385C50.273,456.75 50.296,456.733 56.115,450.931C63.298,443.768 63.506,443.747 64.775,450.056C66.738,459.82 74.864,478.932 78.932,483.357C79.596,484.08 81.402,479.11 83.748,470.105C84.538,467.075 85.201,467.26 90.39,471.946C113.798,493.084 144.588,509.324 160.901,509.134C168.026,509.052 168.77,508.342 163.771,506.398C157.085,503.799 148.076,496.427 144.916,490.968C142.736,487.2 143.728,486.841 148.357,489.72C158.988,496.329 171.369,501.217 183.381,503.546C194.905,505.779 212.245,505.306 203.597,502.993C195.479,500.822 187.808,496.511 182.034,490.873C174.611,483.624 175.09,482.681 183.768,487.453C203.811,498.477 226.491,501.81 239.13,495.59C243.802,493.29 243.648,492.814 237.399,490.234C211.839,479.684 189.863,458.868 181.348,437.14C180.035,433.789 180.475,433.129 184.568,432.306C199.167,429.369 210.638,414.924 208.707,401.912C208.283,399.047 208.022,398.989 204.249,400.933Z" style="fill:#c6c6c6;"/>
    <path d="M438.827,429.86C438.12,434.857 436.255,449.312 434.351,464.559C431.889,484.265 432.335,483.879 407.789,487.497C388.247,490.377 388.488,490.283 395.913,492.105C419.241,497.825 442.51,484.853 449.481,462.237C454.018,447.514 452.214,439.854 441.012,426.296C439.878,424.925 439.419,425.672 438.827,429.86Z" style="fill:#c6c6c6;"/>
    <path d="M288.074,98.363C278.293,99.371 269.805,107.593 253.911,118.006C234.885,130.471 225.965,132.999 206.306,131.503C175.566,129.163 166.442,131.238 154.922,143.197C142.703,155.879 139.007,168.772 135.346,211.478C133.728,230.355 131.669,246.025 129.617,255.077C127.146,265.98 123.784,276.677 120.732,283.342C118.17,288.935 119.274,288.744 125.304,282.552C138.139,269.375 149.105,243.169 155.477,210.446C157.21,201.545 157.65,201.146 159.473,206.835C162.505,216.304 160.336,234.587 152.124,268.75C145.995,294.252 143.295,320.197 146.443,323.346C147.179,324.081 150.967,321.272 156.039,316.228C169.882,302.463 182.374,276.184 186.456,252.239C187.246,247.607 187.692,246.925 188.431,249.225C191.248,257.996 190.164,272.674 185.356,290.832C181.637,304.878 179.377,314.448 178.752,318.799C177.415,328.103 177.631,333.981 179.521,339.804C180.533,342.925 180.821,342.894 184.783,339.25C192.384,332.26 196.624,321.403 198.816,303.32C199.869,294.63 200.91,287.668 201.692,284.089C203.837,274.254 209.364,265.19 208.411,273.069C203.205,316.104 210.482,349.57 223.574,342.8C226.549,341.261 226.853,335.998 224.685,323.442C223.246,315.098 222.887,308.338 223.704,304.91C224.62,301.065 225.378,301.087 226.14,304.979C230.393,326.707 242.7,340.028 260.611,342.288C264.056,342.723 264.042,342.171 260.545,339.762C254.098,335.321 248.717,327.889 247.981,322.409C247.588,319.477 248.541,319.716 252.243,323.475C261.568,332.947 280.561,342.473 288.288,341.555C288.542,341.526 287.149,340.316 285.193,338.869C279.211,334.439 274.155,328.912 274.155,326.801C274.155,325.708 274.796,325.927 278.473,328.28C294.363,338.443 319.772,343.827 342.559,341.857C354.552,340.82 355.058,340.642 351.994,338.534C349.159,336.584 345.874,333.019 345.874,331.894C345.874,330.907 346.338,330.997 352.632,333.214C361.298,336.264 371.164,337.45 371.15,335.439C371.132,332.692 367.246,322.132 363.859,315.623C361.982,312.014 361.811,311.413 362.47,310.752C363.493,309.729 373.802,309.22 378.879,309.942C383.631,310.618 383.451,310.861 381.747,306.043C377.678,294.545 367.832,283.595 357.42,278.988C354.334,277.624 354.276,277.716 353.9,284.615C352.15,316.63 349.191,326.003 339.419,330.476C321.189,338.823 280.346,325.032 258.437,305.773C235.767,285.847 231.775,268.299 244.6,229.716C246.786,223.143 246.604,219.325 246.291,215.264C245.714,207.749 247.246,202.617 253.084,195.481C267.341,178.057 270.542,171.158 270.203,157.017C270.04,150.182 267.504,150.631 270.243,153.828C272.647,156.638 272.901,159.482 273.743,163.563C274.11,165.337 276.564,165.557 276.733,165.557C278.266,165.557 286.348,159.001 288.358,153.933C290.957,147.377 292.994,139.134 287.774,131.831C287.237,131.081 288.59,132.037 290.001,133.212C294.396,136.866 291.758,135.366 291.785,148.32C291.815,162.45 294.586,165.665 299.594,165.15C306.94,164.395 316.572,151.835 316.26,139.739C316.121,134.318 313.959,134.556 316.367,136.478C320.179,139.519 317.656,144.055 314.917,155.263C312.532,165.023 320.237,169.939 325.407,162.34C331.781,152.971 331.413,148.528 330.631,154.764C329.841,161.065 332.187,171.572 337.333,176.847C341.367,180.981 349.073,179.251 346.928,174.568C342.979,165.952 341.336,154.348 343.997,147.544C347.529,138.515 344.762,122.458 334.621,113.613C325.101,105.31 302.375,96.89 288.074,98.363Z" style="fill:#c6c6c6;"/>
    <path d="M285.292,186.956C264.74,190.169 247.214,206.4 255.5,214.129C258.895,217.296 263.472,219.468 273.586,219.109C278.555,218.934 278.189,217.418 278.189,217.698C278.189,218.432 275.623,220.61 272.146,221.916C267.168,223.788 269.987,224.586 276.038,224.254C282.424,223.901 287.543,222.259 298.188,217.148C305.853,213.467 319.142,209.415 320.317,209.415C325.727,209.415 317.432,196.982 310.271,192.386C304.789,188.869 294.386,185.533 285.292,186.956Z" style="fill:#fff;"/>
    <path d="M320.597,184.388C316.732,184.937 315.988,188.054 318.228,189.705C323.168,193.342 326.786,196.79 328.049,204.354L328.367,206.259L333.638,205.974C339.974,205.632 343.724,207.797 349.041,210.475C353.793,212.868 355.101,211.846 355.316,208.283C356.28,192.384 337.871,181.745 320.597,184.388Z" style="fill:#fff;"/>
    <path d="M182.95,61.837C192.141,32.447 220.007,18.687 256.014,11.743C289.826,17.319 329.851,37.518 341.457,65.994L294.887,59.783L246.07,68.673L179.777,119.585L182.95,61.837Z" style="fill:#f9e052;"/>
    <path d="M238.183,135.672C256.215,141.697 260.969,168.768 247.195,186.97C231.541,207.651 205.55,196.702 205.55,169.427C205.55,148.078 222.583,130.459 238.183,135.672Z" style="fill:#3a3930;"/>
    <path d="M282.036,274.343C281.42,274.729 287.44,286.119 290.223,289.831C292.732,293.18 293.067,293.301 297.449,292.448C307.797,290.436 318.644,292.411 322.864,297.075C324.628,299.023 325.235,298.474 325.23,294.935C325.211,284.065 316.246,273.91 306.668,273.91L305.096,273.91L306.91,276.548C310.225,281.366 309.449,283.058 305.113,280.468C298.244,276.365 284.593,272.741 282.036,274.343Z" style="fill:#d8afca;stroke:#d8afca;stroke-width:0.01px;"/>
    <path d="M383.393,318.116L420.013,348.421L406.304,364.104C390.281,356.297 379.105,347.096 377.792,335.05C373.783,326.106 375.576,323.472 383.393,318.116Z" style="fill:#f9e052;"/>
    <path d="M280.641,169.253L302.645,169.163L311.363,166.702L331.801,175.835L315.533,184.627L290.485,183.665L278.749,181.067L280.641,169.253Z" style="fill:#eca331;"/>
    <path d="M362.385,351.334C346.89,353.252 295.916,354.854 248.615,354.909C228.335,354.932 215.392,355.132 215.874,355.414C216.314,355.672 218.984,356.687 221.808,357.673C224.633,358.658 231.007,360.892 235.973,362.639C240.94,364.384 246.396,366.271 248.099,366.832C249.801,367.392 251.659,368.057 252.226,368.309C252.794,368.561 254.651,369.227 256.354,369.789C258.057,370.35 263.513,372.242 268.479,373.993C273.445,375.744 278.553,377.539 279.83,377.982C282.268,378.829 318.784,378.562 319.683,377.69C319.892,377.487 317.302,375.752 313.925,373.837C307.78,370.349 307.176,369.789 307.176,367.578C307.176,365.216 309.23,364.716 324.203,363.43C329.453,362.978 335.303,362.387 337.202,362.117C346.161,360.838 346.524,360.926 360.714,367.862L373.478,374.099L378.122,373.829C380.676,373.682 385.9,373.184 389.731,372.723C401.557,371.302 404.843,370.914 407.933,370.576C409.573,370.396 411.036,370.053 411.183,369.815C411.332,369.575 402.937,365.196 392.527,360.084L373.603,350.789L369.67,350.854C367.508,350.889 364.229,351.106 362.385,351.334ZM183.168,358.914C181.637,361.929 178.701,372.169 178.701,374.489C178.701,376.195 205.413,387.359 225.654,394.114C241.555,399.419 265.213,405.997 268.397,405.997C269.559,405.997 269.699,405.393 270.538,396.784C271.268,389.291 271.397,389.808 268.608,389.003C264.506,387.821 239.18,379.385 233.136,377.189C230.014,376.054 225.486,374.409 223.074,373.534C220.662,372.658 218.224,371.729 217.657,371.468C217.089,371.209 213.839,369.906 210.433,368.574C207.028,367.243 203.567,365.83 202.744,365.435C201.92,365.042 201.065,364.72 200.844,364.72C200.625,364.72 198.976,364.045 197.183,363.222C195.39,362.398 192.413,361.089 190.569,360.313C188.724,359.538 186.467,358.586 185.552,358.198C183.953,357.521 183.861,357.548 183.168,358.914ZM427.396,378.473C420.817,379.357 415.552,380.063 410.885,380.685C408.757,380.967 404.461,381.558 401.34,381.998C398.218,382.437 393.807,383.04 391.537,383.338C389.266,383.636 385.435,384.155 383.023,384.49L378.637,385.1L378.203,392.472C377.602,402.667 376.519,401.767 387.667,400.355C389.795,400.085 394.555,399.497 398.244,399.047C401.933,398.598 406.693,398.012 408.821,397.746C421.379,396.178 425.947,395.632 428.944,395.343C433.742,394.882 433.588,395.189 433.588,386.124C433.588,376.956 434.086,377.572 427.396,378.473ZM304.339,391.115C282.075,391.621 284.27,390.794 283.69,398.9C282.985,408.756 282.703,407.751 286.28,408.134C296.736,409.251 327.584,407.996 329.193,406.388C329.648,405.932 329.976,403.266 330.21,398.117L330.555,390.518L326.992,390.599C325.033,390.644 314.839,390.876 304.339,391.115ZM221.032,409.944C220.709,411.604 220.326,413.659 220.181,414.51C220.037,415.361 219.718,416.522 219.473,417.09C219.228,417.657 218.611,419.27 218.104,420.672C215.46,427.988 205.879,437.876 200.008,439.349C198.308,439.776 198.4,439.996 202.927,446.386C212.077,459.297 226.493,471.078 244.229,480.136C250.833,483.507 261.21,487.736 261.695,487.252C261.867,487.079 262.41,482.019 262.902,476.007C267.611,418.367 267.583,418.782 266.895,418.358C266.524,418.128 264.231,417.552 261.803,417.078C252.339,415.231 243.931,413.166 233.394,410.101C220.474,406.344 221.732,406.359 221.032,409.944ZM420.946,407.31C420.663,407.418 416.599,407.884 411.917,408.344C387.718,410.719 377.874,412.027 377.595,412.903C377.495,413.219 377.035,419.973 376.574,427.911C376.113,435.849 375.518,442.604 375.255,442.923C374.97,443.266 370.934,443.755 365.355,444.124C360.174,444.466 353.265,444.958 350.001,445.219C346.738,445.481 340.643,445.848 336.457,446.037L328.847,446.381L328.847,418.251L327.17,418.603C322.102,419.666 314.898,420.072 298.663,420.214L280.604,420.371L279.995,428.534C279.661,433.023 279.14,439.831 278.838,443.662C278.535,447.493 277.939,455.039 277.515,460.431C277.089,465.823 276.508,473.485 276.222,477.458C275.939,481.431 275.562,485.357 275.387,486.184L275.068,487.688L289.961,487.355C307.222,486.971 324.335,485.985 346.39,484.106C370.474,482.054 396.736,478.857 413.723,475.91C421.232,474.607 420.451,475.671 421.199,465.713C422.576,447.435 425.603,424.631 428.202,412.962C429.693,406.275 430.04,407.023 425.471,407.07C423.266,407.092 421.23,407.2 420.946,407.31Z" style="fill:#b58c62;stroke:#b58c62;stroke-width:0.01px;"/>
    <path d="M247.841,9.783C216.26,12.819 167.835,38.277 153.498,59.382C146.072,70.313 143.379,93.094 146.456,118.96L147.327,126.28L143.982,131.608C142.143,134.539 139.079,139.899 137.174,143.518C134.206,149.159 133.369,150.33 131.312,151.725C68.327,194.388 35.149,272.691 47.429,349.7L48.694,357.639L46.839,362.599C44.975,367.583 43.894,369.363 42.731,369.363C40.212,369.363 34.908,378.6 31.355,389.178C28.194,398.591 28.138,398.442 36.862,404.25C39.672,406.121 41.968,407.801 41.965,407.985C41.962,408.169 41.618,409.596 41.201,411.156C35.694,431.772 37.223,454.144 45.142,468.815C48.253,474.581 47.747,474.553 51.987,469.202C56.207,463.879 56.797,463.773 58.432,468.041C63.157,480.383 72.859,493.564 82.724,501.044L86.071,503.581L86.42,502.129C86.612,501.33 87.035,497.557 87.359,493.745C88.173,484.154 87.737,484.334 95.756,490.273C136.285,520.29 168.246,527.938 186.024,511.876L187.97,510.118L196.363,512.204C227.282,519.884 255.655,520.612 286.538,514.516C303.104,511.246 315.396,507.052 337.372,497.171C354.044,489.677 362.883,489.613 379.741,496.866C412.223,510.839 444.081,499.371 458.096,468.657C466.312,450.652 464.92,443.38 448.575,418.879C440.743,407.137 440.424,406.375 443.008,405.522C445.939,404.555 446.061,403.951 445.463,393.469C444.148,370.462 443.892,367.622 443.046,366.687C442.505,366.09 442.33,365.288 442.531,364.347C442.699,363.559 443.203,361.288 443.649,359.302C448.695,336.899 449.296,307.049 445.191,282.939C436.4,231.333 406.714,184.05 363.809,153.32C361.025,151.327 358.184,148.822 357.439,147.706C356.701,146.6 354.986,144.532 353.628,143.113C351.414,140.802 351.12,140.212 350.79,137.438C350.086,131.501 349.88,131.986 353.613,130.761C379.106,122.391 376.714,89.268 349.35,71.699C347.199,70.318 345.784,69.039 345.66,68.363C343.659,57.499 340.727,50.228 336.459,45.547C326.183,34.274 293.421,17.263 271.575,11.858C261.661,9.405 256.481,8.952 247.841,9.783ZM263.712,17.758C283.023,20.824 306.347,30.963 323.72,43.844C331.903,49.912 333.729,52.16 336.327,59.362C338.46,65.275 338.31,65.373 331.344,62.618C314.835,56.089 288.695,52.999 271.833,55.581C238.005,60.763 212.132,75.488 193.944,99.913C189.168,106.327 189.25,106.464 189.435,92.501C189.881,58.645 191.612,52.4 203.805,40.667C222.043,23.114 244.166,14.654 263.712,17.758ZM309.756,66.024C339.332,70.758 359.041,85.076 363.112,104.785C364.58,111.892 364.1,112.964 361.602,108.16C341.914,70.329 291.809,71.092 240.999,110.001C230.388,118.126 229.769,118.534 225.466,120.234C218.806,122.864 205.845,122.566 200.408,119.656C198.954,118.878 199.05,118.253 201.15,114.765C220.937,81.906 270.37,59.72 309.756,66.024ZM301.327,102.395C316.132,104.373 327.13,110.386 334.285,120.412C340.505,129.129 343.246,140.822 340.636,147.499C337.898,154.497 338.946,165.964 343.143,174.976C345.136,179.256 345.121,180.128 343.074,178.787C336.28,174.335 330.83,162.757 331.774,154.784C332.389,149.59 330.207,150.573 325.468,157.619C322.141,162.569 320.558,164.01 318.447,164.01C315.744,164.01 315.575,162.454 317.424,154.533C319.896,143.937 319.56,137.715 316.325,134.213C314.668,132.42 314.563,132.658 314.269,138.856C313.529,154.413 302.595,168.393 295.567,162.765L294.02,161.525L294.007,150.255C293.994,139.034 293.987,138.973 292.561,135.89C290.399,131.221 287.446,129.376 288.562,133.39C291.067,142.414 287.374,154.889 279.748,163.163C276.421,166.771 276.121,166.709 275.26,162.253C274.33,157.429 270.281,150.079 268.555,150.079C268.371,150.079 268.194,153.387 268.162,157.431C268.064,169.756 265.296,176.856 256.331,187.779C245.881,200.509 243.936,204.639 244.349,213.209C244.589,218.218 244.523,218.632 242.579,224.361C230.072,261.215 233.471,286.145 253.585,305.078C277.516,327.608 326.333,340.231 342.558,328.086C349.344,323.007 351.813,313.119 353.395,284.682C353.812,277.185 353.868,277.084 356.921,278.251C367.156,282.159 378.307,294.447 382.336,306.254C384.041,311.255 384.014,311.306 380.005,310.518C376.365,309.802 363.702,310.052 362.898,310.856C362.532,311.222 363.32,313.394 365.415,317.802C368.695,324.701 371.025,331.146 371.51,334.665L371.813,336.858L368.517,336.84C363.897,336.814 358.22,335.712 352.814,333.789C346.422,331.516 346.39,331.507 346.39,332.152C346.39,333.103 349.927,336.716 352.362,338.255C353.617,339.047 354.644,339.957 354.644,340.277C354.648,342.167 325.224,343.139 315.432,341.573C300.685,339.214 287.833,334.698 277.751,328.335C268.777,322.67 279.583,334.758 289.126,341.058C291.311,342.501 289.778,342.795 285.099,341.833C273.329,339.409 260.629,332.513 252.243,323.992C248.607,320.299 248.113,320.161 248.561,322.965C249.425,328.369 254.76,335.354 261.417,339.799L265.126,342.275L261.772,342.439C245.906,343.213 230.182,327.481 226.143,306.792C225.355,302.755 224.542,302.534 223.965,306.2C223.427,309.61 223.904,315.885 225.425,325.394C227.673,339.45 226.54,344.081 220.855,344.081C211.906,344.081 207.218,330.805 206.712,304.041C206.472,291.383 206.704,285.539 207.918,273.652L208.235,270.556L207.125,271.619C204.621,274.016 201.742,283.748 200.419,294.291C197.574,316.938 195.815,324.326 191.561,331.489C189.511,334.942 184.163,340.824 181.845,342.176L180.247,343.108L179.718,341.66C179.428,340.863 178.971,339.631 178.705,338.921C177.738,336.347 177.239,328.419 177.732,323.445C178.442,316.278 179.731,310.347 184.572,291.969C188.391,277.469 189.803,267.748 189.367,258.947C188.901,249.563 187.614,246.675 186.722,253.013C183.175,278.26 165.067,312.29 149.79,322.426C146.09,324.881 145.894,324.726 145.132,318.745C143.763,308 145.85,293.342 153.173,262.301C160.065,233.083 161.804,215.903 158.834,206.344C157.784,202.962 157.428,203.358 156.257,209.2C149.142,244.692 136.761,273.701 123.897,285.025C118.389,289.874 117.535,289.415 120.292,283.089C128.107,265.158 131.829,246.534 135.121,208.899C138.78,167.047 142.82,154.09 156.124,141.533C166.378,131.856 177.041,128.893 195.986,130.457C226.428,132.968 232.005,131.678 255.112,116.778C271.098,106.469 277.572,103.612 287.828,102.335C294.778,101.471 294.405,101.47 301.327,102.395ZM227.772,135.901C206.312,141.91 198.178,177.07 214.792,192.007C235.892,210.979 264.942,175.686 251.215,147.757C246.574,138.315 236.803,133.373 227.772,135.901ZM241.52,151.955C244.989,155.77 240.344,163.948 235.989,161.696C233.992,160.664 233.394,159.46 233.394,156.482C233.394,151.113 238.28,148.391 241.52,151.955ZM354.848,161.214C355.712,163.465 354.676,160.766 354.848,161.214ZM240.905,165.272C242.123,167.131 240.968,169.427 238.817,169.427C236.746,169.427 235.901,167.305 237.19,165.34C238.288,163.664 239.833,163.637 240.905,165.272ZM322.801,173.462C325.22,174.88 327.174,177.273 326.444,177.921C325.817,178.479 316.292,179.534 315.916,179.089C314.343,177.227 312.476,172.846 313.016,172.286C314.082,171.179 320.152,171.909 322.801,173.462ZM297.941,173.378C301.706,174.662 307.453,179.767 304.01,178.77C296.403,176.568 290.591,176.557 284.433,178.729C281.415,179.794 281.242,179.222 283.873,176.876C287.807,173.373 293.656,171.918 297.941,173.378ZM328.641,186.169C342.714,187.787 352.18,196.088 353.857,208.283C354.302,211.512 354.393,211.5 348.912,208.942C343.28,206.315 339.338,205.568 333.212,205.97L328.372,206.288L328.051,204.368C326.772,196.709 323.359,190.793 318.855,188.432C316.46,187.175 317.655,186.546 323.945,185.752C324.229,185.718 326.342,185.905 328.641,186.169ZM304.814,189.751C312.024,192.332 316.712,197.227 318.754,204.305C319.882,208.216 319.743,208.398 314.084,210.333C311.362,211.264 304.922,214.014 299.771,216.443C287.357,222.299 282.533,223.895 276.183,224.245C270.15,224.577 269.314,223.932 273.706,222.33C275.343,221.733 276.73,221.167 277.854,220.643C282.664,218.408 282.702,216.976 277.185,217.445C262.303,218.712 254.844,215.981 254.844,209.267C254.844,196.188 287.343,183.495 304.814,189.751ZM339.003,217.46C368.833,222.737 388.953,250.68 382.98,278.536C382.222,282.063 381.695,281.923 376.155,276.708C356.189,257.913 330.127,251.485 300.985,258.168C283.231,262.239 275.691,261.821 271.026,256.509C268.346,253.457 269.127,252.394 275.187,250.839L276.993,250.374L275.723,249.683C270.302,246.729 260.58,251.03 258.434,257.332C256.639,262.596 257.923,268.086 259.939,263.773C263.197,256.802 265.048,258.465 274.671,277.006C287.478,301.682 301.629,313.637 318.27,313.838C328.053,313.957 334.185,310.298 336.547,302.936C337.837,298.917 337.824,300.023 336.788,281.038C336.152,269.385 338.127,267.17 344.407,272.49L345.78,273.652L345.386,290.937C344.947,310.239 344.411,313.741 341.039,319.356C331.676,334.949 287.011,324.962 262.528,301.802C243.293,283.605 239.959,258.781 252.727,228.838C253.689,226.583 252.969,226.588 260.998,228.784C265.369,229.98 267.183,230.196 272.865,230.207C282.835,230.225 285.87,229.43 303.049,222.308C317.909,216.148 325.67,215.1 339.003,217.46ZM306.35,230.275C304.114,231.247 301.501,235.312 301.501,237.817C301.501,239 301.678,239.04 303.088,238.179C304.015,237.613 304.27,237.707 305.188,238.953C306.443,240.66 308.071,240.777 309.955,239.295C315.506,234.929 312.565,227.569 306.35,230.275ZM313.095,274.51C321.775,277.831 328.695,291.192 325.749,298.942L325.229,300.307L322.845,298.208C316.846,292.927 309.568,291.48 298.367,293.34L293.215,294.196L291.631,292.695C289.411,290.591 287.516,287.743 284.416,281.843C282.944,279.041 281.426,276.381 281.043,275.934C277.006,271.209 292.296,272.875 303.178,278.345C306.182,279.854 307.693,280.381 307.693,279.918C307.693,279.166 305.011,275.259 304.114,274.705C300.651,272.565 307.617,272.412 313.095,274.51ZM121.946,303.778C125.019,304.624 132.541,323.835 135.099,337.374C136.362,344.062 136.368,344.081 137.075,344.081C139.653,344.081 150.193,337.697 155.318,333.032C157.071,331.436 158.628,330.328 158.778,330.571C158.927,330.813 160.346,334.925 161.929,339.708C163.513,344.491 165.872,350.666 167.172,353.43C168.985,357.283 169.475,358.854 169.274,360.169C169.129,361.11 168.714,363.971 168.35,366.525C167.988,369.08 167.621,371.258 167.537,371.367C167.455,371.475 166.045,370.338 164.407,368.84C159.136,364.024 150.711,358.528 148.598,358.528C147.552,358.528 147.542,358.298 148.727,361.737C154.356,378.099 148.902,399.537 136.393,410.221C125.493,419.53 113.566,421.459 95.791,416.787C77.45,411.966 42.487,395.407 42.487,391.539C42.487,389.338 44.373,384.673 45.809,383.324L47.056,382.153L49.836,383.467C64.137,390.233 84.234,395.191 101.307,396.166C111.487,396.748 111.802,396.35 103.371,393.55C82.953,386.771 55.418,375.004 54.524,372.676C54.285,372.05 56.631,365.999 57.551,364.868C57.934,364.397 59.696,365.063 64.699,367.57C76.026,373.246 96.684,381.227 98.343,380.567C98.961,380.322 110.606,354.199 110.598,353.077C110.596,352.775 109.724,352.12 108.659,351.622C101.166,348.112 82.063,336.685 78.091,333.336L76.288,331.815L78.343,328.79C89.102,312.949 110.554,300.642 121.946,303.778ZM385.722,324.919C397.003,329.806 411.196,346.022 413.271,356.396C413.719,358.635 414.001,358.723 399.93,352.268C385.169,345.497 386.27,346.346 384.784,340.609C384.133,338.092 382.425,333.143 380.991,329.608C377.425,320.83 377.077,321.176 385.722,324.919ZM75.277,338.576C80.452,342.34 88.819,347.191 96.534,350.897C100.578,352.841 103.887,354.624 103.887,354.86C103.887,355.096 102.914,357.353 101.726,359.876C100.538,362.398 98.708,366.667 97.658,369.363C96.559,372.187 95.42,374.331 94.971,374.421C91.893,375.039 62.31,361.125 59.498,357.735C58.091,356.04 69.258,336.342 71.626,336.342C71.945,336.342 73.588,337.346 75.277,338.576ZM393.166,359.547C414.11,369.863 414.829,370.358 409.811,371.025C401.323,372.153 389.078,373.581 379.381,374.572L373.933,375.128L360.548,368.573L347.164,362.016L337.877,362.876C313.008,365.178 309.756,365.592 308.646,366.596C306.64,368.411 307.53,369.334 315.84,374.046C319.129,375.911 321.904,377.685 322.004,377.986C322.2,378.576 305.857,379.283 289.892,379.374L281.12,379.425L273.639,376.686C265.538,373.721 257.934,371.034 252.226,369.12C250.24,368.454 245.248,366.707 241.133,365.239C237.018,363.772 233.071,362.38 232.362,362.146C230.353,361.485 213.637,355.575 212.629,355.17C210.178,354.184 215.269,354.043 254.142,354.016C277.209,353.999 302.352,353.726 310.014,353.407C336.543,352.304 353.878,351.333 365.481,350.3C367.893,350.084 370.636,349.874 371.578,349.833C372.85,349.776 378.382,352.266 393.166,359.547ZM189.577,359.096C200.784,363.972 224.679,373.575 229.266,375.045C229.976,375.272 233.226,376.423 236.49,377.602C243.799,380.241 251.685,382.882 262.804,386.411C271.571,389.193 272.189,389.526 271.847,391.288C271.736,391.858 271.36,395.538 271.011,399.466C270.256,407.978 270.738,407.591 263.169,405.747C238.215,399.666 205.583,388.555 186.699,379.708C183.861,378.378 180.785,376.96 179.862,376.555C177.444,375.493 177.587,372.801 180.564,363.43C182.9,356.073 182.773,356.135 189.577,359.096ZM356.646,370.822C366.15,375.601 369.99,377.989 372,380.373L373.377,382.004L373.007,399.031C372.601,417.714 371.599,438.751 371.092,439.257C370.914,439.434 365.806,439.914 359.741,440.323C353.674,440.733 345.926,441.29 342.52,441.561C334.782,442.176 334.838,442.22 335.332,435.858C336.193,424.766 335.862,384.693 334.89,382.54C333.313,379.043 329.262,375.893 320.995,371.733C316.13,369.285 316.206,369.118 322.52,368.362C346.541,365.491 345.958,365.448 356.646,370.822ZM434.306,377.919C434.479,378.368 434.62,382.306 434.62,386.673C434.62,396.003 435.158,395.267 427.654,396.177C424.816,396.52 420.869,397.003 418.883,397.251C416.896,397.499 412.253,398.069 408.564,398.519C404.874,398.969 400.115,399.55 397.986,399.81C395.858,400.071 391.098,400.64 387.409,401.076C383.72,401.51 380.1,401.994 379.365,402.149C377.178,402.611 376.974,401.737 377.232,393C377.505,383.759 377.007,384.557 383.007,383.75C390.225,382.777 404.58,380.828 409.08,380.209C410.782,379.974 415.078,379.386 418.625,378.901C422.172,378.416 426.351,377.843 427.912,377.629C432.671,376.974 433.967,377.033 434.306,377.919ZM331.164,398.128C330.96,402.598 330.582,406.517 330.325,406.835C328.372,409.267 284.781,410.603 282.48,408.302C282.081,407.903 283.468,391.835 283.943,391.36C284.362,390.94 304.838,390.279 323.355,390.087L331.535,390.002L331.164,398.128ZM208.83,399.59C209.576,401.532 209.123,408.983 208.063,412.232C204.831,422.131 195.303,430.496 184.635,432.799C180.109,433.776 180.1,434.119 184.378,442.695C194.353,462.688 215.062,480.873 238.414,490.145C244.545,492.579 244.704,492.826 241.458,494.875C228.751,502.904 203.249,499.455 181.41,486.754C176.937,484.154 177.132,485.486 181.926,490.27C187.407,495.74 194.454,499.76 202.931,502.255C209.92,504.311 207.971,505.321 197.018,505.319C181.586,505.316 165.16,500.284 148.663,490.508C144.113,487.811 143.586,488.133 146.184,492.023C149.851,497.513 157.05,503.137 164.122,506.036C170.126,508.497 168.362,509.961 159.869,509.565C142.496,508.757 108.554,490.47 89.168,471.475C84.726,467.123 85.352,466.398 81.187,480.715C79.922,485.063 79.559,485.138 77.164,481.551C72.221,474.148 65.593,457.834 64.13,449.467C63.297,444.698 63.38,444.677 56.676,451.402C50.167,457.93 49.996,457.997 48.984,454.368C45.659,442.45 46.087,427.662 50.082,416.396C51.798,411.563 51.907,411.54 58.148,414.633C76.55,423.754 97.752,429.976 121.172,433.13C128.453,434.11 128.026,433.833 128.69,438.026C129.333,442.092 131.566,446.963 133.82,449.222C136.046,451.449 136.124,451.284 136.198,444.264C136.457,419.639 150.122,408.041 181.023,406.223C190.462,405.667 197.303,403.977 203.966,400.556C207.825,398.573 208.397,398.46 208.83,399.59ZM224.217,406.728C227.32,407.756 233.454,409.54 237.751,410.665C239.753,411.19 242.784,411.988 244.487,412.441C248.323,413.459 257.567,415.541 263.062,416.623C268.259,417.647 268.566,417.901 268.232,420.9C268.086,422.21 267.619,427.809 267.192,433.343C266.766,438.877 266.187,446.074 265.905,449.338C265.623,452.601 265.044,459.567 264.619,464.817C263.121,483.317 262.641,488.075 262.249,488.316C260.868,489.171 241.752,480.334 232.878,474.739C220.455,466.905 209.365,456.761 202.129,446.607C197.036,439.462 197.124,439.847 200.243,438.412C210.637,433.629 217.924,423.65 219.959,411.414C220.555,407.835 221.19,405.997 221.83,405.997C221.926,405.997 223.001,406.326 224.217,406.728ZM430.208,406.471C430.37,406.732 430.059,408.88 429.516,411.244C426.479,424.484 423.453,447.577 421.563,471.942C421.285,475.52 421.274,475.527 414.711,476.664C379.532,482.761 307.592,489.106 281.12,488.447L274.929,488.293L274.987,484.939C275.019,483.095 275.304,478.335 275.619,474.362C275.935,470.389 276.77,459.825 277.473,450.886C279.709,422.473 279.903,420.228 280.136,419.849C280.263,419.645 285.76,419.605 292.353,419.76C301.47,419.974 306.809,419.825 314.658,419.136C320.334,418.638 326.022,418.206 327.299,418.176L329.621,418.122L329.759,431.964L329.896,445.806L333.113,445.512C334.881,445.351 342.249,444.855 349.486,444.412C368.481,443.248 373.793,442.78 374.358,442.215C374.633,441.94 375.219,435.245 375.661,427.338C376.569,411.107 376.378,411.712 380.802,411.079C385.487,410.408 402.157,408.534 412.691,407.493C415.813,407.185 419.992,406.755 421.979,406.54C427.322,405.961 429.879,405.939 430.208,406.471ZM443.213,428.341C454.174,442.127 455.135,453.68 446.705,470.288C437.517,488.388 414.306,498.045 393.966,492.23C386.834,490.19 387.503,489.952 409.338,486.755C432.076,483.427 431.448,484.036 434.099,462.753C439.591,418.652 438.571,422.502 443.213,428.341Z" style="fill:#222328;"/>
    <path d="M238.073,161.586C240.662,161.586 242.76,158.861 242.76,155.498C242.76,152.136 240.662,149.41 238.073,149.41C235.484,149.41 233.385,152.136 233.385,155.498C233.385,158.861 235.484,161.586 238.073,161.586Z" style="fill:#fff;fill-rule:nonzero;"/>
    <path d="M238.995,169.561C240.212,169.561 241.199,168.222 241.199,166.57C241.199,164.918 240.212,163.579 238.995,163.579C237.778,163.579 236.791,164.918 236.791,166.57C236.791,168.222 237.778,169.561 238.995,169.561Z" style="fill:#fff;fill-rule:nonzero;"/>
</svg>
