<svg width="1086" height="1086" viewBox="0 0 1086 1086" fill="none" xmlns="http://www.w3.org/2000/svg">
<path fill-rule="evenodd" clip-rule="evenodd" d="M344.938 545.882C330.651 536.613 288.577 577.069 288.577 577.069L256.338 637.424C278.334 658.94 308.722 668.546 346.164 668.141L387.586 631.474L393.972 578.004C393.972 578.004 359.225 555.151 344.938 545.882Z" fill="#F9E052"/>
<path fill-rule="evenodd" clip-rule="evenodd" d="M290.223 582.786C288.186 584.924 284.468 590.854 281.195 597.185L278.017 603.334L279.902 604.853C287.193 610.726 317.553 623.226 318.448 620.724C319.656 617.341 323.122 609.36 324.943 605.762C326.116 603.446 327.075 601.346 327.075 601.093C327.075 600.84 322.466 598.425 316.83 595.726C311.196 593.027 303.355 588.737 299.408 586.194C291.309 580.975 291.782 581.151 290.223 582.786Z" fill="#377E7F"/>
<path fill-rule="evenodd" clip-rule="evenodd" d="M474.388 312.462L414.971 356.485C412.182 369.198 419.8 375.786 446.285 371.268L545.263 331.638L574.125 357.919C580.769 362.136 586.177 362.787 588.168 353.589L585.852 336.33L567.643 322.384L540.573 311.493L513.234 307.055L488.087 309.254L474.388 312.462Z" fill="#377E7F"/>
<path fill-rule="evenodd" clip-rule="evenodd" d="M468.144 469.156L553.563 458.835L624.605 491.164C616.503 520.481 600.393 541.876 577.243 556.306L558.191 583.251L504.133 572.103L466.856 538.802C458.259 513.293 460.098 490.434 468.144 469.156Z" fill="#ECA331"/>
<path fill-rule="evenodd" clip-rule="evenodd" d="M424.249 646.933C416.889 650.726 410.699 652.066 395.992 653.054C370.243 654.783 356.991 667.34 356.717 690.27C356.632 697.514 356.494 697.925 354.579 696.67C351.725 694.8 348.15 687.358 348.129 683.247C348.116 680.817 347.626 680.461 343.476 679.877C334.478 678.609 331.609 678.143 326.724 677.156C323.887 676.584 320.984 676.002 320.275 675.865C309.65 673.813 289.291 666.699 278.362 661.221C272.022 658.043 272.268 658.004 270.618 662.445C266.56 673.377 266.149 691.903 269.753 701.385C270.273 702.75 270.296 702.733 276.115 696.931C283.298 689.768 283.506 689.747 284.775 696.056C286.738 705.82 294.864 724.932 298.932 729.357C299.596 730.08 301.402 725.11 303.748 716.105C304.538 713.075 305.201 713.26 310.39 717.946C333.798 739.084 364.588 755.324 380.901 755.134C388.026 755.052 388.77 754.342 383.771 752.398C377.085 749.799 368.076 742.427 364.916 736.968C362.736 733.2 363.728 732.841 368.357 735.72C378.988 742.329 391.369 747.217 403.381 749.546C414.905 751.779 432.245 751.306 423.597 748.993C415.479 746.822 407.808 742.511 402.034 736.873C394.611 729.624 395.09 728.681 403.768 733.453C423.811 744.477 446.491 747.81 459.13 741.59C463.802 739.29 463.648 738.814 457.399 736.234C431.839 725.684 409.863 704.868 401.348 683.14C400.035 679.789 400.475 679.129 404.568 678.306C419.167 675.369 430.638 660.924 428.707 647.912C428.283 645.047 428.022 644.989 424.249 646.933Z" fill="#C6C6C6" stroke="#C6C6C6" stroke-width="0.00112837" stroke-miterlimit="2" stroke-linejoin="round"/>
<path fill-rule="evenodd" clip-rule="evenodd" d="M658.827 675.86C658.12 680.857 656.255 695.312 654.351 710.559C651.889 730.265 652.335 729.879 627.789 733.497C608.247 736.377 608.488 736.283 615.913 738.105C639.241 743.825 662.51 730.853 669.481 708.237C674.018 693.514 672.214 685.854 661.012 672.296C659.878 670.925 659.419 671.672 658.827 675.86Z" fill="#C6C6C6" stroke="#C6C6C6" stroke-width="0.00237552" stroke-miterlimit="2" stroke-linejoin="round"/>
<path fill-rule="evenodd" clip-rule="evenodd" d="M508.074 344.363C498.293 345.371 489.805 353.593 473.911 364.006C454.885 376.471 445.965 378.999 426.306 377.503C395.566 375.163 386.442 377.238 374.922 389.197C362.703 401.879 359.007 414.772 355.346 457.478C353.728 476.355 351.669 492.025 349.617 501.077C347.146 511.98 343.784 522.677 340.732 529.342C338.17 534.935 339.274 534.744 345.304 528.552C358.139 515.375 369.105 489.169 375.477 456.446C377.21 447.545 377.65 447.146 379.473 452.835C382.505 462.304 380.336 480.587 372.124 514.75C365.995 540.252 363.295 566.197 366.443 569.346C367.179 570.081 370.967 567.272 376.039 562.228C389.882 548.463 402.374 522.184 406.456 498.239C407.246 493.607 407.692 492.925 408.431 495.225C411.248 503.996 410.164 518.674 405.356 536.832C401.637 550.878 399.377 560.448 398.752 564.799C397.415 574.103 397.631 579.981 399.521 585.804C400.533 588.925 400.821 588.894 404.783 585.25C412.384 578.26 416.624 567.403 418.816 549.32C419.869 540.63 420.91 533.668 421.692 530.089C423.837 520.254 429.364 511.19 428.411 519.069C423.205 562.104 430.482 595.57 443.574 588.8C446.549 587.261 446.853 581.998 444.685 569.442C443.246 561.098 442.887 554.338 443.704 550.91C444.62 547.065 445.378 547.087 446.14 550.979C450.393 572.707 462.7 586.028 480.611 588.288C484.056 588.723 484.042 588.171 480.545 585.762C474.098 581.321 468.717 573.889 467.981 568.409C467.588 565.477 468.541 565.716 472.243 569.475C481.568 578.947 500.561 588.473 508.288 587.555C508.542 587.526 507.149 586.316 505.193 584.869C499.211 580.439 494.155 574.912 494.155 572.801C494.155 571.708 494.796 571.927 498.473 574.28C514.363 584.443 539.772 589.827 562.559 587.857C574.552 586.82 575.058 586.642 571.994 584.534C569.159 582.584 565.874 579.019 565.874 577.894C565.874 576.907 566.338 576.997 572.632 579.214C581.298 582.264 591.164 583.45 591.15 581.439C591.132 578.692 587.246 568.132 583.859 561.623C581.982 558.014 581.811 557.413 582.47 556.752C583.493 555.729 593.802 555.22 598.879 555.942C603.631 556.618 603.451 556.861 601.747 552.043C597.678 540.545 587.832 529.595 577.42 524.988C574.334 523.624 574.276 523.716 573.9 530.615C572.15 562.63 569.191 572.003 559.419 576.476C541.189 584.823 500.346 571.032 478.437 551.773C455.767 531.847 451.775 514.299 464.6 475.716C466.786 469.143 466.604 465.325 466.291 461.264C465.714 453.749 467.246 448.617 473.084 441.481C487.341 424.057 490.542 417.158 490.203 403.017C490.04 396.182 487.504 396.631 490.243 399.828C492.647 402.638 492.901 405.482 493.743 409.563C494.11 411.337 496.564 411.557 496.733 411.557C498.266 411.557 506.348 405.001 508.358 399.933C510.957 393.377 512.994 385.134 507.774 377.831C507.237 377.081 508.59 378.037 510.001 379.212C514.396 382.866 511.758 381.366 511.785 394.32C511.815 408.45 514.586 411.665 519.594 411.15C526.94 410.395 536.572 397.835 536.26 385.739C536.121 380.318 533.959 380.556 536.367 382.478C540.179 385.519 537.656 390.055 534.917 401.263C532.532 411.023 540.237 415.939 545.407 408.34C551.781 398.971 551.413 394.528 550.631 400.764C549.841 407.065 552.187 417.572 557.333 422.847C561.367 426.981 569.073 425.251 566.928 420.568C562.979 411.952 561.336 400.348 563.997 393.544C567.529 384.515 564.762 368.458 554.621 359.613C545.101 351.31 522.375 342.89 508.074 344.363Z" fill="#C6C6C6" stroke="#C6C6C6" stroke-width="0.00475105" stroke-miterlimit="2" stroke-linejoin="round"/>
<path fill-rule="evenodd" clip-rule="evenodd" d="M505.292 432.956C484.74 436.169 467.214 452.4 475.5 460.129C478.895 463.296 483.472 465.468 493.586 465.109C498.555 464.934 498.189 463.418 498.189 463.698C498.189 464.432 495.623 466.61 492.146 467.916C487.168 469.788 489.987 470.586 496.038 470.254C502.424 469.901 507.543 468.259 518.188 463.148C525.853 459.467 539.142 455.415 540.317 455.415C545.727 455.415 537.432 442.982 530.271 438.386C524.789 434.869 514.386 431.533 505.292 432.956Z" fill="white"/>
<path fill-rule="evenodd" clip-rule="evenodd" d="M540.597 430.388C536.732 430.937 535.988 434.054 538.228 435.705C543.168 439.342 546.786 442.79 548.049 450.354L548.367 452.259L553.638 451.974C559.974 451.632 563.724 453.797 569.041 456.475C573.793 458.868 575.101 457.846 575.316 454.283C576.28 438.384 557.871 427.745 540.597 430.388Z" fill="white"/>
<path fill-rule="evenodd" clip-rule="evenodd" d="M402.95 307.837C412.141 278.447 440.007 264.687 476.014 257.743C509.826 263.319 549.851 283.518 561.457 311.994L514.887 305.783L466.07 314.673L399.777 365.585L402.95 307.837Z" fill="#F9E052"/>
<path fill-rule="evenodd" clip-rule="evenodd" d="M458.183 381.672C476.215 387.697 480.969 414.768 467.195 432.97C451.541 453.651 425.55 442.702 425.55 415.427C425.55 394.078 442.583 376.459 458.183 381.672Z" fill="#3A3930"/>
<path fill-rule="evenodd" clip-rule="evenodd" d="M502.036 520.343C501.42 520.729 507.44 532.119 510.223 535.831C512.732 539.18 513.067 539.301 517.449 538.448C527.797 536.436 538.644 538.411 542.864 543.075C544.628 545.023 545.235 544.474 545.23 540.935C545.211 530.065 536.246 519.91 526.668 519.91H525.096L526.91 522.548C530.225 527.366 529.449 529.058 525.113 526.468C518.244 522.365 504.593 518.741 502.036 520.343Z" fill="#D8AFCA" stroke="#D8AFCA" stroke-width="0.0112837" stroke-miterlimit="2" stroke-linejoin="round"/>
<path fill-rule="evenodd" clip-rule="evenodd" d="M603.393 564.116L640.013 594.421L626.304 610.104C610.281 602.297 599.105 593.096 597.792 581.05C593.783 572.106 595.576 569.472 603.393 564.116Z" fill="#F9E052"/>
<path fill-rule="evenodd" clip-rule="evenodd" d="M500.641 415.253L522.645 415.163L531.363 412.702L551.801 421.835L535.533 430.627L510.485 429.665L498.749 427.067L500.641 415.253Z" fill="#ECA331"/>
<path fill-rule="evenodd" clip-rule="evenodd" d="M582.385 597.334C566.89 599.252 515.916 600.854 468.615 600.909C448.335 600.932 435.392 601.132 435.874 601.414C436.314 601.672 438.984 602.687 441.808 603.673C444.633 604.658 451.007 606.892 455.973 608.639C460.94 610.384 466.396 612.271 468.099 612.832C469.801 613.392 471.659 614.057 472.226 614.309C472.794 614.561 474.651 615.227 476.354 615.789C478.057 616.35 483.513 618.242 488.479 619.993C493.445 621.744 498.553 623.539 499.83 623.982C502.268 624.829 538.784 624.562 539.683 623.69C539.892 623.487 537.302 621.752 533.925 619.837C527.78 616.349 527.176 615.789 527.176 613.578C527.176 611.216 529.23 610.716 544.203 609.43C549.453 608.978 555.303 608.387 557.202 608.117C566.161 606.838 566.524 606.926 580.714 613.862L593.478 620.099L598.122 619.829C600.676 619.682 605.9 619.184 609.731 618.723C621.557 617.302 624.843 616.914 627.933 616.576C629.573 616.396 631.036 616.053 631.183 615.815C631.332 615.575 622.937 611.196 612.527 606.084L593.603 596.789L589.67 596.854C587.508 596.889 584.229 597.106 582.385 597.334ZM403.168 604.914C401.637 607.929 398.701 618.169 398.701 620.489C398.701 622.195 425.413 633.359 445.654 640.114C461.555 645.419 485.213 651.997 488.397 651.997C489.559 651.997 489.699 651.393 490.538 642.784C491.268 635.291 491.397 635.808 488.608 635.003C484.506 633.821 459.18 625.385 453.136 623.189C450.014 622.054 445.486 620.409 443.074 619.534C440.662 618.658 438.224 617.729 437.657 617.468C437.089 617.209 433.839 615.906 430.433 614.574C427.028 613.243 423.567 611.83 422.744 611.435C421.92 611.042 421.065 610.72 420.844 610.72C420.625 610.72 418.976 610.045 417.183 609.222C415.39 608.398 412.413 607.089 410.569 606.313C408.724 605.538 406.467 604.586 405.552 604.198C403.953 603.521 403.861 603.548 403.168 604.914ZM647.396 624.473C640.817 625.357 635.552 626.063 630.885 626.685C628.757 626.967 624.461 627.558 621.34 627.998C618.218 628.437 613.807 629.04 611.537 629.338C609.266 629.636 605.435 630.155 603.023 630.49L598.637 631.1L598.203 638.472C597.602 648.667 596.519 647.767 607.667 646.355C609.795 646.085 614.555 645.497 618.244 645.047C621.933 644.598 626.693 644.012 628.821 643.746C641.379 642.178 645.947 641.632 648.944 641.343C653.742 640.882 653.588 641.189 653.588 632.124C653.588 622.956 654.086 623.572 647.396 624.473ZM524.339 637.115C502.075 637.621 504.27 636.794 503.69 644.9C502.985 654.756 502.703 653.751 506.28 654.134C516.736 655.251 547.584 653.996 549.193 652.388C549.648 651.932 549.976 649.266 550.21 644.117L550.555 636.518L546.992 636.599C545.033 636.644 534.839 636.876 524.339 637.115ZM441.032 655.944C440.709 657.604 440.326 659.659 440.181 660.51C440.037 661.361 439.718 662.522 439.473 663.09C439.228 663.657 438.611 665.27 438.104 666.672C435.46 673.988 425.879 683.876 420.008 685.349C418.308 685.776 418.4 685.996 422.927 692.386C432.077 705.297 446.493 717.078 464.229 726.136C470.833 729.507 481.21 733.736 481.695 733.252C481.867 733.079 482.41 728.019 482.902 722.007C487.611 664.367 487.583 664.782 486.895 664.358C486.524 664.128 484.231 663.552 481.803 663.078C472.339 661.231 463.931 659.166 453.394 656.101C440.474 652.344 441.732 652.359 441.032 655.944ZM640.946 653.31C640.663 653.418 636.599 653.884 631.917 654.344C607.718 656.719 597.874 658.027 597.595 658.903C597.495 659.219 597.035 665.973 596.574 673.911C596.113 681.849 595.518 688.604 595.255 688.923C594.97 689.266 590.934 689.755 585.355 690.124C580.174 690.466 573.265 690.958 570.001 691.219C566.738 691.481 560.643 691.848 556.457 692.037L548.847 692.381V664.251L547.17 664.603C542.102 665.666 534.898 666.072 518.663 666.214L500.604 666.371L499.995 674.534C499.661 679.023 499.14 685.831 498.838 689.662C498.535 693.493 497.939 701.039 497.515 706.431C497.089 711.823 496.508 719.485 496.222 723.458C495.939 727.431 495.562 731.357 495.387 732.184L495.068 733.688L509.961 733.355C527.222 732.971 544.335 731.985 566.39 730.106C590.474 728.054 616.736 724.857 633.723 721.91C641.232 720.607 640.451 721.671 641.199 711.713C642.576 693.435 645.603 670.631 648.202 658.962C649.693 652.275 650.04 653.023 645.471 653.07C643.266 653.092 641.23 653.2 640.946 653.31Z" fill="#B58C62" stroke="#B58C62" stroke-width="0.00890822" stroke-miterlimit="2" stroke-linejoin="round"/>
<path fill-rule="evenodd" clip-rule="evenodd" d="M467.841 255.783C436.26 258.819 387.835 284.277 373.498 305.382C366.072 316.313 363.379 339.094 366.456 364.96L367.327 372.28L363.982 377.608C362.143 380.539 359.079 385.899 357.174 389.518C354.206 395.159 353.369 396.33 351.312 397.725C288.327 440.388 255.149 518.691 267.429 595.7L268.694 603.639L266.839 608.599C264.975 613.583 263.894 615.363 262.731 615.363C260.212 615.363 254.908 624.6 251.355 635.178C248.194 644.591 248.138 644.442 256.862 650.25C259.672 652.121 261.968 653.801 261.965 653.985C261.962 654.169 261.618 655.596 261.201 657.156C255.694 677.772 257.223 700.144 265.142 714.815C268.253 720.581 267.747 720.553 271.987 715.202C276.207 709.879 276.797 709.773 278.432 714.041C283.157 726.383 292.859 739.564 302.724 747.044L306.071 749.581L306.42 748.129C306.612 747.33 307.035 743.557 307.359 739.745C308.173 730.154 307.737 730.334 315.756 736.273C356.285 766.29 388.246 773.938 406.024 757.876L407.97 756.118L416.363 758.204C447.282 765.884 475.655 766.612 506.538 760.516C523.104 757.246 535.396 753.052 557.372 743.171C574.044 735.677 582.883 735.613 599.741 742.866C632.223 756.839 664.081 745.371 678.096 714.657C686.312 696.652 684.92 689.38 668.575 664.879C660.743 653.137 660.424 652.375 663.008 651.522C665.939 650.555 666.061 649.951 665.463 639.469C664.148 616.462 663.892 613.622 663.046 612.687C662.505 612.09 662.33 611.288 662.531 610.347C662.699 609.559 663.203 607.288 663.649 605.302C668.695 582.899 669.296 553.049 665.191 528.939C656.4 477.333 626.714 430.05 583.809 399.32C581.025 397.327 578.184 394.822 577.439 393.706C576.701 392.6 574.986 390.532 573.628 389.113C571.414 386.802 571.12 386.212 570.79 383.438C570.086 377.501 569.88 377.986 573.613 376.761C599.106 368.391 596.714 335.268 569.35 317.699C567.199 316.318 565.784 315.039 565.66 314.363C563.659 303.499 560.727 296.228 556.459 291.547C546.183 280.274 513.421 263.263 491.575 257.858C481.661 255.405 476.481 254.952 467.841 255.783ZM483.712 263.758C503.023 266.824 526.347 276.963 543.72 289.844C551.903 295.912 553.729 298.16 556.327 305.362C558.46 311.275 558.31 311.373 551.344 308.618C534.835 302.089 508.695 298.999 491.833 301.581C458.005 306.763 432.132 321.488 413.944 345.913C409.168 352.327 409.25 352.464 409.435 338.501C409.881 304.645 411.612 298.4 423.805 286.667C442.043 269.114 464.166 260.654 483.712 263.758ZM529.756 312.024C559.332 316.758 579.041 331.076 583.112 350.785C584.58 357.892 584.1 358.964 581.602 354.16C561.914 316.329 511.809 317.092 460.999 356.001C450.388 364.126 449.769 364.534 445.466 366.234C438.806 368.864 425.845 368.566 420.408 365.656C418.954 364.878 419.05 364.253 421.15 360.765C440.937 327.906 490.37 305.72 529.756 312.024ZM521.327 348.395C536.132 350.373 547.13 356.386 554.285 366.412C560.505 375.129 563.246 386.822 560.636 393.499C557.898 400.497 558.946 411.964 563.143 420.976C565.136 425.256 565.121 426.128 563.074 424.787C556.28 420.335 550.83 408.757 551.774 400.784C552.389 395.59 550.207 396.573 545.468 403.619C542.141 408.569 540.558 410.01 538.447 410.01C535.744 410.01 535.575 408.454 537.424 400.533C539.896 389.937 539.56 383.715 536.325 380.213C534.668 378.42 534.563 378.658 534.269 384.856C533.529 400.413 522.595 414.393 515.567 408.765L514.02 407.525L514.007 396.255C513.994 385.034 513.987 384.973 512.561 381.89C510.399 377.221 507.446 375.376 508.562 379.39C511.067 388.414 507.374 400.889 499.748 409.163C496.421 412.771 496.121 412.709 495.26 408.253C494.33 403.429 490.281 396.079 488.555 396.079C488.371 396.079 488.194 399.387 488.162 403.431C488.064 415.756 485.296 422.856 476.331 433.779C465.881 446.509 463.936 450.639 464.349 459.209C464.589 464.218 464.523 464.632 462.579 470.361C450.072 507.215 453.471 532.145 473.585 551.078C497.516 573.608 546.333 586.231 562.558 574.086C569.344 569.007 571.813 559.119 573.395 530.682C573.812 523.185 573.868 523.084 576.921 524.251C587.156 528.159 598.307 540.447 602.336 552.254C604.041 557.255 604.014 557.306 600.005 556.518C596.365 555.802 583.702 556.052 582.898 556.856C582.532 557.222 583.32 559.394 585.415 563.802C588.695 570.701 591.025 577.146 591.51 580.665L591.813 582.858L588.517 582.84C583.897 582.814 578.22 581.712 572.814 579.789C566.422 577.516 566.39 577.507 566.39 578.152C566.39 579.103 569.927 582.716 572.362 584.255C573.617 585.047 574.644 585.957 574.644 586.277C574.648 588.167 545.224 589.139 535.432 587.573C520.685 585.214 507.833 580.698 497.751 574.335C488.777 568.67 499.583 580.758 509.126 587.058C511.311 588.501 509.778 588.795 505.099 587.833C493.329 585.409 480.629 578.513 472.243 569.992C468.607 566.299 468.113 566.161 468.561 568.965C469.425 574.369 474.76 581.354 481.417 585.799L485.126 588.275L481.772 588.439C465.906 589.213 450.182 573.481 446.143 552.792C445.355 548.755 444.542 548.534 443.965 552.2C443.427 555.61 443.904 561.885 445.425 571.394C447.673 585.45 446.54 590.081 440.855 590.081C431.906 590.081 427.218 576.805 426.712 550.041C426.472 537.383 426.704 531.539 427.918 519.652L428.235 516.556L427.125 517.619C424.621 520.016 421.742 529.748 420.419 540.291C417.574 562.938 415.815 570.326 411.561 577.489C409.511 580.942 404.163 586.824 401.845 588.176L400.247 589.108L399.718 587.66C399.428 586.863 398.971 585.631 398.705 584.921C397.738 582.347 397.239 574.419 397.732 569.445C398.442 562.278 399.731 556.347 404.572 537.969C408.391 523.469 409.803 513.748 409.367 504.947C408.901 495.563 407.614 492.675 406.722 499.013C403.175 524.26 385.067 558.29 369.79 568.426C366.09 570.881 365.894 570.726 365.132 564.745C363.763 554 365.85 539.342 373.173 508.301C380.065 479.083 381.804 461.903 378.834 452.344C377.784 448.962 377.428 449.358 376.257 455.2C369.142 490.692 356.761 519.701 343.897 531.025C338.389 535.874 337.535 535.415 340.292 529.089C348.107 511.158 351.829 492.534 355.121 454.899C358.78 413.047 362.82 400.09 376.124 387.533C386.378 377.856 397.041 374.893 415.986 376.457C446.428 378.968 452.005 377.678 475.112 362.778C491.098 352.469 497.572 349.612 507.828 348.335C514.778 347.471 514.405 347.47 521.327 348.395ZM447.772 381.901C426.312 387.91 418.178 423.07 434.792 438.007C455.892 456.979 484.942 421.686 471.215 393.757C466.574 384.315 456.803 379.373 447.772 381.901ZM461.52 397.955C464.989 401.77 460.344 409.948 455.989 407.696C453.992 406.664 453.394 405.46 453.394 402.482C453.394 397.113 458.28 394.391 461.52 397.955ZM574.848 407.214C575.712 409.465 574.676 406.766 574.848 407.214V407.214ZM460.905 411.272C462.123 413.131 460.968 415.427 458.817 415.427C456.746 415.427 455.901 413.305 457.19 411.34C458.288 409.664 459.833 409.637 460.905 411.272ZM542.801 419.462C545.22 420.88 547.174 423.273 546.444 423.921C545.817 424.479 536.292 425.534 535.916 425.089C534.343 423.227 532.476 418.846 533.016 418.286C534.082 417.179 540.152 417.909 542.801 419.462ZM517.941 419.378C521.706 420.662 527.453 425.767 524.01 424.77C516.403 422.568 510.591 422.557 504.433 424.729C501.415 425.794 501.242 425.222 503.873 422.876C507.807 419.373 513.656 417.918 517.941 419.378ZM548.641 432.169C562.714 433.787 572.18 442.088 573.857 454.283C574.302 457.512 574.393 457.5 568.912 454.942C563.28 452.315 559.338 451.568 553.212 451.97L548.372 452.288L548.051 450.368C546.772 442.709 543.359 436.793 538.855 434.432C536.46 433.175 537.655 432.546 543.945 431.752C544.229 431.718 546.342 431.905 548.641 432.169ZM524.814 435.751C532.024 438.332 536.712 443.227 538.754 450.305C539.882 454.216 539.743 454.398 534.084 456.333C531.362 457.264 524.922 460.014 519.771 462.443C507.357 468.299 502.533 469.895 496.183 470.245C490.15 470.577 489.314 469.932 493.706 468.33C495.343 467.733 496.73 467.167 497.854 466.643C502.664 464.408 502.702 462.976 497.185 463.445C482.303 464.712 474.844 461.981 474.844 455.267C474.844 442.188 507.343 429.495 524.814 435.751ZM559.003 463.46C588.833 468.737 608.953 496.68 602.98 524.536C602.222 528.063 601.695 527.923 596.155 522.708C576.189 503.913 550.127 497.485 520.985 504.168C503.231 508.239 495.691 507.821 491.026 502.509C488.346 499.457 489.127 498.394 495.187 496.839L496.993 496.374L495.723 495.683C490.302 492.729 480.58 497.03 478.434 503.332C476.639 508.596 477.923 514.086 479.939 509.773C483.197 502.802 485.048 504.465 494.671 523.006C507.478 547.682 521.629 559.637 538.27 559.838C548.053 559.957 554.185 556.298 556.547 548.936C557.837 544.917 557.824 546.023 556.788 527.038C556.152 515.385 558.127 513.17 564.407 518.49L565.78 519.652L565.386 536.937C564.947 556.239 564.411 559.741 561.039 565.356C551.676 580.949 507.011 570.962 482.528 547.802C463.293 529.605 459.959 504.781 472.727 474.838C473.689 472.583 472.969 472.588 480.998 474.784C485.369 475.98 487.183 476.196 492.865 476.207C502.835 476.225 505.87 475.43 523.049 468.308C537.909 462.148 545.67 461.1 559.003 463.46ZM526.35 476.275C524.114 477.247 521.501 481.312 521.501 483.817C521.501 485 521.678 485.04 523.088 484.179C524.015 483.613 524.27 483.707 525.188 484.953C526.443 486.66 528.071 486.777 529.955 485.295C535.506 480.929 532.565 473.569 526.35 476.275ZM533.095 520.51C541.775 523.831 548.695 537.192 545.749 544.942L545.229 546.307L542.845 544.208C536.846 538.927 529.568 537.48 518.367 539.34L513.215 540.196L511.631 538.695C509.411 536.591 507.516 533.743 504.416 527.843C502.944 525.041 501.426 522.381 501.043 521.934C497.006 517.209 512.296 518.875 523.178 524.345C526.182 525.854 527.693 526.381 527.693 525.918C527.693 525.166 525.011 521.259 524.114 520.705C520.651 518.565 527.617 518.412 533.095 520.51ZM341.946 549.778C345.019 550.624 352.541 569.835 355.099 583.374C356.362 590.062 356.368 590.081 357.075 590.081C359.653 590.081 370.193 583.697 375.318 579.032C377.071 577.436 378.628 576.328 378.778 576.571C378.927 576.813 380.346 580.925 381.929 585.708C383.513 590.491 385.872 596.666 387.172 599.43C388.985 603.283 389.475 604.854 389.274 606.169C389.129 607.11 388.714 609.971 388.35 612.525C387.988 615.08 387.621 617.258 387.537 617.367C387.455 617.475 386.045 616.338 384.407 614.84C379.136 610.024 370.711 604.528 368.598 604.528C367.552 604.528 367.542 604.298 368.727 607.737C374.356 624.099 368.902 645.537 356.393 656.221C345.493 665.53 333.566 667.459 315.791 662.787C297.45 657.966 262.487 641.407 262.487 637.539C262.487 635.338 264.373 630.673 265.809 629.324L267.056 628.153L269.836 629.467C284.137 636.233 304.234 641.191 321.307 642.166C331.487 642.748 331.802 642.35 323.371 639.55C302.953 632.771 275.418 621.004 274.524 618.676C274.285 618.05 276.631 611.999 277.551 610.868C277.934 610.397 279.696 611.063 284.699 613.57C296.026 619.246 316.684 627.227 318.343 626.567C318.961 626.322 330.606 600.199 330.598 599.077C330.596 598.775 329.724 598.12 328.659 597.622C321.166 594.112 302.063 582.685 298.091 579.336L296.288 577.815L298.343 574.79C309.102 558.949 330.554 546.642 341.946 549.778ZM605.722 570.919C617.003 575.806 631.196 592.022 633.271 602.396C633.719 604.635 634.001 604.723 619.93 598.268C605.169 591.497 606.27 592.346 604.784 586.609C604.133 584.092 602.425 579.143 600.991 575.608C597.425 566.83 597.077 567.176 605.722 570.919ZM295.277 584.576C300.452 588.34 308.819 593.191 316.534 596.897C320.578 598.841 323.887 600.624 323.887 600.86C323.887 601.096 322.914 603.353 321.726 605.876C320.538 608.398 318.708 612.667 317.658 615.363C316.559 618.187 315.42 620.331 314.971 620.421C311.893 621.039 282.31 607.125 279.498 603.735C278.091 602.04 289.258 582.342 291.626 582.342C291.945 582.342 293.588 583.346 295.277 584.576ZM613.166 605.547C634.11 615.863 634.829 616.358 629.811 617.025C621.323 618.153 609.078 619.581 599.381 620.572L593.933 621.128L580.548 614.573L567.164 608.016L557.877 608.876C533.008 611.178 529.756 611.592 528.646 612.596C526.64 614.411 527.53 615.334 535.84 620.046C539.129 621.911 541.904 623.685 542.004 623.986C542.2 624.576 525.857 625.283 509.892 625.374L501.12 625.425L493.639 622.686C485.538 619.721 477.934 617.034 472.226 615.12C470.24 614.454 465.248 612.707 461.133 611.239C457.018 609.772 453.071 608.38 452.362 608.146C450.353 607.485 433.637 601.575 432.629 601.17C430.178 600.184 435.269 600.043 474.142 600.016C497.209 599.999 522.352 599.726 530.014 599.407C556.543 598.304 573.878 597.333 585.481 596.3C587.893 596.084 590.636 595.874 591.578 595.833C592.85 595.776 598.382 598.266 613.166 605.547ZM409.577 605.096C420.784 609.972 444.679 619.575 449.266 621.045C449.976 621.272 453.226 622.423 456.49 623.602C463.799 626.241 471.685 628.882 482.804 632.411C491.571 635.193 492.189 635.526 491.847 637.288C491.736 637.858 491.36 641.538 491.011 645.466C490.256 653.978 490.738 653.591 483.169 651.747C458.215 645.666 425.583 634.555 406.699 625.708C403.861 624.378 400.785 622.96 399.862 622.555C397.444 621.493 397.587 618.801 400.564 609.43C402.9 602.073 402.773 602.135 409.577 605.096ZM576.646 616.822C586.15 621.601 589.99 623.989 592 626.373L593.377 628.004L593.007 645.031C592.601 663.714 591.599 684.751 591.092 685.257C590.914 685.434 585.806 685.914 579.741 686.323C573.674 686.733 565.926 687.29 562.52 687.561C554.782 688.176 554.838 688.22 555.332 681.858C556.193 670.766 555.862 630.693 554.89 628.54C553.313 625.043 549.262 621.893 540.995 617.733C536.13 615.285 536.206 615.118 542.52 614.362C566.541 611.491 565.958 611.448 576.646 616.822ZM654.306 623.919C654.479 624.368 654.62 628.306 654.62 632.673C654.62 642.003 655.158 641.267 647.654 642.177C644.816 642.52 640.869 643.003 638.883 643.251C636.896 643.499 632.253 644.069 628.564 644.519C624.874 644.969 620.115 645.55 617.986 645.81C615.858 646.071 611.098 646.64 607.409 647.076C603.72 647.51 600.1 647.994 599.365 648.149C597.178 648.611 596.974 647.737 597.232 639C597.505 629.759 597.007 630.557 603.007 629.75C610.225 628.777 624.58 626.828 629.08 626.209C630.782 625.974 635.078 625.386 638.625 624.901C642.172 624.416 646.351 623.843 647.912 623.629C652.671 622.974 653.967 623.033 654.306 623.919ZM551.164 644.128C550.96 648.598 550.582 652.517 550.325 652.835C548.372 655.267 504.781 656.603 502.48 654.302C502.081 653.903 503.468 637.835 503.943 637.36C504.362 636.94 524.838 636.279 543.355 636.087L551.535 636.002L551.164 644.128ZM428.83 645.59C429.576 647.532 429.123 654.983 428.063 658.232C424.831 668.131 415.303 676.496 404.635 678.799C400.109 679.776 400.1 680.119 404.378 688.695C414.353 708.688 435.062 726.873 458.414 736.145C464.545 738.579 464.704 738.826 461.458 740.875C448.751 748.904 423.249 745.455 401.41 732.754C396.937 730.154 397.132 731.486 401.926 736.27C407.407 741.74 414.454 745.76 422.931 748.255C429.92 750.311 427.971 751.321 417.018 751.319C401.586 751.316 385.16 746.284 368.663 736.508C364.113 733.811 363.586 734.133 366.184 738.023C369.851 743.513 377.05 749.137 384.122 752.036C390.126 754.497 388.362 755.961 379.869 755.565C362.496 754.757 328.554 736.47 309.168 717.475C304.726 713.123 305.352 712.398 301.187 726.715C299.922 731.063 299.559 731.138 297.164 727.551C292.221 720.148 285.593 703.834 284.13 695.467C283.297 690.698 283.38 690.677 276.676 697.402C270.167 703.93 269.996 703.997 268.984 700.368C265.659 688.45 266.087 673.662 270.082 662.396C271.798 657.563 271.907 657.54 278.148 660.633C296.55 669.754 317.752 675.976 341.172 679.13C348.453 680.11 348.026 679.833 348.69 684.026C349.333 688.092 351.566 692.963 353.82 695.222C356.046 697.449 356.124 697.284 356.198 690.264C356.457 665.639 370.122 654.041 401.023 652.223C410.462 651.667 417.303 649.977 423.966 646.556C427.825 644.573 428.397 644.46 428.83 645.59ZM444.217 652.728C447.32 653.756 453.454 655.54 457.751 656.665C459.753 657.19 462.784 657.988 464.487 658.441C468.323 659.459 477.567 661.541 483.062 662.623C488.259 663.647 488.566 663.901 488.232 666.9C488.086 668.21 487.619 673.809 487.192 679.343C486.766 684.877 486.187 692.074 485.905 695.338C485.623 698.601 485.044 705.567 484.619 710.817C483.121 729.317 482.641 734.075 482.249 734.316C480.868 735.171 461.752 726.334 452.878 720.739C440.455 712.905 429.365 702.761 422.129 692.607C417.036 685.462 417.124 685.847 420.243 684.412C430.637 679.629 437.924 669.65 439.959 657.414C440.555 653.835 441.19 651.997 441.83 651.997C441.926 651.997 443.001 652.326 444.217 652.728ZM650.208 652.471C650.37 652.732 650.059 654.88 649.516 657.244C646.479 670.484 643.453 693.577 641.563 717.942C641.285 721.52 641.274 721.527 634.711 722.664C599.532 728.761 527.592 735.106 501.12 734.447L494.929 734.293L494.987 730.939C495.019 729.095 495.304 724.335 495.619 720.362C495.935 716.389 496.77 705.825 497.473 696.886C499.709 668.473 499.903 666.228 500.136 665.849C500.263 665.645 505.76 665.605 512.353 665.76C521.47 665.974 526.809 665.825 534.658 665.136C540.334 664.638 546.022 664.206 547.299 664.176L549.621 664.122L549.759 677.964L549.896 691.806L553.113 691.512C554.881 691.351 562.249 690.855 569.486 690.412C588.481 689.248 593.793 688.78 594.358 688.215C594.633 687.94 595.219 681.245 595.661 673.338C596.569 657.107 596.378 657.712 600.802 657.079C605.487 656.408 622.157 654.534 632.691 653.493C635.813 653.185 639.992 652.755 641.979 652.54C647.322 651.961 649.879 651.939 650.208 652.471ZM663.213 674.341C674.174 688.127 675.135 699.68 666.705 716.288C657.517 734.388 634.306 744.045 613.966 738.23C606.834 736.19 607.503 735.952 629.338 732.755C652.076 729.427 651.448 730.036 654.099 708.753C659.591 664.652 658.571 668.502 663.213 674.341Z" fill="#222328"/>
<path d="M458.073 407.586C460.662 407.586 462.76 404.861 462.76 401.498C462.76 398.136 460.662 395.41 458.073 395.41C455.484 395.41 453.385 398.136 453.385 401.498C453.385 404.861 455.484 407.586 458.073 407.586Z" fill="white"/>
<path d="M458.995 415.561C460.212 415.561 461.199 414.222 461.199 412.57C461.199 410.918 460.212 409.579 458.995 409.579C457.778 409.579 456.791 410.918 456.791 412.57C456.791 414.222 457.778 415.561 458.995 415.561Z" fill="white"/>
</svg>
