<?xml version="1.0" encoding="UTF-8" standalone="no"?>
<!DOCTYPE svg PUBLIC "-//W3C//DTD SVG 1.1//EN" "http://www.w3.org/Graphics/SVG/1.1/DTD/svg11.dtd">
<svg width="100%" height="100%" viewBox="0 0 3508 2481" version="1.1" xmlns="http://www.w3.org/2000/svg" xmlns:xlink="http://www.w3.org/1999/xlink" xml:space="preserve" xmlns:serif="http://www.serif.com/" style="fill-rule:evenodd;clip-rule:evenodd;stroke-linejoin:round;stroke-miterlimit:2;">
    <path d="M1114.22,1249.81C1068.07,1219.87 932.163,1350.55 932.163,1350.55L828.023,1545.51C899.075,1615.01 997.235,1646.04 1118.18,1644.73L1251.98,1526.29L1272.61,1353.57C1272.61,1353.57 1160.37,1279.75 1114.22,1249.81Z" style="fill:rgb(252,252,98);"/>
    <g transform="matrix(4.52831,0,0,4.36903,677.951,113.794)">
        <path d="M57.312,287.3C55.859,288.881 53.207,293.265 50.872,297.946L48.605,302.492L49.95,303.615C55.151,307.957 76.808,317.199 77.446,315.349C78.308,312.848 80.78,306.947 82.079,304.287C82.916,302.575 83.6,301.022 83.6,300.835C83.6,300.648 80.312,298.863 76.292,296.867C72.273,294.872 66.68,291.7 63.864,289.82C58.087,285.961 58.424,286.091 57.312,287.3Z" style="fill:rgb(1,95,61);"/>
    </g>
    <path d="M1532.37,495.817L1340.44,638.02C1331.43,679.083 1356.04,700.364 1441.59,685.772L1761.31,557.757L1854.54,642.652C1876,656.273 1893.47,658.376 1899.9,628.663L1892.42,572.913L1833.6,527.865L1746.16,492.687L1657.85,478.349L1576.62,485.452L1532.37,495.817Z" style="fill:rgb(1,95,61);"/>
    <path d="M1512.2,1001.97L1788.12,968.63L2017.6,1073.06C1991.43,1167.76 1939.39,1236.87 1864.61,1283.48L1803.07,1370.52L1628.45,1334.51L1508.04,1226.94C1480.27,1144.54 1486.21,1070.7 1512.2,1001.97Z" style="fill:rgb(236,163,49);"/>
    <g transform="matrix(4.16667,0,0,4.16667,697.886,174.247)">
        <path d="M161.406,336.474C155.7,339.415 150.901,340.454 139.5,341.22C119.538,342.56 109.264,352.295 109.052,370.071C108.986,375.687 108.879,376.006 107.394,375.033C105.182,373.583 102.41,367.814 102.394,364.627C102.384,362.743 102.004,362.467 98.787,362.014C91.811,361.031 89.587,360.67 85.8,359.905C83.6,359.461 81.35,359.01 80.8,358.904C72.563,357.313 56.78,351.798 48.307,347.551C43.392,345.087 43.583,345.057 42.304,348.5C39.158,356.975 38.839,371.337 41.633,378.688C42.036,379.746 42.054,379.733 46.565,375.235C52.134,369.682 52.295,369.666 53.279,374.557C54.801,382.126 61.1,396.943 64.254,400.373C64.769,400.934 66.169,397.081 67.988,390.1C68.6,387.751 69.114,387.894 73.137,391.527C91.284,407.914 115.154,420.504 127.8,420.357C133.324,420.293 133.901,419.743 130.025,418.236C124.842,416.221 117.858,410.506 115.408,406.274C113.718,403.353 114.487,403.074 118.076,405.306C126.317,410.43 135.916,414.219 145.228,416.025C154.162,417.756 167.605,417.389 160.9,415.596C154.607,413.913 148.66,410.571 144.184,406.2C138.429,400.58 138.8,399.849 145.528,403.549C161.066,412.095 178.649,414.679 188.447,409.857C192.069,408.074 191.95,407.705 187.105,405.705C167.29,397.526 150.253,381.388 143.652,364.544C142.634,361.946 142.975,361.434 146.148,360.796C157.466,358.519 166.359,347.321 164.862,337.233C164.533,335.012 164.331,334.967 161.406,336.474Z" style="fill:rgb(198,198,198);stroke:rgb(198,198,198);stroke-width:0.95px;"/>
    </g>
    <g transform="matrix(4.16667,0,0,4.16667,697.886,174.247)">
        <path d="M343.262,358.9C342.714,362.774 341.268,373.98 339.792,385.8C337.883,401.077 338.229,400.778 319.2,403.583C304.05,405.816 304.237,405.743 309.993,407.155C328.078,411.59 346.117,401.533 351.521,384C355.039,372.586 353.64,366.648 344.956,356.137C344.077,355.074 343.721,355.653 343.262,358.9Z" style="fill:rgb(198,198,198);stroke:rgb(198,198,198);stroke-width:2px;"/>
    </g>
    <g transform="matrix(4.16667,0,0,4.16667,697.886,174.247)">
        <path d="M226.391,101.908C218.808,102.689 212.228,109.063 199.906,117.136C185.156,126.799 178.241,128.759 163,127.599C139.169,125.785 132.096,127.394 123.165,136.665C113.692,146.497 110.827,156.492 107.989,189.6C106.734,204.234 105.138,216.382 103.547,223.4C101.632,231.852 99.025,240.145 96.659,245.312C94.673,249.648 95.529,249.5 100.204,244.7C110.154,234.484 118.655,214.168 123.595,188.8C124.939,181.899 125.28,181.59 126.693,186C129.044,193.341 127.362,207.515 120.996,234C116.244,253.77 114.151,273.884 116.592,276.325C117.162,276.895 120.099,274.717 124.031,270.807C134.763,260.136 144.447,239.763 147.612,221.2C148.224,217.609 148.57,217.08 149.143,218.863C151.327,225.663 150.486,237.042 146.759,251.119C143.876,262.008 142.124,269.427 141.639,272.8C140.603,280.013 140.77,284.57 142.235,289.084C143.02,291.504 143.243,291.48 146.315,288.655C152.207,283.236 155.494,274.819 157.194,260.8C158.01,254.063 158.817,248.666 159.423,245.891C161.086,238.267 165.371,231.24 164.632,237.348C160.596,270.711 166.238,296.655 176.387,291.407C178.694,290.214 178.929,286.134 177.249,276.4C176.133,269.931 175.855,264.69 176.488,262.033C177.198,259.052 177.786,259.069 178.377,262.086C181.674,278.931 191.215,289.258 205.1,291.01C207.771,291.347 207.76,290.919 205.049,289.052C200.051,285.609 195.879,279.847 195.309,275.599C195.004,273.326 195.743,273.511 198.613,276.425C205.842,283.768 220.566,291.153 226.557,290.442C226.754,290.419 225.674,289.481 224.157,288.359C219.52,284.925 215.6,280.64 215.6,279.004C215.6,278.156 216.097,278.326 218.948,280.15C231.266,288.029 250.965,292.203 268.63,290.676C277.928,289.872 278.32,289.734 275.945,288.1C273.747,286.588 271.2,283.824 271.2,282.952C271.2,282.187 271.56,282.257 276.439,283.975C283.158,286.34 290.806,287.259 290.795,285.7C290.781,283.571 287.769,275.384 285.143,270.338C283.688,267.54 283.555,267.074 284.066,266.562C284.859,265.769 292.851,265.374 296.787,265.934C300.471,266.458 300.332,266.646 299.011,262.911C295.856,253.997 288.223,245.508 280.151,241.937C277.759,240.879 277.714,240.951 277.422,246.299C276.066,271.119 273.772,278.385 266.196,281.853C252.063,288.324 220.4,277.632 203.415,262.702C185.84,247.254 182.745,233.65 192.688,203.739C194.382,198.643 194.241,195.683 193.999,192.535C193.551,186.709 194.739,182.73 199.265,177.198C210.318,163.69 212.799,158.342 212.536,147.379C212.41,142.08 210.444,142.428 212.567,144.907C214.431,147.085 214.628,149.29 215.281,152.454C215.565,153.829 217.468,154 217.599,154C218.787,154 225.053,148.917 226.611,144.988C228.626,139.906 230.205,133.515 226.158,127.854C225.742,127.272 226.791,128.013 227.885,128.924C231.292,131.757 229.247,130.594 229.268,140.637C229.291,151.591 231.439,154.083 235.322,153.684C241.017,153.099 248.484,143.362 248.242,133.984C248.134,129.782 246.458,129.966 248.325,131.456C251.28,133.814 249.324,137.33 247.201,146.019C245.352,153.586 251.325,157.397 255.333,151.506C260.275,144.242 259.989,140.798 259.383,145.632C258.771,150.517 260.589,158.663 264.579,162.752C267.706,165.957 273.68,164.616 272.017,160.985C268.956,154.306 267.682,145.31 269.745,140.035C272.483,133.035 270.338,120.587 262.476,113.73C255.096,107.293 237.478,100.766 226.391,101.908Z" style="fill:rgb(198,198,198);stroke:rgb(198,198,198);stroke-width:4px;"/>
    </g>
    <g transform="matrix(4.16667,0,0,4.16667,697.886,174.247)">
        <path d="M224.234,170.589C208.301,173.08 194.714,185.663 201.138,191.655C203.77,194.11 207.318,195.794 215.159,195.516C219.011,195.38 218.728,194.205 218.728,194.422C218.728,194.991 216.738,196.679 214.043,197.692C210.184,199.143 212.369,199.762 217.06,199.504C222.011,199.231 225.979,197.958 234.232,193.995C240.174,191.142 250.476,188 251.387,188C255.581,188 249.151,178.362 243.599,174.799C239.349,172.072 231.284,169.486 224.234,170.589Z" style="fill:white;"/>
    </g>
    <g transform="matrix(4.16667,0,0,4.16667,697.886,174.247)">
        <path d="M251.604,168.598C248.608,169.024 248.031,171.44 249.768,172.72C253.597,175.54 256.402,178.213 257.381,184.077L257.628,185.554L261.714,185.333C266.626,185.068 269.533,186.746 273.655,188.822C277.339,190.677 278.353,189.885 278.52,187.123C279.267,174.797 264.996,166.549 251.604,168.598Z" style="fill:white;"/>
    </g>
    <path d="M1301.61,480.876C1331.3,385.942 1421.31,341.492 1537.62,319.062C1646.84,337.074 1776.13,402.322 1813.62,494.303L1663.19,474.24L1505.5,502.959L1291.36,667.414L1301.61,480.876Z" style="fill:rgb(252,252,98);"/>
    <g transform="matrix(4.16667,0,0,4.16667,697.886,174.247)">
        <path d="M187.713,130.831C201.692,135.502 205.378,156.489 194.699,170.6C182.564,186.633 162.414,178.145 162.414,157C162.414,140.449 175.619,126.79 187.713,130.831Z" style="fill:rgb(58,57,48);"/>
    </g>
    <g id="path5" transform="matrix(4.16667,0,0,4.16667,697.886,174.247)">
        <path d="M221.71,238.336C221.232,238.635 225.899,247.465 228.057,250.343C230.002,252.939 230.262,253.033 233.659,252.372C241.681,250.812 250.09,252.343 253.362,255.959C254.729,257.469 255.2,257.043 255.196,254.3C255.181,245.873 248.231,238 240.806,238L239.587,238L240.993,240.045C243.563,243.78 242.962,245.092 239.6,243.084C234.275,239.903 223.692,237.094 221.71,238.336" style="fill:rgb(216,175,202);stroke:rgb(216,175,202);stroke-width:9.5px;"/>
    </g>
    <path d="M1949.08,1308.71L2067.37,1406.6L2023.09,1457.26C1971.33,1432.04 1935.23,1402.32 1930.99,1363.41C1918.04,1334.52 1923.83,1326.01 1949.08,1308.71Z" style="fill:rgb(252,252,98);"/>
    <path d="M1617.17,827.85L1688.25,827.561L1716.41,819.61L1782.43,849.112L1729.88,877.513L1648.97,874.405L1611.06,866.014L1617.17,827.85Z" style="fill:rgb(236,163,49);"/>
    <g id="path7" transform="matrix(4.16667,0,0,4.16667,697.886,174.247)">
        <path d="M284,298.023C271.988,299.51 232.47,300.752 195.8,300.794C180.078,300.812 170.044,300.967 170.418,301.186C170.759,301.386 172.829,302.173 175.018,302.937C177.208,303.701 182.15,305.433 186,306.787C189.85,308.14 194.08,309.603 195.4,310.038C196.72,310.472 198.16,310.987 198.6,311.183C199.04,311.378 200.48,311.894 201.8,312.33C203.12,312.765 207.35,314.232 211.2,315.589C215.05,316.947 219.01,318.338 220,318.682C221.89,319.338 250.199,319.131 250.896,318.455C251.058,318.298 249.05,316.953 246.432,315.468C241.668,312.764 241.2,312.33 241.2,310.616C241.2,308.785 242.792,308.397 254.4,307.4C258.47,307.05 263.005,306.592 264.477,306.382C271.423,305.391 271.704,305.459 282.705,310.836L292.6,315.671L296.2,315.462C298.18,315.348 302.23,314.962 305.2,314.605C314.368,313.503 316.916,313.202 319.311,312.94C320.583,312.801 321.717,312.535 321.831,312.35C321.946,312.164 315.438,308.769 307.368,304.806L292.697,297.6L289.648,297.651C287.972,297.678 285.43,297.846 284,298.023M145.063,303.899C143.876,306.237 141.6,314.175 141.6,315.974C141.6,317.296 162.308,325.951 178,331.188C190.327,335.301 208.668,340.4 211.136,340.4C212.037,340.4 212.146,339.932 212.796,333.258C213.362,327.449 213.462,327.85 211.3,327.226C208.12,326.309 188.486,319.769 183.8,318.067C181.38,317.187 177.87,315.912 176,315.233C174.13,314.554 172.24,313.834 171.8,313.632C171.36,313.431 168.84,312.421 166.2,311.388C163.56,310.356 160.877,309.261 160.239,308.955C159.6,308.65 158.937,308.4 158.766,308.4C158.596,308.4 157.318,307.877 155.928,307.239C154.538,306.6 152.23,305.585 150.8,304.984C149.37,304.383 147.62,303.645 146.911,303.344C145.671,302.819 145.6,302.84 145.063,303.899M334.4,319.062C329.3,319.748 325.218,320.295 321.6,320.777C319.95,320.996 316.62,321.454 314.2,321.795C311.78,322.135 308.36,322.603 306.6,322.834C304.84,323.065 301.87,323.467 300,323.727L296.6,324.2L296.263,329.915C295.797,337.819 294.958,337.121 303.6,336.026C305.25,335.817 308.94,335.361 311.8,335.012C314.66,334.664 318.35,334.21 320,334.004C329.735,332.788 333.277,332.365 335.6,332.141C339.32,331.783 339.2,332.021 339.2,324.994C339.2,317.886 339.586,318.364 334.4,319.062M239,328.863C221.74,329.255 223.442,328.614 222.992,334.898C222.446,342.539 222.227,341.76 225,342.057C233.106,342.923 257.021,341.95 258.268,340.703C258.621,340.35 258.875,338.283 259.057,334.291L259.324,328.4L256.562,328.463C255.043,328.498 247.14,328.678 239,328.863M174.417,343.46C174.166,344.747 173.869,346.34 173.757,347C173.645,347.66 173.398,348.56 173.208,349C173.018,349.44 172.54,350.69 172.147,351.777C170.097,357.449 162.669,365.114 158.118,366.256C156.8,366.587 156.871,366.758 160.381,371.712C167.474,381.721 178.65,390.854 192.4,397.876C197.52,400.49 205.565,403.768 205.941,403.393C206.074,403.259 206.495,399.336 206.876,394.675C210.527,349.99 210.505,350.312 209.972,349.983C209.684,349.805 207.907,349.358 206.024,348.991C198.687,347.559 192.169,345.958 184,343.582C173.984,340.669 174.959,340.681 174.417,343.46M329.4,341.418C329.18,341.502 326.03,341.863 322.4,342.22C303.64,344.061 296.008,345.075 295.792,345.754C295.714,345.999 295.358,351.235 295,357.389C294.643,363.543 294.182,368.78 293.978,369.027C293.757,369.293 290.628,369.672 286.303,369.958C282.286,370.223 276.93,370.605 274.4,370.807C271.87,371.01 267.145,371.295 263.9,371.441L258,371.708L258,349.9L256.7,350.173C252.771,350.997 247.186,351.312 234.6,351.422L220.6,351.544L220.128,357.872C219.869,361.352 219.465,366.63 219.231,369.6C218.996,372.57 218.534,378.42 218.205,382.6C217.875,386.78 217.424,392.72 217.203,395.8C216.983,398.88 216.691,401.924 216.555,402.565L216.308,403.731L227.854,403.473C241.235,403.175 254.502,402.411 271.6,400.954C290.271,399.363 310.631,396.885 323.8,394.6C329.621,393.59 329.016,394.415 329.596,386.695C330.663,372.525 333.01,354.846 335.025,345.8C336.181,340.616 336.45,341.196 332.908,341.232C331.198,341.249 329.62,341.333 329.4,341.418" style="fill:rgb(181,140,98);stroke:rgb(181,140,98);stroke-width:7.5px;"/>
    </g>
    <g id="path0" transform="matrix(4.16667,0,0,4.16667,697.886,174.247)">
        <path d="M195.2,33.236C170.717,35.59 133.176,55.326 122.061,71.688C116.304,80.162 114.216,97.823 116.602,117.875L117.277,123.55L114.684,127.681C113.258,129.953 110.883,134.108 109.406,136.914C107.105,141.287 106.456,142.195 104.861,143.276C56.032,176.351 30.311,237.055 39.831,296.756L40.812,302.911L39.374,306.756C37.929,310.62 37.091,312 36.189,312C34.236,312 30.124,319.161 27.37,327.361C24.919,334.659 24.876,334.543 31.639,339.046C33.818,340.496 35.598,341.799 35.595,341.941C35.593,342.084 35.326,343.19 35.003,344.4C30.734,360.382 31.919,377.726 38.058,389.1C40.47,393.57 40.078,393.548 43.365,389.4C46.636,385.273 47.094,385.191 48.361,388.5C52.024,398.068 59.546,408.286 67.194,414.085L69.788,416.052L70.059,414.926C70.208,414.307 70.536,411.382 70.787,408.427C71.418,400.991 71.08,401.131 77.297,405.735C108.717,429.006 133.494,434.935 147.277,422.483L148.785,421.12L155.292,422.737C179.262,428.691 201.258,429.255 225.2,424.529C238.043,421.994 247.572,418.743 264.609,411.083C277.534,405.273 284.386,405.223 297.455,410.846C322.637,421.679 347.335,412.788 358.2,388.977C364.569,375.019 363.49,369.381 350.819,350.387C344.747,341.284 344.5,340.693 346.503,340.032C348.775,339.282 348.87,338.814 348.406,330.688C347.387,312.852 347.188,310.65 346.532,309.925C346.113,309.462 345.977,308.841 346.133,308.111C346.263,307.5 346.654,305.74 347,304.2C350.912,286.832 351.378,263.691 348.195,245C341.38,204.992 318.366,168.336 285.104,144.513C282.946,142.968 280.743,141.026 280.166,140.161C279.594,139.303 278.264,137.7 277.211,136.6C275.495,134.808 275.267,134.351 275.011,132.2C274.465,127.598 274.306,127.974 277.2,127.024C296.963,120.535 295.109,94.857 273.895,81.236C272.227,80.166 271.13,79.174 271.034,78.65C269.483,70.228 267.21,64.591 263.901,60.962C255.935,52.223 230.536,39.035 213.6,34.845C205.914,32.943 201.898,32.592 195.2,33.236M207.504,39.419C222.475,41.796 240.557,49.656 254.025,59.642C260.369,64.346 261.785,66.089 263.799,71.672C265.452,76.256 265.336,76.332 259.936,74.196C247.137,69.135 226.872,66.739 213.8,68.741C187.575,72.758 167.517,84.174 153.417,103.109C149.714,108.082 149.778,108.188 149.921,97.363C150.267,71.116 151.609,66.275 161.061,57.179C175.2,43.571 192.351,37.012 207.504,39.419M243.2,76.837C266.128,80.507 281.408,91.607 284.564,106.886C285.702,112.396 285.33,113.227 283.393,109.503C268.13,80.174 229.286,80.766 189.896,110.93C181.67,117.229 181.19,117.545 177.854,118.863C172.691,120.902 162.643,120.671 158.428,118.415C157.301,117.812 157.375,117.327 159.003,114.623C174.343,89.149 212.666,71.95 243.2,76.837M236.665,105.033C248.143,106.567 256.669,111.228 262.216,119.001C267.038,125.759 269.163,134.824 267.139,140C265.017,145.425 265.829,154.315 269.083,161.302C270.628,164.62 270.616,165.296 269.029,164.256C263.762,160.805 259.537,151.829 260.269,145.648C260.746,141.621 259.054,142.383 255.38,147.846C252.801,151.683 251.574,152.8 249.937,152.8C247.842,152.8 247.711,151.594 249.144,145.453C251.061,137.239 250.8,132.415 248.292,129.7C247.008,128.31 246.926,128.495 246.698,133.3C246.125,145.36 237.648,156.198 232.2,151.835L231,150.874L230.99,142.137C230.98,133.438 230.975,133.39 229.869,131C228.193,127.381 225.904,125.95 226.769,129.062C228.711,136.058 225.848,145.729 219.936,152.144C217.357,154.941 217.124,154.893 216.457,151.438C215.736,147.698 212.597,142 211.259,142C211.116,142 210.979,144.565 210.954,147.7C210.878,157.255 208.732,162.759 201.782,171.227C193.681,181.096 192.173,184.298 192.493,190.942C192.679,194.825 192.628,195.146 191.121,199.587C181.425,228.158 184.06,247.485 199.653,262.163C218.206,279.629 256.051,289.415 268.629,280C273.89,276.062 275.804,268.397 277.031,246.351C277.354,240.539 277.397,240.461 279.764,241.365C287.699,244.395 296.344,253.921 299.467,263.075C300.789,266.952 300.768,266.991 297.66,266.38C294.838,265.825 285.021,266.019 284.398,266.642C284.114,266.926 284.725,268.61 286.349,272.027C288.892,277.376 290.698,282.372 291.074,285.1L291.309,286.8L288.754,286.786C285.172,286.766 280.771,285.912 276.58,284.421C271.625,282.659 271.6,282.652 271.6,283.152C271.6,283.889 274.342,286.69 276.23,287.883C277.203,288.497 277.999,289.203 277.999,289.451C278.002,290.916 255.191,291.67 247.6,290.456C236.167,288.627 226.204,285.126 218.388,280.193C211.431,275.801 219.808,285.172 227.206,290.056C228.9,291.175 227.712,291.403 224.084,290.657C214.96,288.778 205.114,283.432 198.613,276.826C195.794,273.963 195.411,273.856 195.758,276.03C196.428,280.219 200.564,285.634 205.725,289.08L208.6,291L206,291.127C193.7,291.727 181.51,279.531 178.379,263.492C177.768,260.362 177.138,260.191 176.69,263.033C176.273,265.676 176.643,270.541 177.822,277.913C179.565,288.81 178.687,292.4 174.279,292.4C167.342,292.4 163.707,282.108 163.315,261.359C163.129,251.546 163.309,247.015 164.25,237.8L164.496,235.4L163.635,236.224C161.694,238.082 159.462,245.627 158.436,253.8C156.231,271.357 154.867,277.085 151.569,282.638C149.98,285.315 145.834,289.875 144.037,290.923L142.798,291.646L142.388,290.523C142.163,289.905 141.809,288.95 141.603,288.4C140.853,286.404 140.466,280.258 140.848,276.402C141.399,270.846 142.398,266.248 146.151,252C149.112,240.759 150.206,233.223 149.868,226.4C149.507,219.125 148.509,216.886 147.818,221.8C145.068,241.372 131.03,267.754 119.186,275.612C116.318,277.515 116.166,277.395 115.575,272.758C114.514,264.428 116.132,253.065 121.809,229C127.152,206.349 128.5,193.03 126.198,185.62C125.384,182.998 125.108,183.305 124.2,187.834C118.684,215.349 109.086,237.838 99.113,246.617C94.843,250.376 94.181,250.02 96.318,245.116C102.377,231.215 105.262,216.777 107.814,187.6C110.651,155.155 113.783,145.11 124.097,135.375C132.046,127.873 140.313,125.576 155,126.788C178.6,128.735 182.923,127.735 200.837,116.184C213.23,108.192 218.249,105.977 226.2,104.987C231.588,104.317 231.299,104.316 236.665,105.033M179.642,131.009C163.005,135.667 156.699,162.925 169.579,174.505C185.937,189.213 208.458,161.852 197.816,140.2C194.218,132.88 186.643,129.049 179.642,131.009M190.3,143.455C192.989,146.412 189.388,152.752 186.012,151.006C184.464,150.206 184,149.273 184,146.964C184,142.802 187.788,140.692 190.3,143.455M278.157,150.633C278.827,152.378 278.024,150.285 278.157,150.633M189.823,153.779C190.767,155.22 189.872,157 188.204,157C186.599,157 185.944,155.355 186.943,153.831C187.794,152.532 188.992,152.511 189.823,153.779M253.313,160.128C255.188,161.227 256.703,163.082 256.137,163.585C255.651,164.017 248.267,164.835 247.975,164.49C246.756,163.047 245.308,159.65 245.727,159.216C246.553,158.358 251.259,158.924 253.313,160.128M234.04,160.063C236.959,161.058 241.414,165.016 238.745,164.243C232.848,162.536 228.342,162.527 223.568,164.211C221.228,165.037 221.094,164.593 223.134,162.775C226.184,160.059 230.718,158.931 234.04,160.063M257.84,169.979C268.75,171.233 276.089,177.669 277.389,187.123C277.734,189.626 277.804,189.617 273.555,187.634C269.189,185.597 266.133,185.018 261.384,185.33L257.632,185.576L257.383,184.088C256.391,178.15 253.745,173.564 250.254,171.733C248.397,170.759 249.323,170.271 254.2,169.656C254.42,169.629 256.058,169.774 257.84,169.979M239.368,172.756C244.958,174.757 248.592,178.552 250.175,184.039C251.05,187.071 250.942,187.212 246.555,188.712C244.445,189.434 239.452,191.566 235.459,193.449C225.835,197.989 222.095,199.226 217.172,199.497C212.495,199.755 211.847,199.255 215.252,198.013C216.521,197.55 217.596,197.111 218.468,196.705C222.197,194.972 222.226,193.862 217.949,194.226C206.412,195.208 200.629,193.091 200.629,187.886C200.629,177.746 225.824,167.906 239.368,172.756M265.873,194.237C288.999,198.328 304.597,219.991 299.966,241.586C299.379,244.321 298.97,244.212 294.675,240.169C279.197,225.598 258.992,220.615 236.4,225.796C222.636,228.952 216.791,228.628 213.174,224.51C211.097,222.144 211.702,221.32 216.4,220.114L217.8,219.754L216.816,219.218C212.613,216.928 205.076,220.262 203.412,225.148C202.021,229.229 203.016,233.485 204.579,230.141C207.105,224.737 208.54,226.026 216,240.4C225.929,259.53 236.899,268.798 249.8,268.954C257.384,269.046 262.138,266.21 263.969,260.502C264.969,257.387 264.959,258.244 264.156,243.526C263.663,234.492 265.194,232.775 270.063,236.899L271.127,237.8L270.822,251.2C270.481,266.164 270.066,268.879 267.452,273.232C260.193,285.32 225.567,277.578 206.586,259.623C191.674,245.516 189.09,226.271 198.988,203.058C199.734,201.31 199.176,201.314 205.4,203.016C208.789,203.943 210.195,204.111 214.6,204.119C222.329,204.133 224.682,203.517 238,197.996C249.52,193.22 255.537,192.408 265.873,194.237M240.559,204.172C238.826,204.926 236.8,208.077 236.8,210.019C236.8,210.936 236.937,210.967 238.03,210.3C238.749,209.861 238.947,209.934 239.658,210.9C240.631,212.223 241.893,212.314 243.354,211.165C247.657,207.78 245.377,202.074 240.559,204.172M245.788,238.465C252.517,241.04 257.882,251.398 255.598,257.406L255.195,258.464L253.347,256.837C248.696,252.743 243.054,251.621 234.37,253.063L230.376,253.727L229.148,252.563C227.427,250.932 225.958,248.724 223.555,244.15C222.414,241.978 221.237,239.916 220.94,239.569C217.81,235.906 229.664,237.198 238.1,241.438C240.429,242.608 241.6,243.017 241.6,242.658C241.6,242.075 239.521,239.046 238.826,238.616C236.141,236.957 241.541,236.839 245.788,238.465M97.6,261.155C99.983,261.811 105.814,276.704 107.797,287.2C108.776,292.385 108.781,292.4 109.329,292.4C111.328,292.4 119.499,287.451 123.472,283.834C124.831,282.597 126.038,281.738 126.154,281.926C126.27,282.114 127.37,285.302 128.597,289.01C129.825,292.718 131.654,297.505 132.662,299.648C134.067,302.635 134.447,303.853 134.291,304.872C134.179,305.602 133.857,307.82 133.575,309.8C133.294,311.78 133.01,313.469 132.945,313.553C132.881,313.637 131.788,312.756 130.518,311.594C126.432,307.861 119.9,303.6 118.262,303.6C117.451,303.6 117.444,303.422 118.362,306.088C122.726,318.772 118.498,335.392 108.8,343.675C100.35,350.892 91.104,352.387 77.324,348.765C63.105,345.028 36,332.19 36,329.192C36,327.485 37.462,323.869 38.575,322.823L39.542,321.915L41.697,322.934C52.784,328.179 68.364,332.023 81.6,332.779C89.492,333.23 89.736,332.921 83.2,330.751C67.371,325.495 46.025,316.373 45.332,314.568C45.146,314.083 46.965,309.392 47.678,308.515C47.975,308.15 49.341,308.666 53.22,310.61C62.001,315.01 78.016,321.197 79.302,320.686C79.781,320.496 88.809,300.244 88.803,299.374C88.801,299.14 88.125,298.632 87.3,298.246C81.491,295.525 66.681,286.666 63.602,284.07L62.204,282.891L63.797,280.546C72.138,268.265 88.769,258.724 97.6,261.155M302.092,277.545C310.838,281.333 321.841,293.905 323.449,301.947C323.797,303.683 324.015,303.751 313.107,298.747C301.663,293.498 302.517,294.156 301.365,289.708C300.86,287.757 299.536,283.92 298.424,281.18C295.66,274.375 295.39,274.643 302.092,277.545M61.42,288.132C65.432,291.05 71.919,294.811 77.9,297.684C81.035,299.191 83.6,300.573 83.6,300.756C83.6,300.939 82.846,302.689 81.925,304.645C81.004,306.6 79.585,309.91 78.771,312C77.919,314.189 77.036,315.851 76.688,315.921C74.302,316.4 51.368,305.613 49.188,302.985C48.097,301.671 56.754,286.4 58.59,286.4C58.837,286.4 60.111,287.179 61.42,288.132M307.863,304.39C324.1,312.387 324.657,312.771 320.767,313.288C314.187,314.163 304.694,315.27 297.176,316.038L292.953,316.469L282.576,311.387L272.2,306.304L265,306.971C245.721,308.755 243.2,309.076 242.339,309.855C240.784,311.262 241.474,311.977 247.916,315.63C250.466,317.076 252.617,318.451 252.695,318.685C252.847,319.142 240.177,319.69 227.8,319.761L221,319.8L215.2,317.677C208.92,315.378 203.025,313.295 198.6,311.811C197.06,311.295 193.19,309.941 190,308.803C186.81,307.665 183.75,306.586 183.2,306.405C181.643,305.892 168.684,301.311 167.902,300.997C166.002,300.232 169.949,300.123 200.085,300.102C217.968,300.089 237.46,299.877 243.4,299.63C263.966,298.775 277.405,298.022 286.4,297.221C288.27,297.054 290.397,296.891 291.127,296.859C292.113,296.815 296.402,298.745 307.863,304.39M150.031,304.04C158.719,307.82 177.244,315.265 180.8,316.405C181.35,316.581 183.87,317.473 186.4,318.387C192.067,320.433 198.18,322.48 206.8,325.216C213.597,327.373 214.076,327.631 213.811,328.997C213.725,329.439 213.433,332.292 213.163,335.337C212.577,341.936 212.951,341.636 207.083,340.206C187.738,335.492 162.44,326.878 147.8,320.02C145.6,318.989 143.215,317.889 142.5,317.575C140.625,316.752 140.736,314.665 143.044,307.4C144.855,301.697 144.756,301.745 150.031,304.04M279.551,313.131C286.919,316.836 289.896,318.687 291.454,320.535L292.522,321.8L292.235,335C291.92,349.484 291.143,365.793 290.75,366.185C290.612,366.322 286.652,366.694 281.95,367.011C277.247,367.329 271.24,367.761 268.6,367.971C262.601,368.448 262.644,368.482 263.027,363.55C263.695,354.951 263.438,323.884 262.685,322.215C261.462,319.504 258.322,317.062 251.913,313.837C248.141,311.939 248.2,311.81 253.095,311.224C271.717,308.998 271.265,308.965 279.551,313.131M339.757,318.633C339.891,318.981 340,322.034 340,325.419C340,332.652 340.417,332.082 334.6,332.787C332.4,333.053 329.34,333.428 327.8,333.62C326.26,333.812 322.66,334.254 319.8,334.603C316.94,334.952 313.25,335.402 311.6,335.604C309.95,335.806 306.26,336.247 303.4,336.585C300.54,336.922 297.734,337.297 297.164,337.417C295.468,337.775 295.31,337.098 295.51,330.324C295.722,323.16 295.336,323.779 299.987,323.153C305.583,322.399 316.712,320.888 320.2,320.408C321.52,320.226 324.85,319.77 327.6,319.394C330.35,319.018 333.59,318.574 334.8,318.408C338.489,317.9 339.494,317.946 339.757,318.633M259.796,334.3C259.638,337.765 259.345,340.803 259.146,341.05C257.632,342.935 223.838,343.971 222.054,342.187C221.745,341.878 222.82,329.421 223.188,329.053C223.513,328.727 239.387,328.215 253.742,328.066L260.084,328L259.796,334.3M164.957,335.433C165.535,336.939 165.184,342.715 164.362,345.234C161.857,352.908 154.47,359.393 146.2,361.178C142.691,361.936 142.684,362.202 146.001,368.85C153.734,384.35 169.788,398.448 187.892,405.636C192.645,407.523 192.768,407.714 190.252,409.303C180.401,415.527 160.63,412.853 143.7,403.007C140.232,400.991 140.383,402.024 144.1,405.733C148.349,409.973 153.812,413.09 160.384,415.024C165.802,416.618 164.291,417.401 155.8,417.399C143.836,417.397 131.102,413.496 118.313,405.917C114.785,403.826 114.377,404.076 116.391,407.092C119.234,411.348 124.815,415.708 130.297,417.955C134.952,419.863 133.584,420.998 127,420.691C113.532,420.065 87.218,405.888 72.189,391.162C68.746,387.788 69.231,387.226 66.002,398.325C65.021,401.696 64.74,401.754 62.883,398.973C59.051,393.234 53.913,380.587 52.779,374.1C52.133,370.403 52.197,370.387 47,375.6C41.954,380.661 41.821,380.713 41.037,377.9C38.459,368.66 38.791,357.196 41.888,348.462C43.218,344.715 43.303,344.697 48.141,347.095C62.407,354.166 78.844,358.99 97,361.435C102.645,362.195 102.314,361.98 102.829,365.231C103.327,368.383 105.058,372.159 106.806,373.91C108.531,375.637 108.592,375.509 108.649,370.067C108.85,350.976 119.444,341.985 143.4,340.575C150.717,340.144 156.021,338.834 161.186,336.182C164.178,334.645 164.621,334.557 164.957,335.433M176.886,340.967C179.291,341.764 184.047,343.147 187.378,344.019C188.93,344.426 191.28,345.045 192.6,345.396C195.574,346.185 202.74,347.799 207,348.638C211.029,349.432 211.267,349.629 211.008,351.954C210.895,352.969 210.533,357.31 210.202,361.6C209.872,365.89 209.423,371.47 209.204,374C208.986,376.53 208.537,381.93 208.207,386C207.046,400.342 206.674,404.031 206.37,404.218C205.299,404.881 190.48,398.03 183.6,393.692C173.969,387.619 165.372,379.755 159.762,371.883C155.814,366.344 155.882,366.642 158.3,365.53C166.358,361.822 172.007,354.086 173.585,344.6C174.047,341.825 174.539,340.4 175.035,340.4C175.11,340.4 175.943,340.655 176.886,340.967M336.58,340.768C336.705,340.97 336.464,342.635 336.043,344.468C333.689,354.732 331.343,372.635 329.878,391.524C329.662,394.298 329.654,394.303 324.566,395.185C297.293,399.911 241.522,404.83 221,404.319L216.2,404.2L216.245,401.6C216.27,400.17 216.491,396.48 216.735,393.4C216.98,390.32 217.627,382.13 218.172,375.2C219.906,353.173 220.056,351.433 220.237,351.139C220.335,350.981 224.597,350.95 229.708,351.07C236.776,351.236 240.915,351.12 247,350.586C251.4,350.2 255.81,349.865 256.8,349.842L258.6,349.8L258.707,360.531L258.813,371.262L261.307,371.034C262.678,370.909 268.39,370.525 274,370.181C288.726,369.279 292.844,368.916 293.282,368.478C293.495,368.265 293.95,363.075 294.292,356.945C294.996,344.362 294.848,344.831 298.278,344.34C301.91,343.82 314.833,342.367 323,341.56C325.42,341.321 328.66,340.988 330.2,340.821C334.342,340.372 336.325,340.355 336.58,340.768M346.662,357.722C355.159,368.41 355.904,377.366 349.369,390.242C342.246,404.274 324.252,411.76 308.483,407.252C302.954,405.671 303.473,405.486 320.4,403.008C338.028,400.428 337.541,400.9 339.596,384.4C343.854,350.211 343.063,353.196 346.662,357.722" style="fill:rgb(34,35,40);"/>
    </g>
    <g transform="matrix(1.16071,0,0,0.988298,-253.412,1.0615)">
        <ellipse cx="1493.12" cy="791.623" rx="13.046" ry="19.898" style="fill:white;"/>
    </g>
    <g transform="matrix(0.545827,0,0,0.485517,667.662,434.839)">
        <ellipse cx="1493.12" cy="791.623" rx="13.046" ry="19.898" style="fill:white;"/>
    </g>
    <path d="M1250.65,534.283C1284.45,418.883 1377.34,351.984 1515.22,322.01C1603.32,327.326 1681.58,355.982 1752.85,401.201L1821.1,486.188L1311.58,657.941L1250.65,534.283Z" style="fill:none;"/>
</svg>
