<svg width="250" height="181" viewBox="0 0 250 181" fill="none" xmlns="http://www.w3.org/2000/svg">
<g clip-path="url(#clip0_313_868)">
<path d="M123.265 179.453H113.662V105.54H121.472C121.85 105.54 122.213 105.69 122.481 105.956C122.75 106.223 122.901 106.585 122.903 106.964L123.265 179.453Z" fill="#CCCCCC"/>
<path d="M114.559 179.844H11.4291V127.205H114.559V179.844Z" fill="white"/>
<path d="M73.9105 179.648H11.6248V127.401H114.364V139.195C114.351 149.92 110.086 160.203 102.502 167.786C94.918 175.37 84.6356 179.636 73.9105 179.648Z" fill="#F2F2F2"/>
<path d="M121.701 107.639C121.649 107.737 121.609 107.841 121.581 107.948L118.025 121.656L114.168 128.961H11.8205V127.142L17.6475 121.656L24.4449 108.654C24.745 108.08 25.1391 107.56 25.6108 107.116C26.687 106.104 28.1092 105.54 29.587 105.54H120.436C120.683 105.54 120.925 105.604 121.14 105.725C121.354 105.846 121.534 106.021 121.662 106.232C121.789 106.443 121.859 106.684 121.866 106.931C121.873 107.177 121.816 107.421 121.701 107.639Z" fill="#F2F2F2"/>
<path d="M114.559 179.844H11.4291V127.205H114.559V179.844ZM12.212 179.061H113.776V127.988H12.212V179.061Z" fill="#E6E6E6"/>
<path d="M119.925 114.652L118.025 121.656H17.6476L20.8911 115.826L119.925 114.652Z" fill="#CCCCCC"/>
<path d="M31.6721 154.789H15.2321V155.698H31.6721V154.789Z" fill="white"/>
<path d="M31.6721 157.973H15.2321V158.882H31.6721V157.973Z" fill="white"/>
<path d="M31.6721 161.157H15.2321V162.067H31.6721V161.157Z" fill="white"/>
<path d="M21.6004 144.654C24.8663 144.654 27.5138 142.007 27.5138 138.741C27.5138 135.475 24.8663 132.828 21.6004 132.828C18.3345 132.828 15.687 135.475 15.687 138.741C15.687 142.007 18.3345 144.654 21.6004 144.654Z" fill="white"/>
<path d="M86.4124 117.683H81.3902V79.0305H85.4746C85.6724 79.0305 85.8622 79.1088 86.0024 79.2484C86.1427 79.3879 86.2219 79.5773 86.2229 79.7751L86.4124 117.683Z" fill="#CCCCCC"/>
<path d="M81.8596 117.888H27.9272V90.3606H81.8596V117.888Z" fill="white"/>
<path d="M60.6021 117.786H28.0296V90.4629H81.7572V96.6306C81.7509 102.239 79.52 107.617 75.554 111.583C71.588 115.548 66.2109 117.779 60.6021 117.786Z" fill="#F2F2F2"/>
<path d="M85.5944 80.1285C85.5673 80.1797 85.5463 80.234 85.5317 80.2901L83.672 87.4585L81.6548 91.2788H28.1319V90.3273L31.1792 87.4585L34.7339 80.659C34.8908 80.3589 35.0969 80.0871 35.3436 79.855C35.9064 79.3254 36.6501 79.0305 37.423 79.0305H84.9327C85.0617 79.0305 85.1885 79.0639 85.3008 79.1273C85.4131 79.1907 85.5071 79.2821 85.5737 79.3926C85.6403 79.5031 85.6771 79.6289 85.6808 79.7578C85.6844 79.8867 85.6547 80.0144 85.5944 80.1285Z" fill="#F2F2F2"/>
<path d="M81.8596 117.888H27.9272V90.3606H81.8596V117.888ZM28.3366 117.479H81.4501V90.77H28.3366V117.479Z" fill="#E6E6E6"/>
<path d="M84.6654 83.7957L83.6719 87.4583H31.1792L32.8753 84.4094L84.6654 83.7957Z" fill="#CCCCCC"/>
<path d="M38.5134 104.785H29.916V105.261H38.5134V104.785Z" fill="white"/>
<path d="M38.5134 106.45H29.916V106.926H38.5134V106.45Z" fill="white"/>
<path d="M38.5134 108.116H29.916V108.591H38.5134V108.116Z" fill="white"/>
<path d="M33.2463 99.4856C34.9542 99.4856 36.3388 98.1011 36.3388 96.3932C36.3388 94.6853 34.9542 93.3008 33.2463 93.3008C31.5384 93.3008 30.1539 94.6853 30.1539 96.3932C30.1539 98.1011 31.5384 99.4856 33.2463 99.4856Z" fill="white"/>
<path d="M250 179.748C250 179.81 249.988 179.87 249.965 179.927C249.942 179.983 249.907 180.035 249.864 180.078C249.821 180.121 249.769 180.156 249.713 180.179C249.656 180.202 249.595 180.214 249.534 180.214H0.46582C0.342279 180.214 0.223797 180.165 0.13644 180.078C0.0490834 179.99 7.62939e-06 179.872 7.62939e-06 179.748C7.62939e-06 179.625 0.0490834 179.506 0.13644 179.419C0.223797 179.332 0.342279 179.282 0.46582 179.282H249.534C249.595 179.282 249.656 179.294 249.713 179.318C249.769 179.341 249.821 179.375 249.864 179.419C249.907 179.462 249.942 179.513 249.965 179.57C249.988 179.626 250 179.687 250 179.748Z" fill="#CCCCCC"/>
<path d="M193.506 60.5651L186.376 59.5439C183.965 63.5757 183.108 74.307 183.108 74.307L176.131 90.8901C175.669 91.2039 175.298 91.634 175.055 92.1369C174.812 92.6398 174.706 93.1979 174.747 93.7549C174.788 94.312 174.975 94.8483 175.29 95.31C175.604 95.7717 176.035 96.1424 176.538 96.3849C177.041 96.6273 177.599 96.7329 178.156 96.691C178.713 96.6492 179.249 96.4613 179.711 96.1464C180.172 95.8314 180.542 95.4005 180.784 94.897C181.026 94.3935 181.131 93.8352 181.088 93.2782L192.544 73.9762L193.506 60.5651Z" fill="#FFB8B8"/>
<path d="M192.371 40.7727C193.474 40.9436 194.527 41.3556 195.453 41.9794C196.379 42.6032 197.156 43.4234 197.729 44.3817C198.302 45.34 198.657 46.4129 198.769 47.5239C198.88 48.635 198.745 49.7569 198.374 50.8099L196.861 55.098C196.861 55.098 196.037 68.0095 192.896 71.6542L183.259 70.7818C183.259 70.7818 185.021 64.2677 183.668 61.116C182.84 59.1858 182.886 52.5192 183.702 47.096C183.855 46.1112 184.201 45.1662 184.72 44.3151C185.238 43.4641 185.92 42.7237 186.725 42.1364C187.53 41.549 188.443 41.1262 189.412 40.8923C190.381 40.6583 191.386 40.6177 192.371 40.7727Z" fill="#F9E052"/>
<path d="M215.932 174.745L211.637 174.745L209.594 158.18L215.932 158.181L215.932 174.745Z" fill="#FFB6B6"/>
<path d="M216.083 179.225L202.877 179.225V179.057C202.877 177.694 203.418 176.387 204.382 175.423C205.346 174.459 206.654 173.918 208.017 173.917H208.017L210.429 172.087L214.93 173.918L216.083 173.918L216.083 179.225Z" fill="#2F2E41"/>
<path d="M197.261 154.216L193.294 155.861L185.062 141.342L190.917 138.915L197.261 154.216Z" fill="#FFB6B6"/>
<path d="M199.117 158.296L186.918 163.355L186.854 163.2C186.332 161.941 186.332 160.526 186.853 159.266C187.374 158.007 188.374 157.006 189.633 156.483L189.634 156.483L191.161 153.869L196.019 153.835L197.084 153.394L199.117 158.296Z" fill="#2F2E41"/>
<path d="M220.842 80.5168L190.365 83.701L186.288 97.4317L172.17 120.12L187.758 148.761L193.248 143.834L187.979 120.706L203.707 103.726L206.689 102.488L209.057 165.497L217.813 165.641L221.645 96.1147C223.486 89.9727 222.932 84.9014 220.842 80.5168Z" fill="#2F2E41"/>
<path d="M209.668 37.0487L204.666 31.416L196.761 32.2943L191.701 39.3765C189.007 39.9958 186.653 41.6239 185.123 43.9259C183.593 46.2278 183.004 49.0286 183.476 51.7519C185.44 63.0601 192.114 74.0276 189.91 79.6071C186.565 88.0766 186.361 91.5308 194.368 90.3434C202.376 89.156 229.202 86.4186 224.001 81.2176C218.8 76.0165 217.657 67.3254 217.657 67.3254L217.449 47.4416C217.67 46.2423 217.641 45.0103 217.362 43.823C217.084 42.6357 216.563 41.5188 215.832 40.5426C215.102 39.5664 214.177 38.752 213.116 38.1507C212.055 37.5494 210.881 37.1742 209.668 37.0487L209.668 37.0487Z" fill="#F9E052"/>
<path d="M199.892 29.9748C204.738 29.9748 208.667 26.0464 208.667 21.2005C208.667 16.3546 204.738 12.4263 199.892 12.4263C195.046 12.4263 191.118 16.3546 191.118 21.2005C191.118 26.0464 195.046 29.9748 199.892 29.9748Z" fill="#FFB8B8"/>
<path d="M210.704 20.6793C210.312 22.4571 209.605 24.1504 208.617 25.6792C208.354 26.2005 207.962 26.6455 207.478 26.9716C207.233 27.1288 206.941 27.1952 206.652 27.1591C206.363 27.123 206.096 26.9867 205.897 26.774L205.684 26.6001C206.103 26.3421 206.476 26.0177 206.791 25.6396C206.946 25.4499 207.054 25.2257 207.106 24.9858C207.157 24.7459 207.151 24.4972 207.087 24.2602C207.011 24.0266 206.848 23.8314 206.631 23.7157C206.415 23.6 206.161 23.5727 205.925 23.6397C205.411 23.8413 205.099 24.5843 204.561 24.4697C204.127 24.3749 204.036 23.8018 204.036 23.3512C204.052 20.9955 202.913 17.6478 202.032 17.7505C201.141 17.7992 200.25 17.6799 199.403 17.3988C198.556 17.1172 197.662 17.0031 196.771 17.0628C196.708 17.0707 196.645 17.0826 196.577 17.0944C196.435 16.6469 196.238 16.2182 195.993 15.8178C196.02 16.3011 195.996 16.7861 195.921 17.2644C195.212 17.5566 194.48 17.788 193.732 17.956C192.918 18.0707 191.127 20.5054 191.044 20.2564C190.901 19.8088 190.705 19.3802 190.459 18.9797C190.487 19.4631 190.463 19.948 190.388 20.4263C190.384 20.4461 190.384 20.4619 190.38 20.4817C189.985 19.956 189.744 19.3157 189.878 19.8058C188.554 16.8099 189.068 14.6637 191.151 12.138C191.557 11.595 192.094 11.1639 192.712 10.8851C193.021 10.7491 193.361 10.6952 193.697 10.7284C194.034 10.7616 194.356 10.8809 194.633 11.0748C195.482 10.2959 196.525 9.7584 197.652 9.51794C198.779 9.27749 199.95 9.34285 201.044 9.70727C203.214 10.4622 204.886 10.9049 205.218 13.1815C207.012 12.893 208.858 13.9127 209.846 15.4344C210.83 16.96 211.032 18.8967 210.704 20.6793Z" fill="#2F2E41"/>
<path d="M203.588 93.5577H200.676V71.1443H203.045C203.159 71.1443 203.269 71.1897 203.351 71.2706C203.432 71.3515 203.478 71.4613 203.479 71.576L203.588 93.5577Z" fill="#3F3D56"/>
<path d="M200.948 93.6763H169.675V77.7141H200.948V93.6763Z" fill="white"/>
<path d="M188.622 93.617H169.734V77.7734H200.889V81.3499C200.885 84.6022 199.592 87.7202 197.292 90.0199C194.992 92.3197 191.874 93.6133 188.622 93.617Z" fill="#E6E6E6"/>
<path d="M203.114 71.7809C203.098 71.8107 203.086 71.8421 203.078 71.8747L201.999 76.0314L200.83 78.2466H169.794V77.6949L171.561 76.0314L173.622 72.0886C173.713 71.9146 173.832 71.757 173.975 71.6224C174.302 71.3153 174.733 71.1443 175.181 71.1443H202.73C202.805 71.1443 202.879 71.1636 202.944 71.2004C203.009 71.2372 203.063 71.2902 203.102 71.3542C203.141 71.4183 203.162 71.4912 203.164 71.566C203.166 71.6408 203.149 71.7148 203.114 71.7809Z" fill="#E6E6E6"/>
<path d="M200.948 93.6763H169.675V77.7141H200.948V93.6763ZM169.912 93.4389H200.711V77.9515H169.912V93.4389Z" fill="#3F3D56"/>
<path d="M202.575 73.907L201.999 76.0313H171.561L172.544 74.2632L202.575 73.907Z" fill="#CCCCCC"/>
<path d="M175.813 86.0786H170.828V86.3545H175.813V86.0786Z" fill="white"/>
<path d="M175.813 87.0442H170.828V87.3201H175.813V87.0442Z" fill="white"/>
<path d="M175.813 88.0098H170.828V88.2856H175.813V88.0098Z" fill="white"/>
<path d="M172.759 83.0056C173.75 83.0056 174.553 82.2027 174.553 81.2124C174.553 80.222 173.75 79.4192 172.759 79.4192C171.769 79.4192 170.966 80.222 170.966 81.2124C170.966 82.2027 171.769 83.0056 172.759 83.0056Z" fill="white"/>
<path d="M215.755 58.5158L208.626 57.4946C206.214 61.5264 205.358 72.2577 205.358 72.2577L198.381 88.8408C197.919 89.1546 197.547 89.5846 197.304 90.0876C197.061 90.5905 196.955 91.1486 196.996 91.7056C197.037 92.2627 197.225 92.799 197.539 93.2607C197.853 93.7224 198.284 94.0931 198.787 94.3356C199.29 94.578 199.848 94.6836 200.405 94.6417C200.962 94.5999 201.499 94.412 201.96 94.0971C202.421 93.7821 202.791 93.3512 203.033 92.8477C203.275 92.3442 203.38 91.7859 203.338 91.2289L214.793 71.9269L215.755 58.5158Z" fill="#FFB8B8"/>
<path d="M211.891 38.7235C212.994 38.8944 214.047 39.3064 214.973 39.9302C215.899 40.5539 216.676 41.3742 217.249 42.3325C217.822 43.2908 218.177 44.3636 218.289 45.4747C218.4 46.5857 218.265 47.7077 217.894 48.7607L216.381 53.0488C216.381 53.0488 218.286 65.9603 215.146 69.6049L205.508 68.7325C205.508 68.7325 207.27 62.2185 205.918 59.0667C205.089 57.1365 205.135 50.47 205.951 45.0468C206.575 40.9058 207.752 38.0826 211.891 38.7235Z" fill="#F9E052"/>
<path d="M151.354 17.3604C147.871 19.0975 145.221 22.1472 143.986 25.8385C142.751 29.5298 143.034 33.5604 144.771 37.0436C148.388 44.2969 161.46 56.6674 171.89 58.5365C167.403 44.9145 173.641 31.0683 171.037 23.9437C168.255 16.331 158.607 13.743 151.354 17.3604Z" fill="#377E7F"/>
<path d="M156.243 34.611C158.887 34.611 161.03 32.4681 161.03 29.8247C161.03 27.1812 158.887 25.0383 156.243 25.0383C153.6 25.0383 151.457 27.1812 151.457 29.8247C151.457 32.4681 153.6 34.611 156.243 34.611Z" fill="white"/>
<path d="M171.798 66.2189C173.529 66.2189 174.933 64.8153 174.933 63.0839C174.933 61.3525 173.529 59.949 171.798 59.949C170.066 59.949 168.663 61.3525 168.663 63.0839C168.663 64.8153 170.066 66.2189 171.798 66.2189Z" fill="#377E7F"/>
<path opacity="0.2" d="M157.702 24.7934C158.331 24.7716 158.957 24.8738 159.546 25.0943C160.135 25.3148 160.675 25.6491 161.135 26.0783C161.594 26.5075 161.965 27.023 162.225 27.5955C162.485 28.168 162.63 28.7861 162.652 29.4147C162.673 30.0432 162.57 30.6697 162.349 31.2585C162.128 31.8473 161.793 32.3867 161.364 32.846C160.934 33.3054 160.418 33.6755 159.846 33.9353C159.273 34.1952 158.655 34.3396 158.026 34.3604C159.091 33.9642 159.981 33.2019 160.535 32.2098C161.09 31.2178 161.273 30.0608 161.053 28.9459C160.832 27.8311 160.222 26.8311 159.331 26.125C158.441 25.4189 157.328 25.0528 156.192 25.0922C156.676 24.9118 157.186 24.8109 157.702 24.7934Z" fill="#231F20"/>
<path opacity="0.2" d="M171.062 23.9463C173.665 31.0708 167.428 44.917 171.914 58.5391C170.929 58.3578 169.96 58.104 169.013 57.7797C165.357 44.6113 171.095 31.4531 168.579 24.5696C166.327 18.4087 159.579 15.5394 153.242 16.5861C160.197 14.2143 168.512 16.9699 171.062 23.9463Z" fill="#231F20"/>
<path d="M24.1362 90.0466C20.5306 89.9601 17.0383 91.3094 14.4275 93.7977C11.8168 96.286 10.3014 99.7095 10.2148 103.315C10.0345 110.823 15.3805 126.62 23.1127 132.67C25.3411 119.569 36.4502 110.932 37.4047 103.968C38.4246 96.5272 31.6445 90.2269 24.1362 90.0466Z" fill="#377E7F"/>
<path d="M22.7394 106.809C25.1888 106.809 27.1744 104.824 27.1744 102.374C27.1744 99.9248 25.1888 97.9392 22.7394 97.9392C20.29 97.9392 18.3044 99.9248 18.3044 102.374C18.3044 104.824 20.29 106.809 22.7394 106.809Z" fill="white"/>
<path d="M21.0669 139.26C22.6712 139.26 23.9717 137.959 23.9717 136.355C23.9717 134.75 22.6712 133.45 21.0669 133.45C19.4626 133.45 18.162 134.75 18.162 136.355C18.162 137.959 19.4626 139.26 21.0669 139.26Z" fill="#377E7F"/>
<path opacity="0.2" d="M26.1144 98.8854C27.1721 99.3999 27.9821 100.314 28.3662 101.425C28.7503 102.537 28.677 103.756 28.1624 104.814C27.9077 105.337 27.5522 105.806 27.1164 106.192C26.6806 106.578 26.173 106.875 25.6225 107.065C24.5108 107.449 23.292 107.376 22.2343 106.862C23.2784 106.999 24.3372 106.76 25.2212 106.187C26.1053 105.615 26.7568 104.747 27.0592 103.738C27.3616 102.73 27.2952 101.646 26.8718 100.682C26.4483 99.7178 25.6956 98.9358 24.7483 98.4758C25.2228 98.5378 25.6841 98.6761 26.1144 98.8854Z" fill="#231F20"/>
<path opacity="0.2" d="M37.4233 103.981C36.4688 110.944 25.3597 119.582 23.1313 132.683C22.4036 132.108 21.7194 131.48 21.0843 130.804C23.7967 118.434 34.1974 110.143 35.1196 103.415C35.945 97.3935 31.6616 92.1194 26.0182 90.231C32.7419 91.302 38.3579 97.1619 37.4233 103.981Z" fill="#231F20"/>
<path d="M75.7284 32.2602C74.715 32.3266 73.7675 32.7857 73.0875 33.5399C72.4075 34.2941 72.0486 35.2839 72.0872 36.2987C72.0983 36.5049 72.1265 36.7097 72.1714 36.9112L60.664 44.1608L67.0259 46.9745L76.9782 39.6588C77.7993 39.4079 78.5143 38.8923 79.0115 38.1923C79.5088 37.4924 79.7603 36.6475 79.7269 35.7895C79.7032 35.3015 79.5836 34.823 79.375 34.3812C79.1664 33.9394 78.8727 33.543 78.5109 33.2147C78.1491 32.8864 77.7261 32.6326 77.2662 32.4677C76.8062 32.3028 76.3184 32.2302 75.8303 32.2539C75.7963 32.2555 75.7623 32.2577 75.7284 32.2602Z" fill="#FFB6B6"/>
<path d="M64.6317 40.8657L67.4836 46.7501L56.2072 54.0066C55.4049 54.5273 54.4827 54.8343 53.5283 54.8982C52.5739 54.9622 51.619 54.781 50.7543 54.3719C49.7031 53.8687 48.8439 53.0375 48.3062 52.0035C47.7686 50.9695 47.5816 49.7887 47.7734 48.6392L51.4324 27.7501C51.678 26.2883 52.4745 24.9762 53.658 24.0836C54.8414 23.1911 56.3219 22.786 57.7949 22.9516C58.5124 23.03 59.2074 23.249 59.8402 23.5961C60.4731 23.9431 61.0313 24.4114 61.4832 24.9742C61.935 25.537 62.2716 26.1833 62.4737 26.8762C62.6758 27.5691 62.7394 28.295 62.661 29.0125C62.6548 29.0691 62.6477 29.1257 62.6397 29.1822C62.6121 29.3829 62.5736 29.582 62.5245 29.7786L58.5301 44.6345L64.6317 40.8657Z" fill="#F9E052"/>
<path d="M65.4331 49.988H49.3065V66.1146H65.4331V49.988Z" fill="#FFB8B8"/>
<path d="M103.677 97.4818L109.836 95.4099L113.266 112.174L109.092 113.578L103.677 97.4818Z" fill="#FFB6B6"/>
<path d="M93.2387 96.1938L99.3479 93.979L103.167 110.659L99.0273 112.159L93.2387 96.1938Z" fill="#FFB6B6"/>
<path d="M49.885 70.3277C46.6527 91.8761 89.696 79.1363 89.696 79.1363L103.192 97.7538L111.093 96.3173C111.093 96.3173 107.538 85.1407 101.189 70.1578C98.3689 63.504 66.352 65.1299 66.352 65.1299L65.6872 59.9126L47.371 59.5535L49.885 70.3277Z" fill="#2F2E41"/>
<path d="M80.9771 80.5808L90.9304 74.3818C98.2169 88.9319 100.365 95.2332 100.365 95.2332L93.4762 97.1705L80.9771 80.5808Z" fill="#2F2E41"/>
<path d="M59.0977 23.7823L55.8517 19.61L51.2214 19.4092L50.7593 23.3334L48.465 24.3913C46.1742 33.0945 45.8204 42.1943 47.4286 51.0491C47.7361 51.3386 47.9607 51.7049 48.0794 52.1102C48.1981 52.5155 48.2065 52.9451 48.1038 53.3547L47.955 53.9477L47.9688 53.9694C48.457 54.7397 48.6226 55.6712 48.4299 56.5626L47.3343 58.5094C46.9411 59.2096 46.7051 59.9869 46.6428 60.7875C46.5804 61.5881 46.6932 62.3926 46.9733 63.1452C47.2534 63.8977 47.694 64.5802 48.2646 65.1453C48.8351 65.7103 49.5219 66.1442 50.2772 66.4169C57.0121 68.8581 63.3255 69.7674 67.9961 62.9171L69.4648 39.045L59.0977 23.7823Z" fill="#F9E052"/>
<path d="M55.6973 20.7181C60.4254 20.7181 64.2584 16.8852 64.2584 12.157C64.2584 7.42888 60.4254 3.59595 55.6973 3.59595C50.9691 3.59595 47.1362 7.42888 47.1362 12.157C47.1362 16.8852 50.9691 20.7181 55.6973 20.7181Z" fill="#FFB8B8"/>
<path d="M51.3995 1.83669C47.7746 1.90633 44.8996 5.26867 44.978 9.3467C42.2955 12.1457 41.6456 25.913 43.887 29.5755C47.9872 30.0514 50.4812 19.9074 54.0769 21.3738L54.5507 19.16L55.6244 22.043C56.5382 22.4642 57.4451 22.9266 58.3452 23.4302C58.9919 20.4635 58.8316 17.5799 57.0932 15.0681C55.5488 12.8367 59.3071 10.1875 61.9949 10.562L61.9555 8.51252L62.6306 10.5497C63.6783 11.3196 64.8373 11.0409 66.0258 10.4845C67.953 0.468329 53.0321 -2.27078 51.3995 1.83669Z" fill="#2F2E41"/>
<path d="M107.195 116.414L109.939 116.055L110.091 113.401L111.684 115.827L118.961 114.877C119.31 114.831 119.635 114.675 119.889 114.432C120.143 114.188 120.313 113.87 120.373 113.524C120.434 113.177 120.381 112.82 120.225 112.505C120.068 112.19 119.814 111.934 119.501 111.773L113.165 108.518L112.823 105.899L106.758 107.063L107.195 116.414Z" fill="#2F2E41"/>
<path d="M99.948 116.438L102.437 115.229L101.74 112.663L104.02 114.461L110.622 111.255C110.939 111.101 111.198 110.85 111.361 110.539C111.525 110.228 111.585 109.872 111.533 109.524C111.48 109.176 111.318 108.854 111.069 108.605C110.821 108.356 110.499 108.193 110.152 108.14L103.111 107.059L101.957 104.683L96.5724 107.706L99.948 116.438Z" fill="#2F2E41"/>
<path d="M62.3689 59.3484H65.4214V35.8552H62.9389C62.8187 35.8552 62.7033 35.9028 62.6181 35.9876C62.5328 36.0724 62.4847 36.1876 62.4841 36.3078L62.3689 59.3484Z" fill="#CCCCCC"/>
<path d="M65.1361 42.7417H97.9161V59.4729H65.1361V42.7417Z" fill="white"/>
<path d="M65.1983 46.5524V42.8037H97.8539V59.4104H78.0564C74.6474 59.4066 71.3791 58.0507 68.9686 55.6402C66.5581 53.2296 65.2022 49.9614 65.1983 46.5524Z" fill="#F2F2F2"/>
<path d="M62.8661 36.5225C62.8826 36.5537 62.8954 36.5867 62.9042 36.6208L64.0345 40.9777L65.2606 43.2997H97.7916V42.7214L95.9395 40.9777L93.779 36.845C93.6836 36.6626 93.5584 36.4974 93.4084 36.3564C93.0663 36.0345 92.6143 35.8552 92.1446 35.8552H63.2683C63.1899 35.8552 63.1128 35.8755 63.0446 35.914C62.9763 35.9526 62.9192 36.0082 62.8787 36.0753C62.8382 36.1424 62.8158 36.2189 62.8136 36.2973C62.8114 36.3756 62.8295 36.4532 62.8661 36.5225Z" fill="#F2F2F2"/>
<path d="M65.1361 42.7417H97.9161V59.4729H65.1361V42.7417ZM97.6673 59.224H65.385V42.9905H97.6672L97.6673 59.224Z" fill="#E6E6E6"/>
<path d="M63.4306 38.7512L64.0346 40.9777H95.9396L94.9085 39.1247L63.4306 38.7512Z" fill="#CCCCCC"/>
<path d="M96.7073 51.509H91.4818V51.7982H96.7073V51.509Z" fill="white"/>
<path d="M96.7073 52.521H91.4818V52.8102H96.7073V52.521Z" fill="white"/>
<path d="M96.7073 53.5332H91.4818V53.8224H96.7073V53.5332Z" fill="white"/>
<path d="M94.6831 48.288C95.7212 48.288 96.5627 47.4464 96.5627 46.4084C96.5627 45.3703 95.7212 44.5288 94.6831 44.5288C93.6451 44.5288 92.8036 45.3703 92.8036 46.4084C92.8036 47.4464 93.6451 48.288 94.6831 48.288Z" fill="white"/>
<path d="M79.5207 18.0083C81.73 17.9552 83.8699 18.782 85.4696 20.3067C87.0694 21.8314 87.9979 23.9292 88.0509 26.1385C88.1614 30.7391 84.8857 40.4183 80.1478 44.1256C78.7824 36.098 71.9754 30.8054 71.3905 26.5385C70.7656 21.9792 74.9201 18.1187 79.5207 18.0083Z" fill="#377E7F"/>
<path d="M80.3766 28.2793C81.8775 28.2793 83.0941 27.0626 83.0941 25.5618C83.0941 24.0609 81.8775 22.8442 80.3766 22.8442C78.8758 22.8442 77.6591 24.0609 77.6591 25.5618C77.6591 27.0626 78.8758 28.2793 80.3766 28.2793Z" fill="white"/>
<path d="M81.4014 48.1631C82.3845 48.1631 83.1814 47.3662 83.1814 46.3832C83.1814 45.4002 82.3845 44.6033 81.4014 44.6033C80.4184 44.6033 79.6215 45.4002 79.6215 46.3832C79.6215 47.3662 80.4184 48.1631 81.4014 48.1631Z" fill="#377E7F"/>
<path opacity="0.2" d="M78.3086 23.424C77.9877 23.5802 77.7007 23.7979 77.4639 24.065C77.2272 24.332 77.0454 24.6431 76.9288 24.9804C76.8123 25.3177 76.7633 25.6746 76.7848 26.0308C76.8062 26.3871 76.8976 26.7356 77.0537 27.0565C77.2098 27.3774 77.4276 27.6644 77.6946 27.9012C77.9616 28.1379 78.2727 28.3197 78.61 28.4363C78.9473 28.5528 79.3042 28.6018 79.6605 28.5803C80.0167 28.5589 80.3652 28.4675 80.6861 28.3114C80.0463 28.3954 79.3976 28.249 78.8559 27.8984C78.3142 27.5477 77.915 27.0158 77.7297 26.3977C77.5444 25.7796 77.5851 25.1157 77.8445 24.5249C78.104 23.9341 78.5652 23.4549 79.1457 23.1731C78.8549 23.211 78.5723 23.2958 78.3086 23.424Z" fill="#231F20"/>
<path opacity="0.2" d="M71.3791 26.5462C71.964 30.8131 78.771 36.1057 80.1365 44.1333C80.5824 43.7809 81.0016 43.3961 81.3907 42.9819C79.7287 35.4027 73.3558 30.3224 72.7907 26.1997C72.2849 22.5099 74.9096 19.2782 78.3676 18.1211C74.2476 18.7774 70.8064 22.368 71.3791 26.5462Z" fill="#231F20"/>
<path d="M74.6797 40.6061C73.6669 40.5311 72.6649 40.8543 71.8868 41.5068C71.1086 42.1593 70.6158 43.0897 70.5132 44.1C70.4956 44.3057 70.495 44.5125 70.5115 44.7183L58.1092 50.3003L64.0189 53.9699L74.8903 48.1066C75.7383 47.9721 76.518 47.5607 77.1076 46.9365C77.6972 46.3124 78.0636 45.5106 78.1496 44.6563C78.239 43.6736 77.9344 42.6957 77.3028 41.9376C76.6712 41.1795 75.7642 40.7034 74.7816 40.614C74.7476 40.6109 74.7137 40.6083 74.6797 40.6061Z" fill="#FFB6B6"/>
<path d="M62.4958 47.588L64.5033 53.8114L52.3287 59.4322C51.4619 59.8365 50.506 60.0125 49.5519 59.9433C48.5979 59.8741 47.6774 59.5622 46.8779 59.037C45.9067 58.3928 45.1712 57.4503 44.7823 56.3517C44.3934 55.2531 44.3721 54.0578 44.7217 52.946L51.245 32.767C51.6912 31.3535 52.6621 30.1647 53.958 29.445C55.2539 28.7254 56.7763 28.5298 58.212 28.8983C58.9117 29.0755 59.5695 29.3889 60.1481 29.8204C60.7266 30.252 61.2145 30.7932 61.5838 31.4133C61.9532 32.0334 62.1968 32.7201 62.3007 33.4344C62.4047 34.1486 62.3669 34.8763 62.1896 35.5759C62.1756 35.6312 62.1608 35.6863 62.145 35.7411C62.0898 35.936 62.024 36.1278 61.9481 36.3157L55.9301 50.4733L62.4958 47.588Z" fill="#F9E052"/>
</g>
<defs>
<clipPath id="clip0_313_868">
<rect width="250" height="180.214" fill="white"/>
</clipPath>
</defs>
</svg>
