<svg width="1442" height="611" viewBox="0 0 1442 611" fill="none" xmlns="http://www.w3.org/2000/svg">
<rect width="1442" height="611" fill="white"/>
<path d="M1100.5 31.4414C1289 11.167 1371.5 37.1401 1442 52.1157V333.082C874.5 333.082 563.941 332.638 0 332.812C0 332.812 0.000242233 137.598 0.000103474 125.273C-3.5286e-05 112.948 233 11.5646 508 53.7084C695.878 82.5008 696.167 80.214 751.5 80.7443C964 76.768 911.999 51.7158 1100.5 31.4414Z" fill="#FFF4B4" fill-opacity="0.3"/>
<path d="M341.5 580.875C152.999 597.563 70.5001 576.184 5.72942e-05 563.857L1.99027e-05 332.541C567.5 332.541 878.059 332.954 1442 332.812C1442 332.812 1442 493.496 1442 503.64C1442 513.785 1209 597.236 934 562.546C746.122 538.847 745.833 540.729 690.5 540.293C478 543.566 530.001 564.187 341.5 580.875Z" fill="#FFF4B4" fill-opacity="0.3"/>
</svg>
